<?xml version="1.0" standalone="no"?>
<!DOCTYPE svg PUBLIC "-//W3C//DTD SVG 20010904//EN"
 "http://www.w3.org/TR/2001/REC-SVG-20010904/DTD/svg10.dtd">
<svg version="1.0" xmlns="http://www.w3.org/2000/svg"
 width="243.000000pt" height="243.000000pt" viewBox="0 0 243.000000 243.000000"
 preserveAspectRatio="xMidYMid meet">
<metadata>
Created by potrace 1.11, written by Peter Selinger 2001-2013
</metadata>
<g transform="translate(0.000000,243.000000) scale(0.100000,-0.100000)"
fill="#000000" stroke="none">
<path d="M1421 2413 c-1 -6 -4 -19 -8 -29 -5 -13 -3 -15 7 -9 9 5 11 4 6 -3
-10 -16 -14 -15 -27 9 -8 15 -8 19 0 15 6 -4 11 -2 11 4 0 7 -14 9 -42 4 -24
-3 -57 -8 -75 -10 -28 -2 -82 -15 -136 -30 -9 -3 -15 -10 -12 -15 4 -5 1 -9
-4 -9 -6 0 -11 4 -11 9 0 12 -62 -8 -71 -21 -3 -6 -9 -9 -13 -9 -25 4 -36 0
-30 -11 4 -6 3 -8 -4 -4 -12 7 -91 -21 -107 -38 -5 -6 -14 -11 -20 -11 -16 0
-115 -57 -115 -67 0 -4 -7 -8 -15 -8 -8 0 -15 -4 -15 -10 0 -5 -7 -10 -15 -10
-8 0 -15 -4 -15 -10 0 -5 -7 -10 -15 -10 -17 0 -19 -11 -5 -28 7 -9 7 -9 -2
-2 -7 6 -16 10 -21 10 -4 0 -5 -4 -2 -10 3 -5 -2 -10 -12 -10 -23 0 -175 -148
-167 -162 4 -6 3 -8 -2 -5 -15 9 -87 -70 -81 -87 4 -11 1 -13 -10 -9 -12 5
-15 2 -10 -10 3 -9 1 -19 -5 -23 -7 -5 -8 -2 -3 7 8 12 6 12 -8 0 -19 -15 -23
-36 -5 -25 7 4 8 3 4 -5 -4 -6 -11 -9 -16 -6 -5 3 -11 1 -15 -5 -3 -5 -2 -10
4 -10 11 0 9 -26 -4 -37 -4 -4 -5 -3 -1 4 3 6 2 14 -4 18 -5 3 -10 0 -10 -8 0
-8 -7 -17 -15 -21 -8 -3 -15 -10 -15 -16 0 -6 6 -8 13 -5 6 4 3 -1 -7 -9 -11
-9 -16 -16 -11 -16 5 0 0 -7 -11 -15 -10 -8 -15 -15 -10 -15 5 0 3 -7 -4 -15
-7 -8 -9 -15 -6 -15 4 0 0 -7 -8 -16 -9 -8 -16 -24 -16 -35 0 -10 -5 -19 -11
-19 -6 0 -9 -9 -6 -20 3 -11 1 -20 -3 -20 -5 0 -12 -17 -16 -37 -4 -21 -10
-40 -14 -43 -5 -3 -10 -20 -13 -38 -5 -28 -3 -33 11 -28 10 3 7 -1 -6 -10 -25
-19 -29 -34 -8 -34 20 0 29 -17 15 -26 -8 -4 -9 -3 -5 4 4 8 0 12 -12 12 -10
0 -19 -6 -20 -12 0 -7 -3 -24 -6 -38 -7 -35 -16 -96 -22 -154 -4 -33 -2 -46 5
-41 6 3 11 1 11 -4 0 -6 -7 -11 -16 -11 -14 0 -15 -2 -3 -17 8 -9 9 -14 3 -10
-7 4 -12 -2 -12 -18 0 -14 4 -23 7 -20 4 2 13 -1 21 -6 12 -8 11 -9 -5 -7 -17
3 -20 -3 -21 -37 -1 -22 -4 -50 -8 -63 -5 -15 -3 -22 6 -22 10 0 9 -3 -2 -10
-13 -8 -13 -10 2 -10 9 0 20 4 23 10 8 13 25 13 25 0 0 -6 -3 -9 -7 -8 -18 5
-52 -23 -50 -41 0 -11 4 -18 8 -15 4 2 10 -3 13 -12 3 -8 2 -12 -3 -9 -5 3
-12 1 -16 -5 -3 -5 -1 -10 5 -10 8 0 8 -6 0 -20 -8 -14 -8 -20 0 -20 7 0 7 -7
-1 -21 -8 -16 -8 -23 1 -29 9 -6 9 -9 -1 -13 -11 -4 -10 -6 1 -6 9 -1 21 4 28
11 9 9 12 9 12 0 0 -7 -4 -12 -8 -12 -5 0 -17 -7 -28 -16 -16 -13 -16 -15 -1
-10 16 5 16 4 1 -19 -11 -17 -12 -25 -5 -25 7 0 9 -5 5 -12 -12 -19 -10 -97 3
-102 6 -3 14 0 17 7 3 9 5 8 5 -1 1 -7 5 -10 11 -7 6 3 7 -1 3 -10 -3 -9 -9
-13 -12 -8 -11 14 -38 14 -38 -2 0 -8 3 -12 7 -10 3 2 11 -5 18 -16 7 -11 8
-19 2 -19 -5 0 -10 5 -10 12 0 9 -3 9 -12 0 -10 -10 -10 -15 2 -22 13 -9 13
-10 0 -10 -13 0 -13 -2 0 -9 8 -6 17 -8 21 -5 4 2 5 -6 1 -18 -5 -21 -6 -21
-13 -2 -8 21 -10 19 -14 -13 -1 -12 1 -20 5 -18 4 3 10 -2 14 -10 3 -8 0 -14
-6 -12 -14 3 -17 -90 -5 -120 9 -19 73 -49 152 -70 57 -15 133 -33 165 -39 14
-2 31 -7 39 -9 16 -6 186 -18 251 -19 49 0 180 11 220 19 85 16 136 28 145 33
6 4 15 7 20 8 41 6 123 39 118 47 -3 6 -1 7 5 3 6 -3 42 8 81 25 53 24 68 35
64 48 -4 13 -3 13 5 2 9 -12 21 -8 72 22 94 56 199 139 260 205 70 75 116 134
112 144 -1 4 2 7 8 6 30 -8 300 498 300 564 0 8 4 18 8 23 5 6 24 48 42 95 18
47 38 99 45 115 7 17 27 68 45 115 18 47 39 100 47 118 8 18 11 37 7 44 -4 6
-3 8 3 5 13 -8 23 26 16 52 -5 21 -131 66 -268 96 -114 26 -105 18 -90 80 9
40 9 55 1 55 -8 0 -8 2 0 8 15 10 26 54 11 45 -7 -4 -6 0 1 10 8 9 16 34 18
56 5 44 -10 60 -53 56 -13 -1 -23 1 -23 5 0 4 -6 7 -12 7 -35 1 -184 16 -187
19 -2 2 -12 -1 -22 -7 -12 -6 -19 -6 -19 0 0 10 -40 8 -58 -3 -14 -9 -14 -8
-16 114 -1 52 -5 101 -10 109 -6 9 -5 12 0 8 12 -7 12 33 1 51 -5 6 -22 12
-38 12 -22 0 -28 -4 -23 -12 6 -10 5 -10 -7 -2 -15 13 -77 13 -96 1 -6 -4 -14
-1 -16 5 -4 9 -6 9 -6 1z m84 -13 c-3 -5 -12 -10 -18 -10 -7 0 -6 4 3 10 19
12 23 12 15 0z m-35 -10 c0 -5 -4 -10 -10 -10 -5 0 -10 5 -10 10 0 6 5 10 10
10 6 0 10 -4 10 -10z m68 -15 c-3 -3 -9 2 -12 12 -6 14 -5 15 5 6 7 -7 10 -15
7 -18z m-251 0 c0 -8 -4 -15 -9 -15 -10 0 -11 14 -1 23 9 10 10 9 10 -8z m74
-8 c-10 -9 -11 -8 -5 6 3 10 9 15 12 12 3 -3 0 -11 -7 -18z m209 9 c0 -3 -4
-8 -10 -11 -5 -3 -10 -1 -10 4 0 6 5 11 10 11 6 0 10 -2 10 -4z m-363 -27 c2
-16 -1 -19 -9 -11 -5 5 -7 15 -4 21 10 15 12 14 13 -10z m57 -4 c3 -8 0 -17
-6 -21 -7 -4 -8 -3 -4 4 4 7 3 12 -2 12 -6 0 -12 7 -15 14 -4 10 -1 13 8 10 7
-3 16 -12 19 -19z m60 10 c-4 -8 -11 -12 -17 -8 -7 4 -8 0 -3 -13 6 -16 5 -17
-6 -6 -11 11 -10 16 6 28 25 18 27 18 20 -1z m66 -5 c0 -5 -4 -10 -10 -10 -5
0 -10 5 -10 10 0 6 5 10 10 10 6 0 10 -4 10 -10z m80 -15 c0 -2 -5 -7 -12 -11
-7 -4 -8 -3 -4 4 7 12 -4 16 -34 13 -13 -2 -13 0 -1 8 13 9 51 -2 51 -14z m27
3 c-3 -8 -6 -5 -6 6 -1 11 2 17 5 13 3 -3 4 -12 1 -19z m83 12 c-8 -5 -19 -10
-25 -10 -5 0 -3 5 5 10 8 5 20 10 25 10 6 0 3 -5 -5 -10z m-460 -20 c8 -5 11
-10 5 -10 -5 0 -17 5 -25 10 -8 5 -10 10 -5 10 6 0 17 -5 25 -10z m464 -2 c-5
-8 -1 -9 12 -4 14 5 16 4 7 -5 -13 -13 -37 -3 -28 12 4 5 8 9 11 9 3 0 2 -5
-2 -12z m-406 -23 c6 -14 10 -25 8 -25 -2 0 -11 11 -20 25 -9 14 -13 25 -8 25
5 0 14 -11 20 -25z m232 21 c0 -3 -4 -8 -10 -11 -5 -3 -10 -1 -10 4 0 6 5 11
10 11 6 0 10 -2 10 -4z m125 -14 c-3 -3 -11 0 -18 7 -9 10 -8 11 6 5 10 -3 15
-9 12 -12z m-436 -1 c10 -7 7 -9 -12 -8 -14 1 -23 5 -20 10 6 9 15 9 32 -2z
m199 -12 c3 -11 2 -11 -7 1 -10 13 -12 13 -21 0 -5 -8 -10 -10 -10 -4 0 27 31
30 38 3z m23 -6 c-12 -20 -14 -14 -5 12 4 9 9 14 11 11 3 -2 0 -13 -6 -23z
m177 19 c8 -6 2 -9 -18 -9 -20 0 -26 3 -18 9 7 4 15 8 18 8 3 0 11 -4 18 -8z
m-283 -20 c-3 -3 -11 0 -18 7 -9 10 -8 11 6 5 10 -3 15 -9 12 -12z m170 9 c3
-5 0 -13 -6 -17 -8 -5 -9 -3 -4 6 6 9 1 10 -16 5 -19 -5 -21 -4 -9 4 19 13 27
14 35 2z m47 2 c-6 -2 -9 -10 -6 -15 4 -7 2 -8 -5 -4 -13 9 -5 26 12 25 9 0 8
-2 -1 -6z m138 -3 c0 -5 -5 -10 -11 -10 -5 0 -7 5 -4 10 3 6 8 10 11 10 2 0 4
-4 4 -10z m-320 -10 c0 -5 -2 -10 -4 -10 -3 0 -8 5 -11 10 -3 6 -1 10 4 10 6
0 11 -4 11 -10z m-236 -15 c11 -8 16 -15 10 -15 -5 0 -18 7 -28 15 -11 8 -16
15 -10 15 5 0 18 -7 28 -15z m39 8 c-7 -2 -19 -2 -25 0 -7 3 -2 5 12 5 14 0
19 -2 13 -5z m38 -2 c-8 -5 -10 -14 -6 -22 6 -11 5 -11 -5 -2 -14 12 -6 33 13
33 8 0 7 -3 -2 -9z m393 -2 c-3 -6 0 -15 7 -20 9 -6 10 -9 2 -9 -15 0 -26 17
-18 30 3 6 8 10 11 10 3 0 2 -5 -2 -11z m-514 -10 c0 -15 -18 -19 -23 -6 -3 8
1 14 9 14 8 0 14 -4 14 -8z m183 -9 c-10 -11 -19 -20 -21 -20 -1 0 2 9 8 20 6
11 15 20 20 20 6 0 2 -9 -7 -20z m82 9 c11 -16 1 -19 -13 -3 -7 8 -8 14 -3 14
5 0 13 -5 16 -11z m95 -15 c0 -2 -9 0 -20 6 -11 6 -20 13 -20 16 0 2 9 0 20
-6 11 -6 20 -13 20 -16z m85 15 c11 -16 1 -19 -13 -3 -7 8 -8 14 -3 14 5 0 13
-5 16 -11z m135 3 c0 -4 -10 -9 -22 -9 -18 -2 -20 0 -8 7 18 12 30 13 30 2z
m44 -4 c-3 -4 -9 -8 -15 -8 -5 0 -9 4 -9 8 0 5 7 9 15 9 8 0 12 -4 9 -9z
m-469 -8 c-3 -5 -12 -10 -18 -10 -7 0 -6 4 3 10 19 12 23 12 15 0z m67 3 c-6
-2 -9 -10 -6 -15 4 -7 2 -8 -5 -4 -13 9 -5 26 12 25 9 0 8 -2 -1 -6z m-201
-40 c-11 -16 -11 -15 -5 6 4 17 3 21 -6 16 -9 -6 -11 -4 -5 4 5 9 11 9 17 3 7
-7 6 -16 -1 -29z m69 33 c0 -2 -7 -7 -16 -10 -8 -3 -12 -2 -9 4 6 10 25 14 25
6z m227 -11 c0 -8 -4 -12 -9 -9 -4 3 -8 9 -8 15 0 5 4 9 8 9 5 0 9 -7 9 -15z
m179 3 c4 -7 3 -8 -4 -4 -7 4 -12 2 -12 -4 0 -6 -5 -8 -11 -4 -8 4 -7 9 2 15
18 11 17 11 25 -3z m-575 -15 c13 -16 12 -17 -3 -4 -10 7 -18 15 -18 17 0 8 8
3 21 -13z m663 -8 c-9 -14 -18 -25 -20 -25 -2 0 2 11 8 25 6 14 15 25 20 25 5
0 1 -11 -8 -25z m-621 -3 c-10 -10 -20 -17 -22 -16 -6 5 20 34 30 34 5 0 1 -8
-8 -18z m163 6 c-9 -5 -23 -5 -32 0 -12 6 -7 9 16 9 23 0 28 -3 16 -9z m82 4
c8 -6 2 -9 -18 -9 -20 0 -26 3 -18 9 7 4 15 8 18 8 3 0 11 -4 18 -8z m52 4 c0
-2 -7 -7 -16 -10 -8 -3 -12 -2 -9 4 6 10 25 14 25 6z m189 -5 c10 -7 7 -9 -12
-8 -14 1 -23 5 -20 10 6 9 15 9 32 -2z m91 5 c0 -3 -4 -8 -10 -11 -5 -3 -10
-1 -10 4 0 6 5 11 10 11 6 0 10 -2 10 -4z m-645 -15 c3 -5 0 -13 -6 -17 -8 -5
-9 -3 -4 6 6 9 1 10 -16 5 -19 -5 -21 -4 -9 4 19 13 27 14 35 2z m101 -6 c-1
-8 -6 -18 -11 -22 -4 -4 -5 -2 -1 5 4 7 2 12 -6 12 -9 0 -9 3 2 10 19 12 19
13 16 -5z m299 6 c3 -5 0 -13 -6 -17 -8 -5 -9 -3 -4 6 6 9 1 10 -16 5 -19 -5
-21 -4 -9 4 19 13 27 14 35 2z m65 -2 c12 -8 10 -9 -9 -4 -17 5 -22 4 -16 -5
5 -9 4 -11 -4 -6 -6 4 -9 12 -6 17 8 12 16 11 35 -2z m35 1 c-3 -5 -1 -10 6
-10 7 0 10 -3 6 -6 -9 -9 -28 6 -22 17 4 5 8 9 11 9 3 0 2 -4 -1 -10z m158 -5
c-3 -9 -8 -14 -10 -11 -3 3 -2 9 2 15 9 16 15 13 8 -4z m-523 -20 c-7 -8 -16
-15 -21 -15 -5 0 -1 8 9 18 20 22 31 19 12 -3z m66 0 c1 -8 -4 -11 -12 -8 -10
4 -13 0 -8 -13 5 -16 4 -16 -5 -4 -8 11 -7 18 4 26 8 6 13 14 10 17 -3 4 -2 5
2 2 4 -3 8 -12 9 -20z m32 0 c-6 -14 -13 -23 -15 -21 -5 5 15 46 22 46 3 0 -1
-11 -7 -25z m-294 3 c-5 -8 -1 -9 12 -4 14 5 16 4 7 -5 -13 -13 -37 -3 -28 12
4 5 8 9 11 9 3 0 2 -5 -2 -12z m328 5 c-6 -2 -9 -10 -6 -15 4 -7 2 -8 -5 -4
-13 9 -5 26 12 25 9 0 8 -2 -1 -6z m34 -22 c-4 -6 -13 -11 -19 -11 -8 0 -7 3
2 9 8 5 10 14 6 22 -6 11 -5 11 5 2 7 -6 9 -16 6 -22z m244 19 c-13 -9 -13
-11 0 -20 9 -6 10 -10 3 -10 -6 0 -15 5 -18 10 -8 13 3 30 18 30 7 0 6 -4 -3
-10z m45 -8 c-3 -3 -11 0 -18 7 -9 10 -8 11 6 5 10 -3 15 -9 12 -12z m45 3 c0
-8 -4 -15 -10 -15 -5 0 -7 7 -4 15 4 8 8 15 10 15 2 0 4 -7 4 -15z m-565 -5
c-3 -5 -12 -10 -18 -10 -7 0 -6 4 3 10 19 12 23 12 15 0z m299 -2 c-3 -4 -9
-8 -15 -8 -5 0 -9 4 -9 8 0 5 7 9 15 9 8 0 12 -4 9 -9z m56 2 c0 -5 -4 -10
-10 -10 -5 0 -10 5 -10 10 0 6 5 10 10 10 6 0 10 -4 10 -10z m60 0 c0 -5 -4
-10 -10 -10 -5 0 -10 5 -10 10 0 6 5 10 10 10 6 0 10 -4 10 -10z m251 -23 c-8
-8 -14 -7 -23 2 -11 10 -9 11 6 5 15 -6 17 -4 11 6 -6 9 -4 11 4 5 9 -5 10
-10 2 -18z m-710 -7 c6 0 7 5 3 12 -5 7 -3 8 5 3 9 -5 9 -11 3 -17 -12 -12
-32 -2 -31 15 0 9 2 9 6 0 2 -7 9 -13 14 -13z m116 6 c0 -8 -6 -12 -15 -9 -11
5 -11 7 0 14 7 5 13 9 14 9 0 0 1 -6 1 -14z m196 -9 c-5 -8 -8 -7 -11 1 -2 7
-9 9 -14 6 -7 -4 -8 -2 -4 4 4 6 13 9 21 6 8 -4 12 -11 8 -17z m44 9 c0 -8 -6
-12 -15 -9 -11 5 -11 7 0 14 7 5 13 9 14 9 0 0 1 -6 1 -14z m57 3 c-4 -8 1 -9
17 -5 20 6 21 5 6 -4 -19 -12 -41 -4 -32 11 4 5 8 9 11 9 3 0 2 -5 -2 -11z
m68 4 c-6 -2 -9 -10 -6 -15 4 -7 2 -8 -5 -4 -13 9 -5 26 12 25 9 0 8 -2 -1 -6z
m192 -9 c3 -8 2 -12 -4 -9 -6 3 -10 10 -10 16 0 14 7 11 14 -7z m-599 -4 c-3
-5 -12 -10 -18 -10 -7 0 -6 4 3 10 19 12 23 12 15 0z m81 -38 c1 -6 -2 -10 -7
-6 -5 3 -7 9 -4 14 3 5 1 11 -5 15 -5 3 -10 12 -10 18 1 14 23 -22 26 -41z
m239 19 c-6 -5 -25 10 -25 20 0 5 6 4 14 -3 8 -7 12 -15 11 -17z m-479 4 c4
-8 10 -12 15 -9 5 3 9 3 9 0 0 -15 -19 -12 -33 5 -9 10 -12 19 -7 19 6 0 13
-7 16 -15z m59 5 c3 -5 1 -10 -4 -10 -6 0 -11 5 -11 10 0 6 2 10 4 10 3 0 8
-4 11 -10z m245 -26 c0 -2 -11 2 -25 8 -14 6 -25 15 -25 20 0 5 11 1 25 -8 14
-9 25 -18 25 -20z m20 1 c0 -5 -5 -3 -10 5 -5 8 -10 20 -10 25 0 6 5 3 10 -5
5 -8 10 -19 10 -25z m20 25 c0 -5 -2 -10 -4 -10 -3 0 -8 5 -11 10 -3 6 -1 10
4 10 6 0 11 -4 11 -10z m266 -2 c-10 -6 -22 -6 -26 -2 -5 5 3 10 18 11 22 1
24 0 8 -9z m53 9 c-2 -1 -13 -9 -24 -17 -19 -14 -19 -14 -6 3 7 9 18 17 24 17
6 0 8 -1 6 -3z m65 -9 c-3 -5 -10 -6 -15 -3 -5 4 -9 1 -9 -6 0 -7 -3 -10 -6
-6 -9 9 3 24 20 24 8 0 13 -4 10 -9z m-769 -8 c3 -5 1 -10 -4 -10 -6 0 -11 5
-11 10 0 6 2 10 4 10 3 0 8 -4 11 -10z m160 0 c3 -5 1 -10 -4 -10 -6 0 -11 5
-11 10 0 6 2 10 4 10 3 0 8 -4 11 -10z m565 5 c0 -2 -10 -9 -22 -15 -22 -11
-22 -10 -4 4 21 17 26 19 26 11z m-231 -29 c-7 -6 -18 -17 -25 -25 -9 -12 -12
-12 -19 0 -5 8 -5 11 -1 7 10 -8 44 24 38 36 -3 5 0 6 7 1 10 -6 10 -10 0 -19z
m-533 -9 c1 -9 -2 -15 -7 -11 -5 3 -7 9 -4 14 3 4 0 11 -5 13 -6 3 -5 4 1 3 7
-1 13 -10 15 -19z m125 14 c-8 -5 -10 -14 -6 -22 6 -11 5 -11 -5 -2 -14 12 -6
33 13 33 8 0 7 -3 -2 -9z m52 -4 c4 3 7 1 7 -5 0 -17 -16 -15 -31 6 -12 15
-12 16 2 5 9 -7 19 -10 22 -6z m247 3 c0 -5 -10 -15 -22 -21 l-23 -12 20 21
c23 24 25 25 25 12z m44 -9 c-10 -10 -21 -16 -24 -14 -3 3 4 11 14 19 28 20
33 17 10 -5z m133 5 c0 -8 -6 -12 -15 -9 -11 5 -11 7 0 14 7 5 13 9 14 9 0 0
1 -6 1 -14z m-553 -11 c-10 -8 -23 -15 -28 -15 -6 0 -1 7 10 15 10 8 23 15 28
15 6 0 1 -7 -10 -15z m180 9 c9 -3 16 -11 16 -16 0 -7 -5 -6 -13 1 -8 6 -17 8
-20 4 -4 -3 -7 -1 -7 5 0 14 2 14 24 6z m69 -9 c4 -8 1 -17 -5 -21 -7 -4 -8
-3 -4 4 4 7 2 12 -3 12 -6 0 -11 5 -11 10 0 15 17 12 23 -5z m55 1 c-10 -7
-14 -17 -10 -21 4 -5 1 -5 -7 0 -12 7 -11 10 4 22 24 17 36 17 13 -1z m302 10
c0 -2 -7 -7 -16 -10 -8 -3 -12 -2 -9 4 6 10 25 14 25 6z m-97 -21 c-3 -9 -8
-14 -10 -11 -3 3 -2 9 2 15 9 16 15 13 8 -4z m-476 -10 c-6 -7 -14 -9 -15 -4
-2 5 -9 6 -14 3 -6 -4 -8 -3 -5 2 3 5 15 10 26 11 17 1 18 -1 8 -12z m78 5 c3
-6 -1 -7 -9 -4 -18 7 -21 14 -7 14 6 0 13 -4 16 -10z m278 -3 c3 -8 2 -20 -3
-26 -5 -9 -7 -4 -7 13 0 29 2 32 10 13z m41 -3 c3 -8 2 -12 -4 -9 -6 3 -10 10
-10 16 0 14 7 11 14 -7z m541 6 c3 -5 1 -10 -4 -10 -6 0 -11 5 -11 10 0 6 2
10 4 10 3 0 8 -4 11 -10z m120 0 c3 -5 1 -10 -4 -10 -6 0 -11 5 -11 10 0 6 2
10 4 10 3 0 8 -4 11 -10z m40 0 c3 -5 1 -10 -4 -10 -6 0 -11 5 -11 10 0 6 2
10 4 10 3 0 8 -4 11 -10z m-1206 -27 c10 -24 9 -26 -2 -11 -8 10 -16 16 -19
13 -2 -3 -5 2 -5 10 0 24 13 18 26 -12z m239 2 c6 -14 10 -25 8 -25 -2 0 -11
11 -20 25 -9 14 -13 25 -8 25 5 0 14 -11 20 -25z m-291 9 c-3 -3 -12 -4 -19
-1 -8 3 -5 6 6 6 11 1 17 -2 13 -5z m103 -4 c0 -5 -2 -10 -4 -10 -3 0 -8 5
-11 10 -3 6 -1 10 4 10 6 0 11 -4 11 -10z m106 -2 c-9 -5 -23 -5 -32 0 -12 6
-7 9 16 9 23 0 28 -3 16 -9z m202 -9 c3 -11 2 -11 -7 1 -10 13 -12 13 -21 0
-5 -8 -10 -10 -10 -4 0 27 31 30 38 3z m-330 -14 c-3 -3 -9 2 -12 12 -6 14 -5
15 5 6 7 -7 10 -15 7 -18z m247 7 c-3 -3 -11 0 -18 7 -9 10 -8 11 6 5 10 -3
15 -9 12 -12z m110 9 c3 -5 2 -12 -3 -15 -5 -3 -9 1 -9 9 0 17 3 19 12 6z m48
-5 c4 -10 0 -12 -15 -8 -15 4 -17 7 -6 13 17 11 15 11 21 -5z m-311 -18 c-5
-5 -18 -8 -28 -5 -15 4 -14 5 4 6 15 1 21 5 16 13 -5 7 -3 8 5 3 8 -5 9 -11 3
-17z m41 2 c-3 -12 -8 -19 -11 -16 -5 6 5 36 12 36 2 0 2 -9 -1 -20z m147 10
c0 -5 -2 -10 -4 -10 -3 0 -8 5 -11 10 -3 6 -1 10 4 10 6 0 11 -4 11 -10z m740
0 c0 -5 -2 -10 -4 -10 -3 0 -8 5 -11 10 -3 6 -1 10 4 10 6 0 11 -4 11 -10z
m160 0 c0 -5 -5 -10 -11 -10 -5 0 -7 5 -4 10 3 6 8 10 11 10 2 0 4 -4 4 -10z
m-1221 -14 c9 -10 8 -15 -2 -19 -8 -3 -13 3 -13 14 0 23 0 23 15 5z m65 -1 c3
-8 1 -15 -4 -15 -6 0 -10 7 -10 15 0 8 2 15 4 15 2 0 6 -7 10 -15z m-97 -1
c-3 -3 -12 -4 -19 -1 -8 3 -5 6 6 6 11 1 17 -2 13 -5z m226 -19 c-7 -21 -12
-19 -10 4 0 11 5 18 9 15 4 -3 5 -11 1 -19z m57 15 c8 -5 11 -10 5 -10 -5 0
-17 5 -25 10 -8 5 -10 10 -5 10 6 0 17 -5 25 -10z m55 0 c3 -6 -1 -7 -9 -4
-18 7 -21 14 -7 14 6 0 13 -4 16 -10z m49 -2 c-3 -5 -10 -6 -15 -3 -5 4 -9 1
-9 -6 0 -7 -3 -10 -6 -6 -9 9 3 24 20 24 8 0 13 -4 10 -9z m66 8 c0 -3 -4 -8
-10 -11 -5 -3 -10 -1 -10 4 0 6 5 11 10 11 6 0 10 -2 10 -4z m-495 -24 c-3 -3
-11 0 -18 7 -9 10 -8 11 6 5 10 -3 15 -9 12 -12z m-30 -2 c3 -6 -1 -7 -9 -4
-18 7 -21 14 -7 14 6 0 13 -4 16 -10z m340 0 c3 -5 1 -10 -4 -10 -6 0 -11 5
-11 10 0 6 2 10 4 10 3 0 8 -4 11 -10z m57 -12 c-7 -7 -16 -6 -29 1 -16 11
-15 11 6 5 17 -4 21 -3 16 6 -6 9 -4 11 4 5 9 -5 9 -11 3 -17z m683 12 c3 -5
1 -10 -4 -10 -6 0 -11 5 -11 10 0 6 2 10 4 10 3 0 8 -4 11 -10z m85 6 c0 -3
-4 -8 -10 -11 -5 -3 -10 -1 -10 4 0 6 5 11 10 11 6 0 10 -2 10 -4z m-859 -29
c-10 -9 -11 -8 -5 6 3 10 9 15 12 12 3 -3 0 -11 -7 -18z m952 8 c-3 -9 -8 -14
-10 -11 -3 3 -2 9 2 15 9 16 15 13 8 -4z m-1283 -5 c-8 -5 -19 -10 -25 -10 -5
0 -3 5 5 10 8 5 20 10 25 10 6 0 3 -5 -5 -10z m60 0 c-8 -5 -19 -10 -25 -10
-5 0 -3 5 5 10 8 5 20 10 25 10 6 0 3 -5 -5 -10z m115 -1 c11 -16 1 -19 -13
-3 -7 8 -8 14 -3 14 5 0 13 -5 16 -11z m94 8 c-2 -1 -13 -9 -24 -17 -19 -14
-19 -14 -6 3 7 9 18 17 24 17 6 0 8 -1 6 -3z m178 -12 c0 -8 -4 -15 -9 -15
-10 0 -11 14 -1 23 9 10 10 9 10 -8z m797 7 c3 -5 -1 -9 -9 -9 -8 0 -12 4 -9
9 3 4 7 8 9 8 2 0 6 -4 9 -8z m-1099 -11 c3 -5 0 -13 -6 -17 -8 -5 -9 -3 -4 6
6 9 1 10 -16 5 -19 -5 -21 -4 -9 4 19 13 27 14 35 2z m75 -6 c0 -2 -6 -5 -13
-8 -8 -3 -14 1 -14 8 0 7 6 11 14 8 7 -3 13 -6 13 -8z m85 6 c3 -5 0 -13 -6
-17 -8 -5 -9 -3 -4 6 6 9 1 10 -16 5 -19 -5 -21 -4 -9 4 19 13 27 14 35 2z
m-215 -5 c0 -3 -4 -8 -10 -11 -5 -3 -10 -1 -10 4 0 6 5 11 10 11 6 0 10 -2 10
-4z m256 -5 c-3 -5 1 -12 10 -15 9 -4 14 -9 11 -13 -9 -8 -38 17 -31 28 3 5 7
9 10 9 3 0 3 -4 0 -9z m-380 -10 c-4 -5 -1 -11 6 -13 7 -3 5 -7 -6 -11 -10 -4
-15 -3 -11 3 3 6 0 10 -7 10 -9 0 -9 3 2 10 19 12 23 12 16 1z m49 -9 c-3 -3
-11 0 -18 7 -9 10 -8 11 6 5 10 -3 15 -9 12 -12z m40 -3 c-5 -16 -4 -19 5 -14
9 6 11 4 5 -4 -10 -18 -27 2 -19 22 9 25 17 21 9 -4z m350 11 c3 -5 1 -10 -4
-10 -6 0 -11 5 -11 10 0 6 2 10 4 10 3 0 8 -4 11 -10z m-295 -10 c0 -5 -2 -10
-4 -10 -3 0 -8 5 -11 10 -3 6 -1 10 4 10 6 0 11 -4 11 -10z m60 -5 c0 -8 -2
-15 -4 -15 -2 0 -6 7 -10 15 -3 8 -1 15 4 15 6 0 10 -7 10 -15z m60 1 c0 -8
-4 -18 -10 -21 -6 -4 -7 1 -3 11 5 13 3 15 -7 9 -9 -5 -11 -4 -6 3 10 17 26
15 26 -2z m85 4 c-3 -5 -12 -10 -18 -10 -7 0 -6 4 3 10 19 12 23 12 15 0z
m-305 -17 c0 -5 -10 -19 -21 -33 l-20 -25 12 25 c7 14 12 28 11 33 -1 4 3 7 8
7 6 0 10 -3 10 -7z m71 -20 c-12 -20 -14 -14 -5 12 4 9 9 14 11 11 3 -2 0 -13
-6 -23z m204 17 c3 -5 1 -10 -4 -10 -6 0 -11 5 -11 10 0 6 2 10 4 10 3 0 8 -4
11 -10z m60 0 c3 -5 1 -10 -4 -10 -6 0 -11 5 -11 10 0 6 2 10 4 10 3 0 8 -4
11 -10z m805 6 c0 -3 -4 -8 -10 -11 -5 -3 -10 -1 -10 4 0 6 5 11 10 11 6 0 10
-2 10 -4z m40 0 c0 -3 -4 -8 -10 -11 -5 -3 -10 -1 -10 4 0 6 5 11 10 11 6 0
10 -2 10 -4z m200 0 c0 -3 -4 -8 -10 -11 -5 -3 -10 -1 -10 4 0 6 5 11 10 11 6
0 10 -2 10 -4z m-1278 -48 c-6 -6 -12 -6 -17 3 -6 8 -4 10 5 4 9 -5 10 -1 6
16 -6 21 -6 22 5 6 7 -13 8 -22 1 -29z m146 31 c-2 -6 -7 -10 -12 -9 -5 1 -13
-4 -18 -12 -8 -10 -9 -10 -5 2 2 8 10 14 16 13 6 -2 11 2 11 7 0 6 3 10 6 10
3 0 4 -5 2 -11z m-218 -3 c0 -3 -4 -8 -10 -11 -5 -3 -10 -1 -10 4 0 6 5 11 10
11 6 0 10 -2 10 -4z m139 -23 c2 -2 -3 -3 -11 -3 -9 0 -19 7 -22 16 -6 15 -4
15 11 3 10 -7 20 -15 22 -16z m31 -8 c0 -5 -5 -3 -10 5 -5 8 -10 20 -10 25 0
6 5 3 10 -5 5 -8 10 -19 10 -25z m1120 31 c0 -3 -4 -8 -10 -11 -5 -3 -10 -1
-10 4 0 6 5 11 10 11 6 0 10 -2 10 -4z m-1365 -16 c-3 -5 -12 -10 -18 -10 -7
0 -6 4 3 10 19 12 23 12 15 0z m-35 -4 c0 -2 -9 -6 -20 -9 -11 -3 -18 -1 -14
4 5 9 34 13 34 5z m76 -11 c-3 -8 0 -15 6 -15 6 0 9 -3 5 -6 -10 -11 -26 6
-20 21 3 8 7 15 10 15 3 0 3 -7 -1 -15z m60 3 c5 -7 3 -8 -6 -3 -9 5 -10 1 -6
-16 6 -20 5 -21 -4 -6 -6 9 -8 22 -5 27 8 13 12 13 21 -2z m199 2 c-8 -13 7
-13 23 0 7 5 6 3 -2 -6 -14 -17 -41 -10 -31 7 4 5 8 9 11 9 3 0 2 -4 -1 -10z
m920 0 c3 -5 1 -10 -4 -10 -6 0 -11 5 -11 10 0 6 2 10 4 10 3 0 8 -4 11 -10z
m205 0 c0 -5 -5 -10 -11 -10 -5 0 -7 5 -4 10 3 6 8 10 11 10 2 0 4 -4 4 -10z
m-1515 -10 c-3 -5 -1 -10 6 -10 7 0 10 -3 6 -6 -9 -9 -28 6 -22 17 4 5 8 9 11
9 3 0 2 -4 -1 -10z m1413 -15 c-3 -3 -9 2 -12 12 -6 14 -5 15 5 6 7 -7 10 -15
7 -18z m-1328 0 c19 -22 8 -25 -12 -3 -10 10 -14 18 -9 18 5 0 14 -7 21 -15z
m150 0 c0 -2 -9 -3 -19 -2 -11 0 -18 5 -15 9 4 6 34 0 34 -7z m46 3 c3 -4 -1
-5 -10 -4 -8 1 -18 5 -22 8 -3 4 1 5 10 4 8 -1 18 -5 22 -8z m40 1 c3 -6 2
-15 -4 -21 -6 -6 -12 -6 -17 3 -5 8 -4 10 3 5 7 -4 12 -3 12 3 0 5 -6 12 -12
14 -10 4 -10 6 -1 6 6 1 15 -4 19 -10z m1134 1 c0 -5 -4 -10 -10 -10 -5 0 -10
5 -10 10 0 6 5 10 10 10 6 0 10 -4 10 -10z m-1087 -15 c-3 -9 -8 -14 -10 -11
-3 3 -2 9 2 15 9 16 15 13 8 -4z m-369 -20 c9 -14 13 -25 8 -25 -5 0 -14 11
-20 25 -6 14 -10 25 -8 25 2 0 11 -11 20 -25z m51 6 c-3 -6 -11 -11 -16 -11
-5 0 -4 6 3 14 14 16 24 13 13 -3z m1345 9 c0 -5 -2 -10 -4 -10 -3 0 -8 5 -11
10 -3 6 -1 10 4 10 6 0 11 -4 11 -10z m120 6 c0 -3 -4 -8 -10 -11 -5 -3 -10
-1 -10 4 0 6 5 11 10 11 6 0 10 -2 10 -4z m-1438 -48 c-6 -6 -12 -6 -17 3 -6
8 -4 10 5 4 9 -5 10 -1 6 16 -6 21 -6 22 5 6 7 -13 8 -22 1 -29z m186 17 c6
-14 10 -25 8 -25 -2 0 -11 11 -20 25 -9 14 -13 25 -8 25 5 0 14 -11 20 -25z
m-133 -5 c-3 -5 1 -11 7 -13 10 -4 10 -6 1 -6 -7 -1 -17 8 -23 19 -9 16 -8 18
5 14 8 -3 13 -10 10 -14z m54 11 c10 -7 7 -9 -12 -8 -14 1 -23 5 -20 10 6 9
15 9 32 -2z m106 -1 c-3 -5 -1 -10 6 -10 7 0 10 -3 6 -6 -9 -9 -28 6 -22 17 4
5 8 9 11 9 3 0 2 -4 -1 -10z m-113 -29 c-8 -4 -13 -12 -12 -17 1 -5 -4 -10
-12 -12 -9 -2 -8 0 2 7 8 6 11 11 7 11 -5 0 -5 5 -2 10 3 6 12 10 18 10 8 0 8
-3 -1 -9z m-161 -24 l24 -18 -25 13 c-14 6 -31 13 -38 14 -8 1 -17 5 -20 8
-13 14 37 -1 59 -17z m58 8 c3 -3 -7 -4 -23 -1 -16 3 -31 8 -35 11 -3 3 7 4
23 1 16 -3 31 -8 35 -11z m41 5 c0 -5 -4 -10 -10 -10 -5 0 -10 5 -10 10 0 6 5
10 10 10 6 0 10 -4 10 -10z m123 -10 c-10 -11 -19 -20 -21 -20 -1 0 2 9 8 20
6 11 15 20 20 20 6 0 2 -9 -7 -20z m-23 5 c0 -2 -10 -9 -22 -15 -22 -11 -22
-10 -4 4 21 17 26 19 26 11z m70 1 c0 -2 -7 -7 -16 -10 -8 -3 -12 -2 -9 4 6
10 25 14 25 6z m-310 -26 c9 -16 8 -18 -5 -14 -8 3 -12 11 -8 17 4 6 0 8 -11
4 -10 -4 -15 -3 -11 3 10 16 23 12 35 -10z m120 0 c0 -5 -2 -10 -4 -10 -3 0
-8 5 -11 10 -3 6 -1 10 4 10 6 0 11 -4 11 -10z m-72 -25 c-3 -3 -9 2 -12 12
-6 14 -5 15 5 6 7 -7 10 -15 7 -18z m142 15 c8 -5 11 -10 5 -10 -5 0 -17 5
-25 10 -8 5 -10 10 -5 10 6 0 17 -5 25 -10z m-95 -9 c3 -5 0 -13 -6 -17 -8 -4
-9 -3 -5 4 4 7 2 12 -3 12 -6 0 -11 -5 -11 -12 0 -6 -3 -9 -6 -5 -7 7 4 27 16
27 5 0 11 -4 15 -9z m61 -9 c1 -7 0 -8 -3 -2 -2 5 -9 10 -14 10 -6 0 -7 -5 -3
-12 4 -7 3 -8 -5 -4 -14 9 -4 29 12 23 6 -2 12 -9 13 -15z m-206 -17 c-7 -8
-17 -15 -23 -15 -6 0 -2 7 9 15 25 19 30 19 14 0z m278 1 c-10 -7 -14 -17 -10
-21 4 -5 1 -5 -7 0 -12 7 -11 10 4 22 24 17 36 17 13 -1z m-224 -5 c-9 -9 -34
-9 -34 -1 0 5 9 8 20 7 10 -1 17 -3 14 -6z m51 -1 c3 -5 1 -10 -4 -10 -6 0
-11 5 -11 10 0 6 2 10 4 10 3 0 8 -4 11 -10z m65 6 c0 -2 -7 -7 -16 -10 -8 -3
-12 -2 -9 4 6 10 25 14 25 6z m-169 -43 c-12 -20 -14 -14 -5 12 4 9 9 14 11
11 3 -2 0 -13 -6 -23z m63 16 c-4 -8 1 -9 17 -5 20 6 21 5 6 -4 -19 -12 -41
-4 -32 11 4 5 8 9 11 9 3 0 2 -5 -2 -11z m102 -13 c0 -14 -5 -21 -9 -17 -4 4
-5 15 -1 24 9 24 12 21 10 -7z m58 12 c-5 -8 -1 -9 12 -4 14 5 16 4 7 -5 -13
-13 -37 -3 -28 12 4 5 8 9 11 9 3 0 2 -5 -2 -12z m-244 -2 c0 -2 -7 -7 -16
-10 -8 -3 -12 -2 -9 4 6 10 25 14 25 6z m70 -40 c0 -6 -7 -1 -15 10 -8 10 -15
23 -15 28 0 6 7 1 15 -10 8 -10 15 -23 15 -28z m74 29 c-10 -8 -23 -15 -28
-15 -6 0 -1 7 10 15 10 8 23 15 28 15 6 0 1 -7 -10 -15z m86 -29 c0 -6 -7 -1
-15 10 -8 10 -15 23 -15 28 0 6 7 1 15 -10 8 -10 15 -23 15 -28z m-240 -6 c9
-16 8 -18 -5 -14 -8 3 -13 10 -10 14 3 5 -1 11 -7 13 -10 4 -10 6 -1 6 7 1 17
-8 23 -19z m53 -11 c-8 -8 -13 -7 -18 2 -6 8 -4 10 5 4 10 -6 12 -4 6 11 -6
15 -5 17 5 7 9 -10 10 -16 2 -24z m123 19 c4 -7 3 -8 -4 -4 -7 4 -12 1 -12 -8
0 -9 -5 -16 -10 -16 -7 0 -7 6 0 20 12 23 16 24 26 8z m-66 -13 c-7 -8 -18
-15 -24 -15 -6 0 -2 7 8 15 25 19 32 19 16 0z m120 -20 c0 -5 -5 -3 -10 5 -5
8 -10 20 -10 25 0 6 5 3 10 -5 5 -8 10 -19 10 -25z m-267 13 c-6 -7 -9 -23 -8
-35 1 -13 -2 -23 -7 -23 -5 0 -7 10 -6 23 4 24 16 47 25 47 3 0 1 -6 -4 -12z
m131 -47 c-5 -6 -34 20 -34 30 0 5 8 1 18 -8 10 -10 17 -20 16 -22z m38 17
c-7 -7 -16 -6 -29 1 -16 11 -15 11 6 5 17 -4 21 -3 16 6 -6 9 -4 11 4 5 9 -5
9 -11 3 -17z m42 11 c-4 -8 1 -9 17 -5 20 6 21 5 6 -4 -19 -12 -41 -4 -32 11
4 5 8 9 11 9 3 0 2 -5 -2 -11z m-133 -22 c-10 -9 -11 -8 -5 6 3 10 9 15 12 12
3 -3 0 -11 -7 -18z m-38 -5 c-3 -7 -9 -10 -12 -5 -3 4 -10 11 -15 15 -4 4 1 6
12 5 12 -1 18 -6 15 -15z m37 -22 c-29 -23 -40 -25 -40 -8 0 6 3 8 6 5 4 -3
16 0 28 8 30 22 35 18 6 -5z m120 10 c0 -5 -4 -10 -10 -10 -5 0 -10 5 -10 10
0 6 5 10 10 10 6 0 10 -4 10 -10z m-21 -33 c0 -9 -2 -9 -6 1 -2 6 -8 10 -13 7
-4 -3 -11 2 -14 10 -4 13 -2 14 14 5 11 -6 20 -16 19 -23z m-160 20 c-2 -1
-13 -9 -24 -17 -19 -14 -19 -14 -6 3 7 9 18 17 24 17 6 0 8 -1 6 -3z m116 -19
c5 4 5 1 1 -6 -6 -10 -11 -10 -22 -1 -8 6 -14 17 -14 23 0 6 7 3 14 -6 7 -10
17 -14 21 -10z m78 7 c-3 -9 -8 -14 -10 -11 -3 3 -2 9 2 15 9 16 15 13 8 -4z
m-253 -15 c-8 -5 -19 -10 -25 -10 -5 0 -3 5 5 10 8 5 20 10 25 10 6 0 3 -5 -5
-10z m70 -4 c-1 -5 4 -13 12 -18 11 -8 11 -9 0 -6 -8 2 -13 7 -12 12 1 5 -4
13 -12 18 -11 8 -11 9 0 6 8 -2 13 -7 12 -12z m66 2 c5 -7 3 -8 -6 -3 -9 5
-10 1 -6 -16 6 -20 5 -21 -4 -6 -6 9 -8 22 -5 27 8 13 12 13 21 -2z m-96 -22
c-4 -4 -16 -4 -26 2 -16 9 -14 10 8 9 15 -1 23 -6 18 -11z m115 -5 c3 -5 2
-12 -3 -15 -5 -3 -9 1 -9 9 0 17 3 19 12 6z m-98 -8 c-4 -3 1 -11 10 -18 13
-9 13 -14 3 -20 -9 -6 -11 -4 -5 5 6 9 1 10 -16 5 -19 -5 -21 -4 -9 4 8 6 11
11 7 11 -9 0 1 20 10 20 4 0 3 -3 0 -7z m77 -32 c-5 -6 -34 20 -34 30 0 5 8 1
18 -8 10 -10 17 -20 16 -22z m66 29 c0 -5 -7 -7 -15 -4 -8 4 -15 8 -15 10 0 2
7 4 15 4 8 0 15 -4 15 -10z m-226 -12 c-5 -7 -2 -9 8 -6 8 4 15 0 15 -7 0 -10
-5 -11 -19 -4 -16 9 -17 29 -2 29 3 0 2 -5 -2 -12z m206 -8 c0 -5 -2 -10 -4
-10 -3 0 -8 5 -11 10 -3 6 -1 10 4 10 6 0 11 -4 11 -10z m-86 -21 c-4 -8 1 -9
17 -5 20 6 21 5 6 -4 -19 -12 -41 -4 -32 11 4 5 8 9 11 9 3 0 2 -5 -2 -11z
m66 1 c0 -5 -5 -10 -11 -10 -5 0 -7 5 -4 10 3 6 8 10 11 10 2 0 4 -4 4 -10z
m-84 -22 c4 -7 3 -8 -4 -4 -7 4 -12 2 -12 -5 0 -7 -3 -10 -6 -6 -6 5 3 27 11
27 2 0 7 -5 11 -12z m-82 -7 c3 -5 -1 -11 -9 -15 -8 -3 -17 0 -21 6 -4 7 -3 8
4 4 7 -4 12 -2 12 3 0 13 7 14 14 2z m43 -5 c0 -8 -6 -12 -15 -9 -11 5 -11 7
0 14 7 5 13 9 14 9 0 0 1 -6 1 -14z m-81 -17 c3 -6 1 -16 -6 -22 -10 -9 -11
-9 -5 2 4 8 2 17 -6 22 -9 6 -10 9 -2 9 6 0 15 -5 19 -11z m117 -4 c-3 -9 -8
-14 -10 -11 -3 3 -2 9 2 15 9 16 15 13 8 -4z m41 0 c-4 -8 -10 -12 -15 -9 -5
3 -9 0 -9 -7 0 -7 -3 -9 -7 -5 -5 4 1 14 11 22 25 18 27 18 20 -1z m-90 -3 c3
-5 -1 -9 -9 -9 -8 0 -15 4 -15 9 0 4 4 8 9 8 6 0 12 -4 15 -8z m126 -12 c-12
-23 -16 -24 -26 -8 -4 6 -3 8 3 5 6 -4 13 0 17 8 3 8 8 15 11 15 3 0 1 -9 -5
-20z m-98 -22 c-7 -7 -16 -6 -29 1 -16 11 -15 11 6 5 17 -4 21 -3 16 6 -6 9
-4 11 4 5 9 -5 9 -11 3 -17z m60 -24 c-9 -16 -10 -14 -9 8 1 15 6 23 11 18 4
-4 4 -16 -2 -26z m-133 23 c-2 -1 -13 -9 -24 -17 -19 -14 -19 -14 -6 3 7 9 18
17 24 17 6 0 8 -1 6 -3z m36 -15 c-3 -3 -11 0 -18 7 -9 10 -8 11 6 5 10 -3 15
-9 12 -12z m-39 -11 c-4 -5 0 -12 6 -15 11 -5 11 -7 0 -12 -6 -3 -9 -11 -6
-16 4 -6 3 -8 -3 -5 -5 3 -9 16 -7 29 3 28 3 28 10 28 3 0 3 -4 0 -9z m51 -33
c-3 -7 -5 -2 -5 12 0 14 2 19 5 13 2 -7 2 -19 0 -25z m49 0 c-9 -12 -16 -19
-16 -15 0 11 24 47 28 42 2 -2 -3 -14 -12 -27z m20 -7 c-4 -5 -1 -11 5 -13 7
-2 6 -8 -3 -16 -12 -10 -14 -8 -12 11 3 27 3 27 10 27 3 0 3 -4 0 -9z m-128
-19 c8 -6 2 -9 -18 -9 -20 0 -26 3 -18 9 7 4 15 8 18 8 3 0 11 -4 18 -8z m72
-12 c-8 -5 -19 -10 -25 -10 -5 0 -3 5 5 10 8 5 20 10 25 10 6 0 3 -5 -5 -10z
m-125 -22 c-9 -6 -19 -7 -22 -4 -4 3 -1 6 6 6 7 0 9 4 6 10 -4 6 1 7 11 3 15
-6 15 -7 -1 -15z m109 -10 c-3 -4 -9 -8 -15 -8 -5 0 -9 4 -9 8 0 5 7 9 15 9 8
0 12 -4 9 -9z m53 -3 c0 -8 -4 -12 -9 -9 -4 3 -8 9 -8 15 0 5 4 9 8 9 5 0 9
-7 9 -15z m-150 -11 c-3 -3 -12 -4 -19 -1 -8 3 -5 6 6 6 11 1 17 -2 13 -5z
m73 -4 c8 -5 11 -10 5 -10 -5 0 -17 5 -25 10 -8 5 -10 10 -5 10 6 0 17 -5 25
-10z m37 -5 c0 -8 -4 -12 -9 -9 -5 3 -6 10 -3 15 9 13 12 11 12 -6z m27 -11
c3 -8 2 -12 -4 -9 -6 3 -10 10 -10 16 0 14 7 11 14 -7z m-160 -2 c3 -5 -1 -9
-9 -9 -8 0 -12 4 -9 9 3 4 7 8 9 8 2 0 6 -4 9 -8z m62 -4 c-9 -5 -23 -5 -32 0
-12 6 -7 9 16 9 23 0 28 -3 16 -9z m-32 -33 c-4 -8 -11 -12 -17 -8 -8 5 -7 8
1 11 7 2 9 9 6 14 -4 7 -2 8 4 4 6 -4 9 -13 6 -21z m41 15 c-3 -5 -1 -10 5
-10 6 0 8 -4 5 -10 -10 -16 -23 -11 -20 8 5 23 4 22 11 22 3 0 2 -4 -1 -10z
m81 -15 c1 -8 -1 -17 -5 -19 -4 -3 -7 6 -7 19 0 25 8 25 12 0z m-163 0 c-3 -9
-8 -14 -10 -11 -3 3 -2 9 2 15 9 16 15 13 8 -4z m134 -7 c-3 -8 -6 -5 -6 6 -1
11 2 17 5 13 3 -3 4 -12 1 -19z m-67 -43 c0 -5 -5 -3 -10 5 -5 8 -10 20 -10
25 0 6 5 3 10 -5 5 -8 10 -19 10 -25z m52 13 c-7 -7 -16 -6 -29 1 -16 11 -15
11 6 5 17 -4 21 -3 16 6 -6 9 -4 11 4 5 9 -5 9 -11 3 -17z m-89 -9 c-8 -8 -13
-7 -18 2 -5 8 -4 10 3 5 7 -4 12 -2 12 5 0 7 3 9 7 6 4 -4 2 -12 -4 -18z m114
-4 c0 -8 -4 -15 -9 -15 -10 0 -11 14 -1 23 9 10 10 9 10 -8z m-142 -4 c3 -5 0
-13 -6 -17 -7 -4 -9 -3 -5 4 3 5 0 13 -6 15 -9 4 -10 6 -1 6 6 1 14 -3 18 -8z
m38 -18 c-4 -10 -2 -14 4 -10 6 4 14 0 17 -8 4 -13 2 -14 -14 -5 -21 11 -25
22 -13 33 11 11 13 8 6 -10z m80 -6 c4 3 7 1 7 -5 0 -14 -2 -14 -24 -6 -9 3
-16 11 -16 16 0 7 5 6 13 -1 8 -6 17 -8 20 -4z m-99 -13 c3 -8 2 -12 -4 -9 -6
3 -10 10 -10 16 0 14 7 11 14 -7z m-4 -29 c5 3 14 -5 20 -17 9 -20 9 -21 -2
-7 -7 9 -17 16 -23 17 -5 0 -10 5 -11 12 -2 6 -1 7 3 0 2 -5 9 -8 13 -5z m55
-23 c-3 -3 -11 0 -18 7 -9 10 -8 11 6 5 10 -3 15 -9 12 -12z m37 11 c-6 -2 -9
-10 -6 -15 4 -7 2 -8 -5 -4 -13 9 -5 26 12 25 9 0 8 -2 -1 -6z m-106 -28 c3
-17 -12 -20 -21 -5 -3 6 -1 10 5 10 6 0 8 6 4 13 -4 6 -3 8 1 4 5 -4 10 -14
11 -22z m89 -5 c3 -6 -1 -7 -9 -4 -18 7 -21 14 -7 14 6 0 13 -4 16 -10z m-13
-32 c-7 -7 -16 -6 -29 1 -16 11 -15 11 6 5 17 -4 21 -3 16 6 -6 9 -4 11 4 5 9
-5 9 -11 3 -17z m-38 -17 c-2 -3 -12 3 -22 13 -16 17 -16 18 5 5 12 -7 20 -15
17 -18z m59 -6 c-3 -9 -8 -14 -10 -11 -3 3 -2 9 2 15 9 16 15 13 8 -4z m-83 1
c0 -2 -7 -7 -16 -10 -8 -3 -12 -2 -9 4 6 10 25 14 25 6z m30 -41 c0 -2 -6 -7
-12 -11 -7 -4 -10 -4 -6 1 4 4 0 14 -10 22 -15 13 -15 13 6 3 12 -6 22 -13 22
-15z m45 7 c-3 -3 -11 0 -18 7 -9 10 -8 11 6 5 10 -3 15 -9 12 -12z m-109 -32
c0 -11 -4 -20 -8 -20 -10 0 -11 24 -1 33 9 9 9 10 9 -13z m92 2 c8 -6 2 -9
-18 -9 -20 0 -26 3 -18 9 7 4 15 8 18 8 3 0 11 -4 18 -8z m-43 -30 c-3 -3 -11
0 -18 7 -9 10 -8 11 6 5 10 -3 15 -9 12 -12z m31 -9 c-2 -9 -9 -19 -17 -21
-11 -3 -11 -1 1 7 8 6 11 11 7 11 -5 0 -5 5 -2 10 9 15 14 12 11 -7z m-46 -33
c-6 -11 -13 -20 -16 -20 -2 0 0 9 6 20 6 11 13 20 16 20 2 0 0 -9 -6 -20z
m-30 -35 c0 -5 -5 -3 -10 5 -5 8 -10 20 -10 25 0 6 5 3 10 -5 5 -8 10 -19 10
-25z m60 25 c0 -5 -2 -10 -4 -10 -3 0 -8 5 -11 10 -3 6 -1 10 4 10 6 0 11 -4
11 -10z m2 -62 c-6 -6 -12 -6 -17 3 -6 8 -4 10 5 4 9 -5 10 -1 6 16 -6 21 -6
22 5 6 7 -13 8 -22 1 -29z m-34 7 c-3 -3 -9 2 -12 12 -6 14 -5 15 5 6 7 -7 10
-15 7 -18z m-33 -25 c-3 -5 -1 -10 6 -10 7 0 10 -3 6 -6 -9 -9 -28 6 -22 17 4
5 8 9 11 9 3 0 2 -4 -1 -10z m36 -13 c-10 -9 -11 -8 -5 6 3 10 9 15 12 12 3
-3 0 -11 -7 -18z m-11 -21 c0 -3 -4 -8 -10 -11 -5 -3 -10 -1 -10 4 0 6 5 11
10 11 6 0 10 -2 10 -4z m44 -4 c3 -5 -1 -9 -9 -9 -8 0 -15 4 -15 9 0 4 4 8 9
8 6 0 12 -4 15 -8z m-24 -59 c0 -5 -5 -15 -10 -23 -7 -12 -9 -10 -7 8 1 19 17
33 17 15z m-40 -43 c0 -5 -5 -10 -11 -10 -5 0 -7 5 -4 10 3 6 8 10 11 10 2 0
4 -4 4 -10z m35 -29 c-6 -5 -25 10 -25 20 0 5 6 4 14 -3 8 -7 12 -15 11 -17z
m-20 -10 c3 -6 -5 -15 -17 -21 -21 -10 -21 -10 -6 3 10 8 15 17 11 20 -3 4 -4
7 0 7 3 0 8 -4 12 -9z m5 -62 c0 -4 -9 -7 -19 -6 -11 0 -18 4 -16 7 6 9 35 8
35 -1z"/>
</g>
</svg>
