<?xml version="1.0" encoding="utf-8"?>
<!-- Generator: Adobe Illustrator 19.0.0, SVG Export Plug-In . SVG Version: 6.00 Build 0)  -->
<svg version="1.1" id="Capa_1" xmlns="http://www.w3.org/2000/svg" xmlns:xlink="http://www.w3.org/1999/xlink" x="0px" y="0px"
	 viewBox="0 0 516.8 381.6" style="enable-background:new 0 0 516.8 381.6;" xml:space="preserve">
<style type="text/css">
	.st0{fill:#175929;}
	.st1{fill:#0F7C35;}
	.st2{fill:#087FA2;}
	.st3{fill:#03629D;}
	.st4{display:none;}
	.st5{display:inline;fill:#0F7C35;}
	.st6{display:inline;}
	.st7{fill:#1A7839;}
	.st8{fill:url(#SVGID_1_);}
	.st9{fill:#087FA1;}
	.st10{fill:#54AF32;}
	.st11{fill:#129839;}
</style>
<g>
	<g>
		<path class="st0" d="M0,235.3h28.3c11.4,0,20.1,1.4,26.2,4c6.1,2.7,10.9,6.8,14.5,12.4c3.5,5.6,5.3,11.8,5.3,18.6
			c0,6.4-1.6,12.2-4.7,17.4c-3.1,5.2-7.7,9.5-13.7,12.7c7.5,2.5,13.2,5.5,17.2,8.9c4,3.4,7.1,7.5,9.4,12.4
			c2.2,4.8,3.4,10.1,3.4,15.8c0,11.5-4.2,21.3-12.6,29.2c-8.4,8-19.7,12-33.9,12H0V235.3z M14,249.4v45.9h8.2c10,0,17.3-0.9,22-2.8
			c4.7-1.9,8.4-4.8,11.1-8.8c2.7-4,4.1-8.4,4.1-13.3c0-6.6-2.3-11.7-6.9-15.5c-4.6-3.7-11.9-5.6-21.9-5.6H14z M14,309.8v55h17.8
			c10.5,0,18.2-1,23.1-3.1c4.9-2,8.8-5.3,11.8-9.6c3-4.4,4.4-9.1,4.4-14.1c0-6.4-2.1-11.9-6.3-16.7c-4.2-4.7-9.9-8-17.2-9.8
			c-4.9-1.2-13.4-1.8-25.5-1.8H14z"/>
		<path class="st1" d="M106.8,229c3.1,0,5.8,1.1,8,3.3c2.2,2.2,3.3,4.9,3.3,8c0,3.1-1.1,5.7-3.3,7.9c-2.2,2.2-4.9,3.3-8,3.3
			c-3,0-5.7-1.1-7.9-3.3c-2.2-2.2-3.3-4.8-3.3-7.9c0-3.1,1.1-5.8,3.3-8C101.2,230.1,103.8,229,106.8,229z M100.1,272.7h13.7v106.1
			h-13.7V272.7z"/>
		<path class="st1" d="M182.4,270c16.4,0,29.9,5.9,40.7,17.8c9.8,10.8,14.7,23.6,14.7,38.3c0,14.8-5.2,27.8-15.5,38.9
			c-10.3,11.1-23.6,16.6-39.8,16.6c-16.3,0-29.6-5.5-39.9-16.6c-10.3-11.1-15.5-24-15.5-38.9c0-14.7,4.9-27.4,14.7-38.2
			C152.3,275.9,165.9,270,182.4,270z M182.3,283.3c-11.4,0-21.1,4.2-29.3,12.6c-8.2,8.4-12.2,18.5-12.2,30.4
			c0,7.7,1.9,14.8,5.6,21.5c3.7,6.6,8.7,11.8,15.1,15.4c6.3,3.6,13.3,5.4,20.9,5.4c7.6,0,14.5-1.8,20.9-5.4
			c6.3-3.6,11.4-8.7,15.1-15.4c3.7-6.6,5.6-13.8,5.6-21.5c0-11.9-4.1-22-12.3-30.4C203.3,287.5,193.6,283.3,182.3,283.3z"/>
		<path class="st2" d="M264.8,233.3h13.7v39.4h21.7v11.8h-21.7v94.3h-13.7v-94.3h-18.6v-11.8h18.6V233.3z"/>
		<path class="st2" d="M400,343.6l11.5,6c-3.8,7.4-8.1,13.4-13.1,18c-4.9,4.6-10.5,8-16.7,10.4c-6.2,2.4-13.2,3.6-21,3.6
			c-17.3,0-30.9-5.7-40.6-17c-9.8-11.3-14.6-24.2-14.6-38.5c0-13.5,4.1-25.5,12.4-36c10.5-13.4,24.5-20.1,42.1-20.1
			c18.1,0,32.5,6.9,43.4,20.6c7.7,9.7,11.6,21.8,11.7,36.3h-95.5c0.3,12.3,4.2,22.4,11.8,30.3c7.6,7.9,17,11.8,28.2,11.8
			c5.4,0,10.7-0.9,15.8-2.8c5.1-1.9,9.5-4.4,13-7.5C392,355.6,395.8,350.5,400,343.6z M400,315c-1.8-7.3-4.5-13.1-8-17.5
			c-3.5-4.4-8.1-7.9-13.8-10.5c-5.7-2.7-11.8-4-18.1-4c-10.4,0-19.4,3.4-26.9,10c-5.5,4.9-9.6,12.2-12.4,22H400z"/>
		<path class="st3" d="M430.4,231.7h13.7v83.8l49.2-42.8h20.1L455,323.3l61.8,55.5h-19.2L444.1,331v47.8h-13.7V231.7z"/>
	</g>
	<g>
		<g class="st4">
			<path class="st5" d="M256.3,11.2c-52.3,0-94.7,42.4-94.7,94.7s42.4,94.7,94.7,94.7s94.7-42.4,94.7-94.7S308.6,11.2,256.3,11.2z
				 M256.3,195.1c-49.3,0-89.2-39.9-89.2-89.2s39.9-89.2,89.2-89.2c49.3,0,89.2,39.9,89.2,89.2S305.6,195.1,256.3,195.1z"/>
			<g class="st6">
				<polygon class="st1" points="282.7,59.7 272.8,73.3 281.6,111.8 292.7,111.8 292.7,101 302.3,101 303.4,76.9 				"/>
				<polygon class="st1" points="314.2,49.5 303.9,51.3 292.5,65 296.7,68.4 308.1,54.8 314.9,53.9 				"/>
				<polygon class="st1" points="213.1,104.3 205,106.8 200,137.6 207.7,132.6 				"/>
				<polygon class="st1" points="207.7,136.8 200,141.9 201.5,174 209.2,169 				"/>
				<polyline class="st1" points="208.1,182.9 209.2,173.2 201.5,178.2 				"/>
				<polygon class="st1" points="231.8,169.7 225.1,176.1 224.9,193.2 232.5,195.1 				"/>
				<polygon class="st1" points="224.5,134.2 217.8,140.5 225.1,171.8 231.8,165.5 				"/>
				<polygon class="st1" points="228.8,99.8 221.5,103.3 217.8,136.2 224.5,129.9 				"/>
				<path class="st1" d="M289.5,118.6c0,4.7,3.8,6.8,5.2,8.3c2.4,2.5,4.2,6.2,3.1,11.4c-4.2,11.7-9.6,16.4-19.2,17.8
					c-9.8,0.7-14.1-1.3-19.5-6.6c-3.8-4.4-5.7-9.5-7.5-17.4c-1.8-8.1-3.9-17.5-5.4-26.5c-3-18-4.7-21.1-10.1-21.1
					c-6.1,0-4.3,7.5-5.3,10.2c-1,2.7-7.5,6.5-7.5,6.5c2.6-2.6,2.9-7.2,2.9-9c0-2-0.6-4.2,0.7-7.8c1.3-3.6,6.1-5.5,10.6-5.5
					c-3.5-4-10.1-2.3-14.2,2.5c-4.1,4.8-1.9,10.1-4.6,15.7c-3.6,5.5-10.1,7.2-10.1,7.2s3.8-2.3,5.5-6.9s-0.6-16.2,5.8-23.6
					s17.3-6.4,21.3-1.2c4,5.2,7.4,15.3,10.3,32.9s2.5,32.4,10.1,41.3c7.6,8.9,26.5,9.9,32.1-8.2c1.7-7.6-4.2-11.7-4.2-11.7
					s-4.6-2.6-4.6-8.3v-4.7h4.6V118.6z"/>
			</g>
		</g>
		<g class="st4">
			<g class="st6">
				<path class="st1" d="M256.3,11.2c-52.3,0-94.7,42.4-94.7,94.7s42.4,94.7,94.7,94.7s94.7-42.4,94.7-94.7S308.6,11.2,256.3,11.2z
					 M256.3,195.1c-49.3,0-89.2-39.9-89.2-89.2s39.9-89.2,89.2-89.2s89.2,39.9,89.2,89.2S305.6,195.1,256.3,195.1z"/>
				<g>
					<polygon class="st1" points="282.7,59.7 272.8,73.3 281.6,111.8 292.7,111.8 292.7,101 302.3,101 303.4,76.9 					"/>
					<polygon class="st1" points="314.2,49.5 303.9,51.3 292.5,65 296.7,68.4 308.1,54.8 314.9,53.9 					"/>
					<polygon class="st1" points="213.1,104.3 205,106.8 200,137.6 207.7,132.6 					"/>
					<polygon class="st1" points="207.7,136.8 200,141.9 201.5,174 209.2,169 					"/>
					<polyline class="st1" points="208.1,182.9 209.2,173.2 201.5,178.2 					"/>
					<polygon class="st1" points="231.8,169.7 225.1,176.1 224.9,193.2 232.5,195.1 					"/>
					<polygon class="st1" points="224.5,134.2 217.8,140.5 225.1,171.8 231.8,165.5 					"/>
					<polygon class="st1" points="228.8,99.8 221.5,103.3 217.8,136.2 224.5,129.9 					"/>
					<path class="st1" d="M289.5,118.6c0,4.7,3.8,6.8,5.2,8.3c2.4,2.5,4.2,6.2,3.1,11.4c-4.2,11.7-9.6,16.4-19.2,17.8
						c-9.8,0.7-14.1-1.3-19.5-6.6c-3.8-4.4-5.7-9.5-7.5-17.4c-1.8-8.1-3.9-17.5-5.4-26.5c-3-18-4.7-21.1-10.1-21.1
						c-6.1,0-4.3,7.5-5.3,10.2c-1,2.7-7.5,6.5-7.5,6.5c2.6-2.6,2.9-7.2,2.9-9c0-2-0.6-4.2,0.7-7.8c1.3-3.6,6.1-5.5,10.6-5.5
						c-3.5-4-10.1-2.3-14.2,2.5c-4.1,4.8-1.9,10.1-4.6,15.7c-3.6,5.5-10.1,7.2-10.1,7.2s3.8-2.3,5.5-6.9s-0.6-16.2,5.8-23.6
						c6.4-7.4,17.3-6.4,21.3-1.2s7.4,15.3,10.3,32.9c2.9,17.6,2.5,32.4,10.1,41.3c7.6,8.9,26.5,9.9,32.1-8.2
						c1.7-7.6-4.2-11.7-4.2-11.7s-4.6-2.6-4.6-8.3v-4.7h4.6V118.6z"/>
				</g>
			</g>
			<g class="st6">
				<path id="XMLID_84_" class="st1" d="M237.8,158.3c0.4-2.2-1-4-1.3-6.1c-0.6-3.4-0.2-6.9,1.3-10c0,0-5.5,4.2-5.9,10.5
					c-0.1,1.8,0.8,3.6,1.2,5.4c0.5,2.5,0.9,5.9,0.4,8.4C233.4,166.5,236.7,163.5,237.8,158.3z"/>
			</g>
			<g class="st6">
				<path id="XMLID_82_" class="st1" d="M193.4,131.8c-0.8-2.1,0.3-4.1,0.3-6.2c0-3.4-1-6.9-3-9.7c0,0,6.2,3.2,7.6,9.3
					c0.4,1.7-0.2,3.7-0.2,5.5c-0.1,2.5,0.1,5.9,1,8.3C199,139.1,195.3,136.7,193.4,131.8z"/>
			</g>
			<g class="st6">
				<path id="XMLID_80_" class="st1" d="M240.6,164.1c1.2-1.1,1.1-2.8,1.8-4.2c1-2.3,2.8-4.2,5-5.4c0,0-5.1,0-8,3.6
					c-0.8,1-1,2.5-1.6,3.8c-0.8,1.7-1.9,3.9-3.3,5.2C234.5,167.1,237.8,166.8,240.6,164.1z"/>
			</g>
		</g>
		<g>
			<g>
				<path class="st7" d="M256.3,11.2c-52.3,0-94.7,42.4-94.7,94.7s42.4,94.7,94.7,94.7s94.7-42.4,94.7-94.7S308.6,11.2,256.3,11.2z
					 M256.3,195.1c-49.3,0-89.2-39.9-89.2-89.2s39.9-89.2,89.2-89.2s89.2,39.9,89.2,89.2S305.6,195.1,256.3,195.1z"/>
				<g>
					<polygon class="st7" points="282.7,59.7 272.8,73.3 281.6,111.8 292.7,111.8 292.7,101 302.3,101 303.4,76.9 					"/>
					<polygon class="st7" points="314.2,49.5 303.9,51.3 292.5,65 296.7,68.4 308.1,54.8 314.9,53.9 					"/>
					<polygon class="st7" points="213.6,104.3 204.5,106.8 199.4,137.6 208.2,132.6 					"/>
					<polygon class="st7" points="208.2,136.8 199.4,141.9 201,174 209.7,169 					"/>
					<polyline class="st7" points="208.1,182.9 211,172.4 202.8,177.4 					"/>
					<polygon class="st7" points="232.3,169.7 224.6,176.1 223.9,193.2 232.5,195.1 					"/>
					<polygon class="st7" points="224.5,134.2 216.8,140.5 224.1,171.8 231.8,165.5 					"/>
					<polygon class="st7" points="228.8,99.8 220.5,103.3 216.3,136.2 224.5,129.9 					"/>
					<path class="st7" d="M289.5,118.6c0,4.7,3.8,6.8,5.2,8.3c2.4,2.5,4.2,6.2,3.1,11.4c-4.2,11.7-9.6,16.4-19.2,17.8
						c-9.8,0.7-14.1-1.3-19.5-6.6c-3.8-4.4-5.7-9.5-7.5-17.4c-1.8-8.1-3.9-17.5-5.4-26.5c-3-18-4.7-21.1-10.1-21.1
						c-6.1,0-4.3,7.5-5.3,10.2c-1,2.7-7.5,6.5-7.5,6.5c2.6-2.6,2.9-7.2,2.9-9c0-2-0.6-4.2,0.7-7.8c1.3-3.6,6.1-5.5,10.6-5.5
						c-3.5-4-10.1-2.3-14.2,2.5s-1.9,10.1-4.6,15.7c-3.6,5.5-10.1,7.2-10.1,7.2s3.8-2.3,5.5-6.9c1.8-4.6-0.6-16.2,5.8-23.6
						c6.4-7.4,17.3-6.4,21.3-1.2s7.4,15.3,10.3,32.9s2.5,32.4,10.1,41.3c7.6,8.9,26.5,9.9,32.1-8.2c1.7-7.6-4.2-11.7-4.2-11.7
						s-4.6-2.6-4.6-8.3v-4.7h4.6V118.6z"/>
				</g>
			</g>
			<g>
				<path id="XMLID_78_" class="st7" d="M237.8,158.3c0.4-2.2-1-4-1.3-6.1c-0.6-3.4-0.2-6.9,1.3-10c0,0-5.5,4.2-5.9,10.5
					c-0.1,1.8,0.8,3.6,1.2,5.4c0.5,2.5,0.9,5.9,0.4,8.4C233.4,166.5,236.7,163.5,237.8,158.3z"/>
			</g>
			<g>
				<path id="XMLID_56_" class="st7" d="M192.8,131.8c-0.8-2.1,0.3-4.1,0.3-6.2c0-3.4-1-6.9-3-9.7c0,0,6.2,3.2,7.6,9.3
					c0.4,1.7-0.2,3.7-0.2,5.5c-0.1,2.5,0.1,5.9,1,8.3C198.5,139.1,194.7,136.7,192.8,131.8z"/>
			</g>
			<g>
				<path id="XMLID_51_" class="st7" d="M240.6,164.1c1.2-1.1,1.1-2.8,1.8-4.2c1-2.3,2.8-4.2,5-5.4c0,0-5.1,0-8,3.6
					c-0.8,1-1,2.5-1.6,3.8c-0.8,1.7-1.9,3.9-3.3,5.2C234.5,167.1,237.8,166.8,240.6,164.1z"/>
			</g>
		</g>
		
			<linearGradient id="SVGID_1_" gradientUnits="userSpaceOnUse" x1="190.6368" y1="637.4128" x2="410.3944" y2="637.4128" gradientTransform="matrix(0.866 0.5 -0.5 0.866 315.0311 -595.9293)">
			<stop  offset="0" style="stop-color:#FFFFFF;stop-opacity:0"/>
			<stop  offset="4.019290e-02" style="stop-color:#D7EAF0;stop-opacity:4.019290e-02"/>
			<stop  offset="9.119248e-02" style="stop-color:#ACD4E0;stop-opacity:9.119248e-02"/>
			<stop  offset="0.1478" style="stop-color:#85C0D1;stop-opacity:0.1478"/>
			<stop  offset="0.2088" style="stop-color:#63AEC4;stop-opacity:0.2088"/>
			<stop  offset="0.2754" style="stop-color:#479FB9;stop-opacity:0.2754"/>
			<stop  offset="0.3497" style="stop-color:#2F93B0;stop-opacity:0.3497"/>
			<stop  offset="0.4348" style="stop-color:#1E8AA9;stop-opacity:0.4348"/>
			<stop  offset="0.5373" style="stop-color:#1184A5;stop-opacity:0.5373"/>
			<stop  offset="0.6753" style="stop-color:#0A80A2;stop-opacity:0.6753"/>
			<stop  offset="1" style="stop-color:#087FA1"/>
		</linearGradient>
		<path class="st8" d="M309.4,14.2c-50.8-29.3-114-11.9-143.3,38.9s-13.7,115.7,37.1,145.1s119.3,14.2,148.7-36.6
			S360.2,43.6,309.4,14.2z M206.3,192.9c-47.9-27.7-65.8-90.4-38.2-138.3s90.4-62.8,138.3-35.2s64.3,88.9,36.7,136.8
			C315.4,204.2,254.2,220.6,206.3,192.9z"/>
		<g>
			<g id="_x2C__copy_2_9_">
				<g id="XMLID_75_">
					<path id="XMLID_76_" class="st9" d="M363.1,152.6c-12.6-4.9-24.6-4.6-36,0.9c-10,4.4-17.6,13.5-23,27.3l-7.2,18.4l0.4,0.8
						c12.6,4.9,24.6,4.6,36-0.9c9.9-4.3,17.6-13.4,23-27.3l7.2-18.4L363.1,152.6z"/>
				</g>
			</g>
			<g id="_x2C__copy_9_">
				<g id="XMLID_52_">
					<path id="XMLID_53_" class="st10" d="M353.1,141c-13.3-2.5-25,0-35.2,7.6c-9,6.2-14.8,16.6-17.6,31.1l-3.7,19.4l0.5,0.7
						c13.3,2.5,25,0,35.2-7.6c8.9-6.1,14.8-16.5,17.6-31.1l3.7-19.4L353.1,141z"/>
				</g>
			</g>
			<g id="_x2C__9_">
				<g id="XMLID_48_">
					<path id="XMLID_49_" class="st11" d="M341.2,131.5c-13.5,0-24.6,4.7-33.2,14c-7.7,7.8-11.5,19-11.5,33.8v19.8l0.6,0.6
						c13.5,0,24.6-4.7,33.2-14c7.7-7.7,11.5-18.9,11.5-33.8v-19.8L341.2,131.5z"/>
				</g>
			</g>
		</g>
	</g>
</g>
</svg>
