<?xml version="1.0" encoding="utf-8"?>
<!-- Generator: Adobe Illustrator 19.0.0, SVG Export Plug-In . SVG Version: 6.00 Build 0)  -->
<svg version="1.1" id="Capa_1" xmlns="http://www.w3.org/2000/svg" xmlns:xlink="http://www.w3.org/1999/xlink" x="0px" y="0px"
	 viewBox="0 0 533.9 337" style="enable-background:new 0 0 533.9 337;" xml:space="preserve">
<style type="text/css">
	.st0{fill:none;}
	.st1{fill:#2C5828;}
	.st2{font-family:'CenturyGothic';}
	.st3{font-size:127.296px;}
	.st4{fill:#457C37;}
	.st5{fill:#4F7E9C;}
	.st6{fill:#26659C;}
	.st7{filter:url(#Adobe_OpacityMaskFilter);}
	.st8{mask:url(#XMLID_70_);}
	.st9{fill:#706F6F;}
	.st10{fill:#497A97;}
	.st11{fill:#73A642;}
	.st12{fill:#559042;}
</style>
<g id="XMLID_3_">
	<rect id="XMLID_1_" y="234.3" class="st0" width="533.9" height="102.6"/>
	<text id="XMLID_30_" transform="matrix(1 0 0 1 0.9473 328.0225)"><tspan x="0" y="0" class="st1 st2 st3">i</tspan><tspan x="25.5" y="0" class="st4 st2 st3">na</tspan><tspan x="190.1" y="0" class="st5 st2 st3">blo</tspan><tspan x="385.7" y="0" class="st6 st2 st3">ck</tspan></text>
	<defs>
		<filter id="Adobe_OpacityMaskFilter" filterUnits="userSpaceOnUse" x="3.6" y="0" width="526.8" height="223.3">
			<feFlood  style="flood-color:white;flood-opacity:1" result="back"/>
			<feBlend  in="SourceGraphic" in2="back" mode="normal"/>
		</filter>
	</defs>
	<mask maskUnits="userSpaceOnUse" x="3.6" y="0" width="526.8" height="223.3" id="XMLID_70_">
		<g id="XMLID_8_" class="st7">
			<g id="XMLID_9_">
				<path id="XMLID_12_" d="M179.2,197.4c0,0,55.1,27.4,112.4-12.1c0,0,24.9-17,37.7-48c12.8-30.9,25.3-62.4,25.3-62.4l-0.9-2.2
					c0,0-49.5-25.3-105.9,7.9c0,0-30.7,17.1-47.8,60.3c-17.1,43.1-21.7,54.4-21.7,54.4L179.2,197.4z"/>
				<path id="XMLID_11_" d="M179.6,197.5c0,0,59.4,16.4,108-33.3c0,0,21.2-21.5,27.9-54.3c6.7-32.8,13-66.1,13-66.1l-1.3-2
					c0,0-53.4-15.4-102.5,27.9c0,0-26.9,22.7-35.5,68.3c-8.6,45.6-10.9,57.5-10.9,57.5L179.6,197.5z"/>
				<path id="XMLID_10_" d="M179.9,197.1c0,0,61.4,5.1,100-52.7c0,0,16.8-25,17.4-58.5c0.5-33.5,0.5-67.4,0.5-67.4l-1.7-1.7
					c0,0-55.3-5.3-95.6,46.3c0,0-22.2,27.3-22.2,73.7c0,46.4-0.1,58.5-0.1,58.5L179.9,197.1z"/>
			</g>
		</g>
	</mask>
	<g id="XMLID_13_" class="st8">
		<polygon id="XMLID_29_" class="st9" points="274.7,0 274.7,72.3 366.7,92 366.7,29.5 		"/>
		<polygon id="XMLID_28_" class="st9" points="383.6,33.7 383.6,95.5 459.4,111.7 459.4,58.3 		"/>
		<polygon id="XMLID_27_" class="st9" points="475.6,63.2 475.6,115.2 530.3,126.4 530.3,81.5 		"/>
		<polygon id="XMLID_26_" class="st9" points="274.7,94.8 274.7,144.7 414.5,162.2 414.5,120.1 		"/>
		<polygon id="XMLID_25_" class="st9" points="430.6,123.6 430.6,162.2 496.6,172.1 496.6,136.9 		"/>
		<polygon id="XMLID_24_" class="st9" points="274.7,167.1 274.7,219.1 366.7,219.1 366.7,177 		"/>
		<polygon id="XMLID_23_" class="st9" points="383.6,180.5 383.6,221.9 459.4,221.9 459.4,186.1 		"/>
		<polygon id="XMLID_22_" class="st9" points="475.6,186.8 475.6,223.3 530.3,223.3 530.3,193.1 		"/>
		<polygon id="XMLID_21_" class="st9" points="259.2,0 259.2,72.3 167.2,92 167.2,29.5 		"/>
		<polygon id="XMLID_20_" class="st9" points="150.3,33.7 150.3,95.5 74.5,111.7 74.5,58.3 		"/>
		<polygon id="XMLID_19_" class="st9" points="58.3,63.2 58.3,115.2 3.6,126.4 3.6,81.5 		"/>
		<polygon id="XMLID_18_" class="st9" points="259.2,94.8 259.2,144.7 119.4,162.2 119.4,120.1 		"/>
		<polygon id="XMLID_17_" class="st9" points="103.3,123.6 103.3,162.2 37.3,172.1 37.3,136.9 		"/>
		<polygon id="XMLID_16_" class="st9" points="259.2,167.1 259.2,219.1 167.2,219.1 167.2,177 		"/>
		<polygon id="XMLID_15_" class="st9" points="150.3,180.5 150.3,221.9 74.5,221.9 74.5,186.1 		"/>
		<polygon id="XMLID_14_" class="st9" points="58.3,186.8 58.3,223.3 3.6,223.3 3.6,193.1 		"/>
	</g>
	<g id="XMLID_4_">
		<path id="XMLID_7_" class="st10" d="M187.6,187.9c0,0,48.8,24.2,99.4-10.7c0,0,22-15.1,33.4-42.5c11.4-27.4,22.4-55.2,22.4-55.2
			l-0.8-1.9c0,0-43.7-22.3-93.7,7c0,0-27.2,15.2-42.3,53.3c-15.1,38.2-19.1,48.1-19.1,48.1L187.6,187.9z"/>
		<path id="XMLID_6_" class="st11" d="M187.9,188c0,0,52.5,14.5,95.5-29.4c0,0,18.7-19,24.7-48c5.9-29,11.5-58.5,11.5-58.5l-1.2-1.7
			c0,0-47.2-13.6-90.7,24.7c0,0-23.8,20-31.4,60.4c-7.6,40.4-9.6,50.9-9.6,50.9L187.9,188z"/>
		<path id="XMLID_5_" class="st12" d="M188.2,187.6c0,0,54.3,4.5,88.4-46.6c0,0,14.9-22.1,15.4-51.8c0.5-29.6,0.5-59.6,0.5-59.6
			l-1.5-1.5c0,0-48.9-4.6-84.5,41c0,0-19.7,24.1-19.7,65.2c0,41.1-0.1,51.8-0.1,51.8L188.2,187.6z"/>
	</g>
</g>
</svg>
