<?xml version="1.0" encoding="utf-8"?>
<!-- Generator: Adobe Illustrator 16.0.0, SVG Export Plug-In . SVG Version: 6.00 Build 0)  -->
<!DOCTYPE svg PUBLIC "-//W3C//DTD SVG 1.1//EN" "http://www.w3.org/Graphics/SVG/1.1/DTD/svg11.dtd">
<svg version="1.1" xmlns="http://www.w3.org/2000/svg" xmlns:xlink="http://www.w3.org/1999/xlink" x="0px" y="0px" width="612px"
	 height="380.438px" viewBox="0 0 612 380.438" enable-background="new 0 0 612 380.438" xml:space="preserve">
<g id="Capa_2">
</g>
<g id="Capa_1">
	<g>
		<rect x="39.055" y="256.067" fill="none" width="533.891" height="102.639"/>
		<text transform="matrix(1 0 0 1 40.002 349.7559)"><tspan x="0" y="0" fill="#2C5828" font-family="'CenturyGothic'" font-size="127.296">i</tspan><tspan x="25.484" y="0" fill="#457C37" font-family="'CenturyGothic'" font-size="127.296">na</tspan><tspan x="190.074" y="0" fill="#4F7E9C" font-family="'CenturyGothic'" font-size="127.296">blo</tspan><tspan x="385.742" y="0" fill="#26659C" font-family="'CenturyGothic'" font-size="127.296">ck</tspan></text>
		<defs>
			<filter id="Adobe_OpacityMaskFilter" filterUnits="userSpaceOnUse" x="42.619" y="21.733" width="526.767" height="223.324">
				<feFlood  style="flood-color:white;flood-opacity:1" result="back"/>
				<feBlend  in="SourceGraphic" in2="back" mode="normal"/>
			</filter>
		</defs>
		<mask maskUnits="userSpaceOnUse" x="42.619" y="21.733" width="526.767" height="223.324" id="SVGID_1_">
			<g filter="url(#Adobe_OpacityMaskFilter)">
				<g>
					<path d="M218.261,219.106c0,0,55.147,27.373,112.367-12.1c0,0,24.854-17.049,37.705-48
						c12.847-30.945,25.327-62.426,25.327-62.426l-0.944-2.182c0,0-49.452-25.252-105.926,7.859c0,0-30.717,17.141-47.825,60.295
						c-17.102,43.145-21.653,54.369-21.653,54.369L218.261,219.106z"/>
					<path d="M218.654,219.226c0,0,59.354,16.373,108.003-33.268c0,0,21.16-21.475,27.886-54.303
						c6.715-32.826,12.975-66.105,12.975-66.105l-1.339-1.959c0,0-53.353-15.379-102.493,27.877c0,0-26.887,22.678-35.474,68.299
						c-8.575,45.621-10.9,57.492-10.9,57.492L218.654,219.226z"/>
					<path d="M218.995,218.8c0,0,61.359,5.123,100.003-52.652c0,0,16.821-25.018,17.36-58.516c0.54-33.506,0.54-67.371,0.54-67.371
						l-1.683-1.676c0,0-55.274-5.26-95.573,46.34c0,0-22.237,27.254-22.237,73.668c0,46.418-0.094,58.523-0.094,58.523
						L218.995,218.8z"/>
				</g>
			</g>
		</mask>
		<g mask="url(#SVGID_1_)">
			<polygon fill="#706F6F" points="313.753,21.733 313.753,94.065 405.748,113.735 405.748,51.233 			"/>
			<polygon fill="#706F6F" points="422.61,55.444 422.61,117.239 498.447,133.396 498.447,80.022 			"/>
			<polygon fill="#706F6F" points="514.605,84.94 514.605,136.905 569.386,148.144 569.386,103.2 			"/>
			<polygon fill="#706F6F" points="313.753,116.542 313.753,166.407 453.509,183.962 453.509,141.819 			"/>
			<polygon fill="#706F6F" points="469.658,145.333 469.658,183.962 535.673,193.792 535.673,158.677 			"/>
			<polygon fill="#706F6F" points="313.753,188.876 313.753,240.849 405.748,240.849 405.748,198.708 			"/>
			<polygon fill="#706F6F" points="422.61,202.216 422.61,243.651 498.447,243.651 498.447,207.837 			"/>
			<polygon fill="#706F6F" points="514.605,208.538 514.605,245.058 569.386,245.058 569.386,214.86 			"/>
			<polygon fill="#706F6F" points="298.255,21.733 298.255,94.065 206.249,113.735 206.249,51.233 			"/>
			<polygon fill="#706F6F" points="189.401,55.444 189.401,117.239 113.558,133.396 113.558,80.022 			"/>
			<polygon fill="#706F6F" points="97.403,84.94 97.403,136.905 42.619,148.144 42.619,103.2 			"/>
			<polygon fill="#706F6F" points="298.255,116.542 298.255,166.407 158.502,183.962 158.502,141.819 			"/>
			<polygon fill="#706F6F" points="142.346,145.333 142.346,183.962 76.333,193.792 76.333,158.677 			"/>
			<polygon fill="#706F6F" points="298.255,188.876 298.255,240.849 206.249,240.849 206.249,198.708 			"/>
			<polygon fill="#706F6F" points="189.401,202.216 189.401,243.651 113.558,243.651 113.558,207.837 			"/>
			<polygon fill="#706F6F" points="97.403,208.538 97.403,245.058 42.619,245.058 42.619,214.86 			"/>
		</g>
		<g>
			<path fill="#497A97" d="M226.654,209.646c0,0,48.767,24.211,99.373-10.697c0,0,21.989-15.082,33.354-42.453
				c11.359-27.373,22.399-55.213,22.399-55.213l-0.839-1.93c0,0-43.732-22.34-93.676,6.951c0,0-27.171,15.16-42.309,53.326
				c-15.124,38.162-19.145,48.086-19.145,48.086L226.654,209.646z"/>
			<path fill="#73A642" d="M226.997,209.755c0,0,52.495,14.475,95.525-29.426c0,0,18.713-18.994,24.658-48.025
				c5.94-29.033,11.48-58.471,11.48-58.471l-1.187-1.73c0,0-47.188-13.604-90.651,24.66c0,0-23.781,20.049-31.367,60.395
				c-7.589,40.352-9.644,50.859-9.644,50.859L226.997,209.755z"/>
			<path fill="#559042" d="M227.298,209.378c0,0,54.272,4.525,88.444-46.57c0,0,14.883-22.123,15.364-51.754
				c0.469-29.633,0.469-59.588,0.469-59.588l-1.487-1.482c0,0-48.888-4.646-84.528,40.99c0,0-19.668,24.102-19.668,65.154
				c0,41.059-0.079,51.76-0.079,51.76L227.298,209.378z"/>
		</g>
	</g>
</g>
</svg>
