<?xml version="1.0" encoding="utf-8"?>
<!-- Generator: Adobe Illustrator 19.0.0, SVG Export Plug-In . SVG Version: 6.00 Build 0)  -->
<svg version="1.1" id="Capa_1" xmlns="http://www.w3.org/2000/svg" xmlns:xlink="http://www.w3.org/1999/xlink" x="0px" y="0px"
	 viewBox="0 0 660.7 381.6" style="enable-background:new 0 0 660.7 381.6;" xml:space="preserve">
<style type="text/css">
	.st0{fill:#175929;}
	.st1{fill:#0F7C35;}
	.st2{fill:#087FA2;}
	.st3{fill:#03629D;}
	.st4{fill:#FFFFFF;}
	.st5{fill:url(#SVGID_1_);}
	.st6{fill:#087FA1;}
	.st7{fill:#54AF32;}
	.st8{fill:#129839;}
</style>
<g>
	<g>
		<g>
			<path class="st0" d="M11.3,226.6c3.2,0,5.9,1.1,8.1,3.4c2.2,2.2,3.4,5,3.4,8.1c0,3.1-1.1,5.8-3.4,8c-2.2,2.2-4.9,3.4-8.1,3.4
				c-3.1,0-5.8-1.1-8-3.4c-2.2-2.2-3.4-4.9-3.4-8c0-3.2,1.1-5.9,3.4-8.1C5.6,227.7,8.3,226.6,11.3,226.6z M4.5,271h13.9v107.8H4.5
				V271z"/>
			<path class="st1" d="M37,271h13.9v19.3c5.6-7.4,11.7-12.9,18.4-16.6c6.7-3.7,14.1-5.5,22-5.5c8.1,0,15.2,2,21.5,6.1
				c6.2,4.1,10.9,9.6,13.8,16.6c3,6.9,4.5,17.7,4.5,32.4v55.5h-13.9v-51.4c0-12.4-0.5-20.7-1.5-24.9c-1.6-7.1-4.7-12.5-9.3-16.1
				c-4.6-3.6-10.5-5.4-17.8-5.4c-8.4,0-15.9,2.8-22.6,8.3c-6.6,5.6-11,12.4-13.1,20.6c-1.3,5.4-2,15.1-2,29.3v39.5H37V271z"/>
			<path class="st1" d="M258.1,271v107.8h-13.7v-18.5c-5.8,7.1-12.3,12.4-19.6,16c-7.2,3.6-15.1,5.4-23.7,5.4
				c-15.3,0-28.3-5.5-39.1-16.6c-10.8-11.1-16.2-24.5-16.2-40.4c0-15.5,5.5-28.8,16.4-39.8c10.9-11,24-16.6,39.3-16.6
				c8.9,0,16.9,1.9,24,5.6c7.2,3.8,13.5,9.4,18.9,16.9V271H258.1z M202.6,281.6c-7.7,0-14.8,1.9-21.4,5.7c-6.5,3.8-11.7,9.1-15.6,16
				c-3.9,6.9-5.8,14.1-5.8,21.8c0,7.6,1.9,14.9,5.8,21.8c3.9,6.9,9.1,12.3,15.7,16.2c6.6,3.9,13.6,5.8,21.1,5.8
				c7.6,0,14.8-1.9,21.6-5.7c6.8-3.8,12-9,15.7-15.5c3.7-6.5,5.5-13.9,5.5-22.1c0-12.5-4.1-22.9-12.3-31.3
				C224.8,285.8,214.7,281.6,202.6,281.6z"/>
			<path class="st2" d="M281.4,233h29c16.7,0,27.9,0.7,33.7,2.2c8.3,2,15.1,6.3,20.4,12.6c5.3,6.4,7.9,14.4,7.9,24
				c0,9.7-2.6,17.7-7.7,24c-5.2,6.3-12.3,10.6-21.3,12.7c-6.6,1.6-19,2.4-37.1,2.4h-10.4v67.8h-14.6V233z M295.9,247.3v49.5
				l24.7,0.3c10,0,17.3-0.9,21.9-2.7c4.6-1.8,8.3-4.7,10.9-8.8c2.6-4.1,4-8.6,4-13.6c0-4.9-1.3-9.3-4-13.4
				c-2.6-4.1-6.1-6.9-10.5-8.7c-4.3-1.7-11.4-2.6-21.3-2.6H295.9z"/>
			<path class="st2" d="M387.4,271h13.9v50.3c0,12.3,0.7,20.7,2,25.4c2,6.6,5.8,11.8,11.4,15.7c5.6,3.8,12.3,5.7,20,5.7
				c7.7,0,14.3-1.9,19.7-5.6c5.4-3.7,9.1-8.6,11.2-14.7c1.4-4.2,2.1-13,2.1-26.5V271h14.2v52.9c0,14.9-1.7,26.1-5.2,33.6
				c-3.5,7.5-8.7,13.4-15.7,17.7c-7,4.3-15.7,6.4-26.2,6.4c-10.5,0-19.3-2.1-26.3-6.4c-7-4.3-12.3-10.2-15.8-17.8
				c-3.5-7.6-5.2-19.1-5.2-34.4V271z"/>
			<path class="st2" d="M497.1,271h14.2v15.8c4.2-6.2,8.7-10.9,13.4-13.9c4.7-3.1,9.6-4.6,14.7-4.6c3.8,0,7.9,1.2,12.3,3.7
				l-7.2,11.7c-2.9-1.3-5.4-1.9-7.3-1.9c-4.6,0-9.1,1.9-13.4,5.7c-4.3,3.8-7.6,9.7-9.8,17.7c-1.7,6.1-2.6,18.6-2.6,37.3v36.5h-14.2
				V271z"/>
			<path class="st3" d="M660.7,271v107.8H647v-18.5c-5.8,7.1-12.3,12.4-19.6,16c-7.2,3.6-15.1,5.4-23.7,5.4
				c-15.3,0-28.3-5.5-39.1-16.6c-10.8-11.1-16.2-24.5-16.2-40.4c0-15.5,5.4-28.8,16.4-39.8c10.9-11,24-16.6,39.3-16.6
				c8.9,0,16.9,1.9,24,5.6c7.2,3.8,13.5,9.4,18.9,16.9V271H660.7z M605.3,281.6c-7.7,0-14.8,1.9-21.4,5.7c-6.5,3.8-11.7,9.1-15.6,16
				c-3.9,6.9-5.8,14.1-5.8,21.8c0,7.6,1.9,14.9,5.8,21.8c3.9,6.9,9.1,12.3,15.7,16.2c6.6,3.9,13.6,5.8,21.1,5.8
				c7.6,0,14.8-1.9,21.6-5.7c6.8-3.8,12-9,15.7-15.5c3.7-6.5,5.5-13.9,5.5-22.1c0-12.5-4.1-22.9-12.3-31.3
				C627.4,285.8,617.3,281.6,605.3,281.6z"/>
		</g>
	</g>
	<g>
		<g>
			<path id="XMLID_56_" class="st3" d="M341.4,83.4c3.4-5.5,2.9-10,1.7-14.2c-3.9-13-16-23.8-27.4-29.1
				c-13.2-6.1-26.3-10.2-32.1-9.6c-5.2,0.5-8,2.5-8,2.5s-35.7,21.7-39.8,70.2c-4.1,48.5,33.8,92,90.3,98.8
				c56.5,6.8,96.3-52.1,95.7-85.6c0-2,0.4-6.7-0.7-7.4c-2.7-1.7-7.8-1.5-12.8-0.4c-6.9,1.5-11.2,3.8-15.7,8.6
				c-4.5,4.9-7.4,11-10.4,16.9c-3,5.9-7.1,11.4-11.7,15.9c-4.5,4.5-10.1,7.1-17.6,10.2c-0.5,0.2-1,0.4-1.5,0.6l-5.8,21.9h-33.3
				l-4.9-19.4c-8.5-2.2-16.5-6.1-23.2-11.7c0,0-15.7-13.6-18-24.9c-2.2-11.2-2.8-16.2-0.8-25.8c1-5.1,3.5-10.8,6.9-15.8
				c3.4-5,5.5-7.6,9.3-10.6c3.4-2.6,8.3-6,15.3-7.6c5.9-1.4,12.4-1.5,16.9-1.1c4.5,0.4,13.4,1.4,18.2,4.6
				C337,74,339.4,77.6,341.4,83.4z"/>
		</g>
		<g>
			<path id="XMLID_54_" class="st2" d="M324.2,113.5c-0.7-2.2,0-4.6,1-6.7c1.4-2.9,3.7-5.2,6.1-7.1c2.5-2,5.2-3.7,7.6-5.7
				c0.7-0.6,1.4-1.2,1.8-2c0.4-0.8,0.5-1.8,0.1-2.6c0,0,3.3,2.7,3.2,5.7c-0.1,3-1.7,4.5-3.5,6.2c-1.8,1.6-3.9,2.8-6,4.1
				c-2.1,1.3-4.1,2.7-5.5,4.6c-1.5,1.9-3,5.2-2.4,7.5C326.6,117.3,325.2,116.6,324.2,113.5z"/>
		</g>
		<g>
			<path id="XMLID_52_" class="st2" d="M336.4,110.3c-0.7,1.2-1.1,2-1.6,3.2c-0.4,1.2-1,2.5-2.2,3.1c0,0-1.7,0.5-2.1-0.4
				c-0.4-0.7,0-2.2,0.5-3.2c1.6-3.5,5.4-5.6,9-6.8C340.1,106.2,337.5,108.6,336.4,110.3z"/>
		</g>
		<g>
			<path id="XMLID_48_" class="st2" d="M339.4,160.9c-3.6,0.3-5.9-2.7-10-1.6c-5.9,1.6-6.7,3.4-10.5,3.3c-3.7-0.1-5.9-1.6-5.9-1.6
				l3.7,16.3h24.4l5.9-19.8C347,157.4,344,160.6,339.4,160.9z"/>
		</g>
		<path class="st2" d="M344.1,181h-30.3l-14.7-57.3h59.3L344.1,181z M315.3,179.1h27.3l13.4-53.5h-54.4L315.3,179.1z"/>
		<path class="st2" d="M325.9,129.7c0.4,0.4-2.1,3.3,0.1,5.4c2.2,2.1,5.5,4.1,4.4,8.1c-1,3.7-5.4,4.4-8-0.4
			C320.3,138.8,325.5,129.3,325.9,129.7z"/>
		<path class="st4" d="M266.8,86.1c0,0-16.7,18.3-4.7,46.2C254.8,126.1,248.7,94.8,266.8,86.1z"/>
		<path class="st4" d="M412.4,112.1c0,0-9.2,0.3-14.5,5.6c-5.2,5.2-9.5,11.8-11.7,17.1c-2.1,5.3,10-10.7,13-13.7
			C402.3,118.1,407.3,112.1,412.4,112.1z"/>
		<path class="st4" d="M367.5,165.4c0,0-9,6.6-19.3,7.6l-1.1,4.3C347,177.3,360.9,173.5,367.5,165.4z"/>
		<path class="st4" d="M309.8,172.9c0,0-16.5-1.5-33.1-13.6c8.2,11.7,26.8,15.6,34,17.2"/>
		<g>
			<path id="XMLID_44_" class="st4" d="M239.8,94.5c-10.4,8.5,11.5-37.9,24.9-51.2c8.9-8.9,13.6-12.8,23.9-10.5
				c16.9,3.8,24.5,7.6,33.6,13.2c6,3.7,11.8,9.5,15.7,14.9c3.3,4.6,5.9,11,4.3,18.8c-3.9-6-4.3-6.9-8.8-10.2
				c-3.3-2.3-9.5-4.3-14.7-5.3c-3.9-0.8-8-1.5-16.7-1.1c-5.3,0.3-9.8,1.3-13.9,2.3c-1.4,0.4-5.7,1.7-11,3.5c-4.2,1.5-7.5,2.6-12.9,6
				c-5.9,3.8-8.2,5.6-12.4,9.7C248.1,88.3,244.9,90.3,239.8,94.5z"/>
		</g>
		<path class="st3" d="M233.3,108.5c0,52.9,42.9,95.7,95.7,95.7c52.9,0,95.7-42.9,95.7-95.7c0-52.9-42.9-95.7-95.7-95.7
			C276.1,12.8,233.3,55.7,233.3,108.5z M238.7,108.5c0-49.9,40.4-90.3,90.3-90.3c49.9,0,90.3,40.4,90.3,90.3
			c0,49.9-40.4,90.3-90.3,90.3C279.1,198.8,238.7,158.4,238.7,108.5z"/>
	</g>
	
		<linearGradient id="SVGID_1_" gradientUnits="userSpaceOnUse" x1="262.5756" y1="638.5457" x2="485.4685" y2="638.5457" gradientTransform="matrix(0.866 0.5 -0.5 0.866 324.4775 -632.1328)">
		<stop  offset="0" style="stop-color:#FFFFFF;stop-opacity:0"/>
		<stop  offset="3.078026e-02" style="stop-color:#E1F2E6;stop-opacity:3.078026e-02"/>
		<stop  offset="8.229506e-02" style="stop-color:#B6DFC2;stop-opacity:8.229506e-02"/>
		<stop  offset="0.1395" style="stop-color:#8FCEA1;stop-opacity:0.1395"/>
		<stop  offset="0.2011" style="stop-color:#6DC085;stop-opacity:0.2011"/>
		<stop  offset="0.2684" style="stop-color:#50B36D;stop-opacity:0.2684"/>
		<stop  offset="0.3434" style="stop-color:#39A95A;stop-opacity:0.3434"/>
		<stop  offset="0.4293" style="stop-color:#28A14B;stop-opacity:0.4293"/>
		<stop  offset="0.5328" style="stop-color:#1B9C41;stop-opacity:0.5328"/>
		<stop  offset="0.6722" style="stop-color:#14993B;stop-opacity:0.6722"/>
		<stop  offset="1" style="stop-color:#129839"/>
	</linearGradient>
	<path class="st5" d="M382.7,14.4C331.2-15.3,267.1,2.4,237.4,53.9C207.7,105.4,223.5,171.3,275,201c51.5,29.7,121,14.4,150.8-37.1
		S434.2,44.2,382.7,14.4z M278.1,195.7c-48.6-28.1-66.7-91.7-38.7-140.3c28.1-48.6,91.7-63.7,140.3-35.7
		c48.6,28.1,65.2,90.2,37.2,138.8S326.7,223.7,278.1,195.7z"/>
	<g>
		<g id="_x2C__copy_2_4_">
			<g id="XMLID_49_">
				<path id="XMLID_50_" class="st6" d="M437.2,154.8c-12.8-5-24.9-4.7-36.5,1c-10.1,4.5-17.9,13.7-23.4,27.7l-7.3,18.7l0.4,0.8
					c12.8,5,24.9,4.7,36.5-1c10.1-4.4,17.9-13.6,23.4-27.7l7.3-18.7L437.2,154.8z"/>
			</g>
		</g>
		<g id="_x2C__copy_4_">
			<g id="XMLID_45_">
				<path id="XMLID_46_" class="st7" d="M427.1,143.1c-13.5-2.5-25.4,0-35.7,7.7c-9.1,6.3-15,16.8-17.8,31.5l-3.7,19.7l0.5,0.8
					c13.5,2.5,25.4,0,35.7-7.7c9.1-6.2,15-16.7,17.8-31.5l3.7-19.7L427.1,143.1z"/>
			</g>
		</g>
		<g id="_x2C__4_">
			<g id="XMLID_41_">
				<path id="XMLID_42_" class="st8" d="M415,133.5c-13.7,0-24.9,4.7-33.7,14.2c-7.8,7.9-11.7,19.3-11.7,34.3v20.1l0.6,0.6
					c13.7,0,24.9-4.7,33.7-14.2c7.8-7.8,11.7-19.2,11.7-34.3v-20.1L415,133.5z"/>
			</g>
		</g>
	</g>
</g>
</svg>
