<?xml version="1.0" encoding="utf-8"?>
<!-- Generator: Adobe Illustrator 16.0.0, SVG Export Plug-In . SVG Version: 6.00 Build 0)  -->
<!DOCTYPE svg PUBLIC "-//W3C//DTD SVG 1.1//EN" "http://www.w3.org/Graphics/SVG/1.1/DTD/svg11.dtd">
<svg version="1.1" id="Capa_1" xmlns="http://www.w3.org/2000/svg" xmlns:xlink="http://www.w3.org/1999/xlink" x="0px" y="0px"
	 width="358.592px" height="252.093px" viewBox="0 0 358.592 252.093" enable-background="new 0 0 358.592 252.093"
	 xml:space="preserve">
<g>
	<path fill="#2F5927" d="M44.501,127.301c1.469,0,2.724,0.522,3.765,1.567c1.039,1.045,1.561,2.306,1.561,3.78
		c0,1.445-0.521,2.69-1.561,3.736c-1.041,1.045-2.296,1.567-3.765,1.567c-1.439,0-2.679-0.522-3.719-1.567
		c-1.04-1.045-1.561-2.291-1.561-3.736c0-1.475,0.521-2.735,1.561-3.78S43.062,127.301,44.501,127.301z M41.297,147.957h6.454
		v50.162h-6.454V147.957z"/>
	<path fill="#467C35" d="M57.39,147.957h6.455v8.989c2.582-3.442,5.44-6.015,8.575-7.723c3.135-1.705,6.547-2.558,10.235-2.558
		c3.75,0,7.077,0.952,9.98,2.859c2.906,1.906,5.05,4.472,6.433,7.699c1.384,3.227,2.075,8.252,2.075,15.076v25.819h-6.454v-23.929
		c0-5.778-0.241-9.636-0.719-11.572c-0.748-3.318-2.184-5.816-4.303-7.491c-2.121-1.675-4.89-2.514-8.301-2.514
		c-3.904,0-7.402,1.292-10.49,3.873c-3.09,2.582-5.127,5.78-6.11,9.59c-0.614,2.49-0.922,7.04-0.922,13.646v18.397H57.39V147.957z"
		/>
	<path fill="#467C35" d="M161.157,147.957v50.162h-6.363v-8.623c-2.705,3.29-5.74,5.764-9.105,7.424
		c-3.366,1.659-7.047,2.489-11.042,2.489c-7.101,0-13.163-2.573-18.188-7.723c-5.025-5.147-7.538-11.41-7.538-18.787
		c0-7.222,2.535-13.401,7.607-18.533c5.071-5.134,11.172-7.7,18.304-7.7c4.118,0,7.845,0.875,11.18,2.627s6.264,4.379,8.783,7.883
		v-9.219H161.157z M135.361,152.89c-3.592,0-6.908,0.883-9.947,2.647c-3.04,1.766-5.458,4.245-7.254,7.439
		c-1.796,3.192-2.693,6.57-2.693,10.131c0,3.532,0.905,6.908,2.717,10.131c1.812,3.224,4.244,5.732,7.299,7.528
		c3.055,1.798,6.333,2.696,9.833,2.696c3.53,0,6.877-0.89,10.038-2.672c3.162-1.779,5.596-4.19,7.3-7.23
		c1.704-3.039,2.555-6.462,2.555-10.269c0-5.803-1.909-10.653-5.732-14.552C145.652,154.84,140.948,152.89,135.361,152.89z"/>
	<path fill="#4E7F9D" d="M177.467,129.33h6.454v18.627h10.235v5.577h-10.235v44.585h-6.454v-44.585h-8.807v-5.577h8.807V129.33z"/>
	<path fill="#4E7F9D" d="M242.087,181.475l5.439,2.857c-1.783,3.504-3.845,6.332-6.183,8.484c-2.34,2.15-4.969,3.789-7.893,4.911
		c-2.922,1.121-6.23,1.681-9.92,1.681c-8.185,0-14.584-2.681-19.197-8.044c-4.616-5.364-6.923-11.427-6.923-18.189
		c0-6.363,1.953-12.033,5.86-17.012c4.953-6.332,11.582-9.498,19.89-9.498c8.552,0,15.382,3.243,20.488,9.729
		c3.63,4.579,5.476,10.297,5.537,17.151h-45.136c0.122,5.826,1.984,10.602,5.585,14.327s8.047,5.589,13.341,5.589
		c2.553,0,5.038-0.444,7.454-1.333c2.417-0.887,4.47-2.065,6.163-3.535C238.285,187.124,240.117,184.751,242.087,181.475z
		 M242.087,167.966c-0.862-3.442-2.117-6.194-3.762-8.253c-1.646-2.059-3.823-3.719-6.533-4.98
		c-2.709-1.259-5.555-1.891-8.538-1.891c-4.926,0-9.156,1.585-12.696,4.75c-2.586,2.306-4.54,5.763-5.862,10.374H242.087z"/>
	<path fill="#2B659A" d="M257.463,128.593h6.456V168.2l23.256-20.243h9.479l-27.572,23.928l29.185,26.233h-9.084l-25.264-22.584
		v22.584h-6.456V128.593z"/>
	<g>
		<path fill="#4E7F9D" d="M46.418,209.759h1.079v10.798h-1.079V209.759z"/>
		<path fill="#4E7F9D" d="M49.238,212.571h1.028v1.432c0.41-0.547,0.866-0.958,1.365-1.229c0.499-0.271,1.042-0.408,1.63-0.408
			c0.597,0,1.126,0.152,1.589,0.456c0.463,0.302,0.805,0.71,1.025,1.226c0.22,0.513,0.329,1.315,0.329,2.4v4.11h-1.027v-3.809
			c0-0.921-0.038-1.535-0.114-1.842c-0.119-0.53-0.348-0.926-0.686-1.194c-0.338-0.267-0.778-0.401-1.321-0.401
			c-0.622,0-1.179,0.206-1.671,0.617c-0.492,0.412-0.816,0.921-0.974,1.528c-0.097,0.396-0.146,1.122-0.146,2.173v2.928h-1.028
			V212.571z"/>
		<path fill="#4E7F9D" d="M64.545,212.571h1.027v6.365c0,1.122-0.098,1.941-0.294,2.46c-0.269,0.734-0.735,1.299-1.401,1.695
			c-0.665,0.397-1.466,0.596-2.4,0.596c-0.686,0-1.301-0.097-1.847-0.291c-0.546-0.195-0.99-0.454-1.332-0.78
			c-0.344-0.327-0.659-0.805-0.948-1.433h1.116c0.304,0.529,0.696,0.92,1.177,1.175c0.479,0.253,1.074,0.381,1.785,0.381
			c0.701,0,1.293-0.131,1.775-0.392c0.483-0.262,0.827-0.589,1.033-0.984c0.205-0.395,0.309-1.034,0.309-1.913v-0.411
			c-0.388,0.489-0.86,0.865-1.418,1.126c-0.56,0.261-1.152,0.391-1.779,0.391c-0.734,0-1.426-0.181-2.071-0.546
			c-0.647-0.365-1.147-0.855-1.501-1.472c-0.353-0.617-0.527-1.294-0.527-2.033s0.183-1.429,0.551-2.066
			c0.367-0.639,0.875-1.143,1.524-1.517c0.648-0.372,1.334-0.558,2.054-0.558c0.598,0,1.155,0.124,1.673,0.372
			c0.518,0.247,1.015,0.654,1.495,1.221V212.571z M61.514,213.356c-0.584,0-1.124,0.141-1.623,0.423
			c-0.5,0.281-0.891,0.67-1.175,1.167s-0.426,1.034-0.426,1.611c0,0.877,0.294,1.601,0.881,2.173
			c0.587,0.573,1.349,0.859,2.283,0.859c0.945,0,1.704-0.283,2.279-0.851c0.576-0.568,0.863-1.315,0.863-2.24
			c0-0.602-0.133-1.139-0.397-1.612c-0.264-0.472-0.639-0.844-1.123-1.119C62.593,213.494,62.071,213.356,61.514,213.356z"/>
		<path fill="#4E7F9D" d="M74.092,217.908l0.866,0.456c-0.284,0.557-0.612,1.008-0.984,1.351c-0.372,0.343-0.791,0.603-1.256,0.782
			c-0.466,0.178-0.992,0.269-1.58,0.269c-1.304,0-2.322-0.427-3.057-1.283c-0.735-0.854-1.103-1.817-1.103-2.896
			c0-1.014,0.311-1.916,0.934-2.708c0.787-1.009,1.844-1.513,3.166-1.513c1.361,0,2.449,0.517,3.263,1.548
			c0.578,0.73,0.872,1.642,0.882,2.733h-7.188c0.02,0.927,0.316,1.688,0.89,2.282c0.573,0.593,1.281,0.889,2.124,0.889
			c0.407,0,0.803-0.069,1.188-0.213c0.385-0.14,0.712-0.33,0.981-0.562C73.486,218.808,73.777,218.43,74.092,217.908z
			 M74.092,215.758c-0.137-0.55-0.336-0.987-0.599-1.315c-0.263-0.327-0.608-0.592-1.04-0.792c-0.432-0.202-0.885-0.302-1.359-0.302
			c-0.785,0-1.458,0.252-2.022,0.756c-0.411,0.368-0.723,0.917-0.933,1.653H74.092z"/>
		<path fill="#4E7F9D" d="M76.647,212.571h1.027v1.432c0.41-0.547,0.865-0.958,1.365-1.229c0.5-0.271,1.043-0.408,1.63-0.408
			c0.597,0,1.127,0.152,1.59,0.456c0.462,0.302,0.804,0.71,1.023,1.226c0.221,0.513,0.331,1.315,0.331,2.4v4.11h-1.028v-3.809
			c0-0.921-0.039-1.535-0.114-1.842c-0.119-0.53-0.348-0.926-0.685-1.194c-0.338-0.267-0.779-0.401-1.322-0.401
			c-0.621,0-1.179,0.206-1.671,0.617c-0.492,0.412-0.815,0.921-0.973,1.528c-0.099,0.396-0.146,1.122-0.146,2.173v2.928h-1.027
			V212.571z"/>
		<path fill="#4E7F9D" d="M85.423,209.282c0.233,0,0.434,0.082,0.6,0.249s0.248,0.368,0.248,0.602c0,0.23-0.082,0.43-0.248,0.596
			s-0.366,0.249-0.6,0.249c-0.229,0-0.427-0.083-0.593-0.249c-0.165-0.166-0.248-0.365-0.248-0.596c0-0.234,0.083-0.435,0.248-0.602
			C84.996,209.364,85.193,209.282,85.423,209.282z M84.913,212.571h1.026v7.986h-1.026V212.571z"/>
		<path fill="#4E7F9D" d="M94.197,217.908l0.866,0.456c-0.283,0.557-0.612,1.008-0.985,1.351c-0.372,0.343-0.79,0.603-1.256,0.782
			c-0.466,0.178-0.991,0.269-1.58,0.269c-1.303,0-2.322-0.427-3.057-1.283c-0.735-0.854-1.103-1.817-1.103-2.896
			c0-1.014,0.312-1.916,0.933-2.708c0.79-1.009,1.845-1.513,3.168-1.513c1.362,0,2.45,0.517,3.263,1.548
			c0.578,0.73,0.872,1.642,0.882,2.733h-7.188c0.02,0.927,0.315,1.688,0.89,2.282c0.573,0.593,1.28,0.889,2.124,0.889
			c0.406,0,0.802-0.069,1.188-0.213c0.385-0.14,0.711-0.33,0.98-0.562C93.593,218.808,93.884,218.43,94.197,217.908z
			 M94.197,215.758c-0.138-0.55-0.337-0.987-0.599-1.315c-0.263-0.327-0.609-0.592-1.041-0.792
			c-0.431-0.202-0.884-0.302-1.359-0.302c-0.784,0-1.458,0.252-2.021,0.756c-0.412,0.368-0.723,0.917-0.934,1.653H94.197z"/>
		<path fill="#4E7F9D" d="M96.362,212.571h1.05v1.167c0.313-0.459,0.644-0.802,0.991-1.03c0.348-0.228,0.71-0.342,1.087-0.342
			c0.284,0,0.588,0.091,0.91,0.271l-0.535,0.867c-0.216-0.093-0.396-0.14-0.544-0.14c-0.343,0-0.673,0.141-0.991,0.422
			c-0.317,0.281-0.561,0.719-0.727,1.311c-0.127,0.455-0.191,1.375-0.191,2.76v2.7h-1.05V212.571z"/>
		<path fill="#4E7F9D" d="M101.742,208.827h1.578l-2.165,2.261h-1.014L101.742,208.827z M100.722,212.571h1.028v7.986h-1.028
			V212.571z"/>
		<path fill="#4E7F9D" d="M111.24,212.571v7.986h-1.013v-1.372c-0.432,0.525-0.915,0.917-1.45,1.182
			c-0.536,0.265-1.122,0.397-1.759,0.397c-1.131,0-2.097-0.411-2.896-1.23s-1.2-1.818-1.2-2.992c0-1.151,0.403-2.134,1.211-2.952
			s1.78-1.226,2.915-1.226c0.655,0,1.25,0.139,1.781,0.419c0.529,0.278,0.996,0.698,1.398,1.255v-1.469H111.24z M107.132,213.356
			c-0.571,0-1.1,0.141-1.584,0.422c-0.483,0.281-0.868,0.676-1.155,1.185c-0.285,0.507-0.429,1.045-0.429,1.612
			c0,0.563,0.145,1.101,0.433,1.615c0.288,0.513,0.677,0.911,1.163,1.199c0.485,0.285,1.008,0.428,1.565,0.428
			c0.563,0,1.095-0.141,1.599-0.425c0.504-0.283,0.892-0.667,1.162-1.153c0.271-0.483,0.407-1.027,0.407-1.634
			c0-0.924-0.305-1.696-0.913-2.316C108.771,213.668,108.021,213.356,107.132,213.356z"/>
		<path fill="#4E7F9D" d="M123.41,217.908l0.865,0.456c-0.283,0.557-0.612,1.008-0.983,1.351c-0.373,0.343-0.792,0.603-1.258,0.782
			c-0.465,0.178-0.991,0.269-1.579,0.269c-1.303,0-2.322-0.427-3.058-1.283c-0.734-0.854-1.102-1.817-1.102-2.896
			c0-1.014,0.312-1.916,0.934-2.708c0.788-1.009,1.844-1.513,3.166-1.513c1.362,0,2.45,0.517,3.264,1.548
			c0.577,0.73,0.872,1.642,0.881,2.733h-7.187c0.019,0.927,0.315,1.688,0.889,2.282c0.573,0.593,1.281,0.889,2.124,0.889
			c0.407,0,0.803-0.069,1.187-0.213c0.386-0.14,0.713-0.33,0.982-0.562C122.805,218.808,123.097,218.43,123.41,217.908z
			 M123.41,215.758c-0.138-0.55-0.337-0.987-0.6-1.315c-0.262-0.327-0.608-0.592-1.04-0.792c-0.431-0.202-0.885-0.302-1.359-0.302
			c-0.785,0-1.458,0.252-2.022,0.756c-0.411,0.368-0.723,0.917-0.933,1.653H123.41z"/>
		<path fill="#4E7F9D" d="M125.964,212.571h1.028v1.432c0.411-0.547,0.866-0.958,1.365-1.229c0.499-0.271,1.043-0.408,1.63-0.408
			c0.597,0,1.127,0.152,1.59,0.456c0.462,0.302,0.804,0.71,1.024,1.226c0.221,0.513,0.33,1.315,0.33,2.4v4.11h-1.028v-3.809
			c0-0.921-0.038-1.535-0.114-1.842c-0.119-0.53-0.348-0.926-0.686-1.194c-0.338-0.267-0.778-0.401-1.322-0.401
			c-0.621,0-1.178,0.206-1.67,0.617c-0.492,0.412-0.816,0.921-0.973,1.528c-0.098,0.396-0.146,1.122-0.146,2.173v2.928h-1.028
			V212.571z"/>
		<path fill="#4E7F9D" d="M137.176,210.815v-1.056h5.918v1.056h-2.409v9.742h-1.101v-9.742H137.176z"/>
		<path fill="#4E7F9D" d="M150.646,217.908l0.866,0.456c-0.284,0.557-0.612,1.008-0.984,1.351c-0.373,0.343-0.792,0.603-1.257,0.782
			c-0.465,0.178-0.992,0.269-1.58,0.269c-1.303,0-2.322-0.427-3.057-1.283c-0.735-0.854-1.103-1.817-1.103-2.896
			c0-1.014,0.311-1.916,0.933-2.708c0.789-1.009,1.846-1.513,3.168-1.513c1.362,0,2.449,0.517,3.263,1.548
			c0.578,0.73,0.871,1.642,0.881,2.733h-7.187c0.019,0.927,0.315,1.688,0.889,2.282c0.573,0.593,1.282,0.889,2.124,0.889
			c0.407,0,0.803-0.069,1.188-0.213c0.385-0.14,0.712-0.33,0.981-0.562C150.041,218.808,150.332,218.43,150.646,217.908z
			 M150.646,215.758c-0.138-0.55-0.337-0.987-0.6-1.315c-0.262-0.327-0.609-0.592-1.04-0.792c-0.432-0.202-0.885-0.302-1.36-0.302
			c-0.783,0-1.457,0.252-2.021,0.756c-0.412,0.368-0.723,0.917-0.935,1.653H150.646z"/>
		<path fill="#4E7F9D" d="M160.953,214.23l-0.814,0.508c-0.703-0.936-1.665-1.403-2.882-1.403c-0.973,0-1.781,0.313-2.424,0.938
			c-0.643,0.625-0.964,1.386-0.964,2.28c0,0.582,0.146,1.13,0.443,1.643c0.296,0.514,0.701,0.913,1.218,1.196
			c0.516,0.284,1.093,0.425,1.733,0.425c1.174,0,2.132-0.467,2.875-1.401l0.814,0.535c-0.382,0.575-0.894,1.021-1.538,1.338
			c-0.644,0.318-1.376,0.477-2.198,0.477c-1.264,0-2.312-0.401-3.143-1.206c-0.833-0.803-1.248-1.778-1.248-2.929
			c0-0.774,0.194-1.492,0.583-2.156c0.391-0.664,0.925-1.179,1.604-1.552c0.681-0.372,1.442-0.558,2.283-0.558
			c0.528,0,1.039,0.081,1.531,0.243c0.492,0.161,0.909,0.372,1.251,0.632C160.423,213.499,160.714,213.829,160.953,214.23z"/>
		<path fill="#4E7F9D" d="M162.479,212.571h1.028v1.432c0.411-0.547,0.866-0.958,1.365-1.229c0.5-0.271,1.043-0.408,1.63-0.408
			c0.598,0,1.128,0.152,1.59,0.456c0.462,0.302,0.804,0.71,1.023,1.226c0.221,0.513,0.33,1.315,0.33,2.4v4.11h-1.026v-3.809
			c0-0.921-0.039-1.535-0.115-1.842c-0.118-0.53-0.347-0.926-0.686-1.194c-0.338-0.267-0.778-0.401-1.321-0.401
			c-0.622,0-1.178,0.206-1.67,0.617c-0.492,0.412-0.817,0.921-0.974,1.528c-0.098,0.396-0.146,1.122-0.146,2.173v2.928h-1.028
			V212.571z"/>
		<path fill="#4E7F9D" d="M174.682,212.365c1.23,0,2.25,0.446,3.06,1.336c0.734,0.813,1.102,1.774,1.102,2.885
			c0,1.116-0.387,2.091-1.165,2.926c-0.777,0.834-1.775,1.253-2.996,1.253c-1.228,0-2.229-0.418-3.005-1.253
			c-0.777-0.834-1.165-1.81-1.165-2.926c0-1.105,0.366-2.064,1.102-2.877C172.423,212.813,173.446,212.365,174.682,212.365z
			 M174.677,213.371c-0.854,0-1.589,0.316-2.201,0.947c-0.614,0.632-0.922,1.396-0.922,2.291c0,0.578,0.139,1.115,0.42,1.616
			c0.278,0.498,0.657,0.884,1.134,1.156c0.478,0.271,1,0.406,1.569,0.406s1.093-0.135,1.57-0.406
			c0.476-0.272,0.854-0.659,1.134-1.156c0.28-0.5,0.421-1.038,0.421-1.616c0-0.896-0.31-1.659-0.926-2.291
			C176.259,213.687,175.526,213.371,174.677,213.371z"/>
		<path fill="#4E7F9D" d="M180.025,209.488h1.028v11.069h-1.028V209.488z"/>
		<path fill="#4E7F9D" d="M186.366,212.365c1.229,0,2.25,0.446,3.06,1.336c0.734,0.813,1.103,1.774,1.103,2.885
			c0,1.116-0.388,2.091-1.165,2.926c-0.776,0.834-1.777,1.253-2.997,1.253c-1.226,0-2.228-0.418-3.005-1.253
			c-0.776-0.834-1.165-1.81-1.165-2.926c0-1.105,0.368-2.064,1.104-2.877C184.106,212.813,185.131,212.365,186.366,212.365z
			 M186.363,213.371c-0.854,0-1.591,0.316-2.204,0.947c-0.614,0.632-0.922,1.396-0.922,2.291c0,0.578,0.142,1.115,0.421,1.616
			c0.28,0.498,0.658,0.884,1.135,1.156c0.478,0.271,1,0.406,1.57,0.406c0.569,0,1.092-0.135,1.568-0.406
			c0.477-0.272,0.854-0.659,1.134-1.156c0.281-0.5,0.42-1.038,0.42-1.616c0-0.896-0.309-1.659-0.924-2.291
			C187.945,213.687,187.212,213.371,186.363,213.371z"/>
		<path fill="#4E7F9D" d="M198.751,212.571h1.027v6.365c0,1.122-0.098,1.941-0.293,2.46c-0.271,0.734-0.737,1.299-1.401,1.695
			c-0.667,0.397-1.467,0.596-2.402,0.596c-0.685,0-1.3-0.097-1.845-0.291c-0.548-0.195-0.991-0.454-1.334-0.78
			s-0.657-0.805-0.947-1.433h1.116c0.303,0.529,0.696,0.92,1.176,1.175c0.48,0.253,1.076,0.381,1.787,0.381
			c0.7,0,1.292-0.131,1.775-0.392c0.481-0.262,0.826-0.589,1.032-0.984s0.309-1.034,0.309-1.913v-0.411
			c-0.388,0.489-0.86,0.865-1.418,1.126c-0.56,0.261-1.152,0.391-1.779,0.391c-0.734,0-1.425-0.181-2.072-0.546
			s-1.146-0.855-1.5-1.472c-0.352-0.617-0.528-1.294-0.528-2.033s0.184-1.429,0.551-2.066c0.368-0.639,0.877-1.143,1.525-1.517
			c0.649-0.372,1.335-0.558,2.053-0.558c0.599,0,1.157,0.124,1.673,0.372c0.518,0.247,1.016,0.654,1.496,1.221V212.571z
			 M195.719,213.356c-0.582,0-1.123,0.141-1.622,0.423c-0.5,0.281-0.892,0.67-1.177,1.167c-0.282,0.497-0.426,1.034-0.426,1.611
			c0,0.877,0.295,1.601,0.882,2.173c0.588,0.573,1.35,0.859,2.283,0.859c0.946,0,1.705-0.283,2.281-0.851
			c0.574-0.568,0.861-1.315,0.861-2.24c0-0.602-0.131-1.139-0.396-1.612c-0.265-0.472-0.639-0.844-1.123-1.119
			C196.798,213.494,196.275,213.356,195.719,213.356z"/>
		<path fill="#4E7F9D" d="M202.439,208.827h1.577l-2.164,2.261h-1.013L202.439,208.827z M201.419,212.571h1.028v7.986h-1.028
			V212.571z"/>
		<path fill="#4E7F9D" d="M211.937,212.571v7.986h-1.013v-1.372c-0.431,0.525-0.914,0.917-1.449,1.182
			c-0.537,0.265-1.123,0.397-1.759,0.397c-1.131,0-2.097-0.411-2.896-1.23s-1.201-1.818-1.201-2.992
			c0-1.151,0.404-2.134,1.212-2.952c0.809-0.817,1.779-1.226,2.915-1.226c0.656,0,1.249,0.139,1.779,0.419
			c0.532,0.278,0.998,0.698,1.399,1.255v-1.469H211.937z M207.829,213.356c-0.571,0-1.1,0.141-1.583,0.422
			c-0.484,0.281-0.869,0.676-1.157,1.185c-0.284,0.507-0.428,1.045-0.428,1.612c0,0.563,0.145,1.101,0.434,1.615
			c0.287,0.513,0.676,0.911,1.161,1.199c0.486,0.285,1.009,0.428,1.567,0.428c0.563,0,1.095-0.141,1.598-0.425
			c0.504-0.283,0.892-0.667,1.162-1.153c0.271-0.483,0.407-1.027,0.407-1.634c0-0.924-0.305-1.696-0.913-2.316
			C209.469,213.668,208.72,213.356,207.829,213.356z"/>
		<path fill="#4E7F9D" d="M221.964,209.759L227,220.557h-1.166l-1.698-3.551h-4.653l-1.682,3.551h-1.204l5.102-10.798H221.964z
			 M221.827,212.053l-1.85,3.909h3.691L221.827,212.053z"/>
		<path fill="#4E7F9D" d="M227.944,212.571h1.027v1.379c0.356-0.507,0.725-0.88,1.102-1.114c0.52-0.314,1.065-0.471,1.639-0.471
			c0.388,0,0.755,0.077,1.104,0.228c0.348,0.151,0.631,0.353,0.852,0.605c0.222,0.252,0.411,0.613,0.574,1.083
			c0.341-0.626,0.768-1.102,1.28-1.429c0.513-0.325,1.065-0.488,1.657-0.488c0.552,0,1.037,0.139,1.461,0.419
			c0.424,0.278,0.735,0.668,0.941,1.166c0.205,0.5,0.307,1.248,0.307,2.248v4.359h-1.05v-4.359c0-0.855-0.063-1.445-0.184-1.767
			c-0.121-0.319-0.329-0.577-0.625-0.774c-0.295-0.194-0.647-0.293-1.057-0.293c-0.497,0-0.953,0.146-1.365,0.441
			c-0.412,0.293-0.714,0.686-0.904,1.175c-0.189,0.489-0.286,1.306-0.286,2.453v3.125h-1.027v-4.088c0-0.963-0.06-1.618-0.18-1.964
			c-0.12-0.344-0.328-0.622-0.628-0.83c-0.297-0.208-0.653-0.312-1.063-0.312c-0.474,0-0.92,0.144-1.332,0.43
			c-0.415,0.286-0.72,0.672-0.918,1.157c-0.199,0.484-0.297,1.226-0.297,2.225v3.382h-1.027V212.571z"/>
		<path fill="#4E7F9D" d="M241.592,220.557v-11.069h1.027v4.455c0.431-0.527,0.914-0.922,1.443-1.185
			c0.535-0.261,1.12-0.393,1.755-0.393c1.131,0,2.094,0.41,2.893,1.23c0.8,0.819,1.199,1.813,1.199,2.984
			c0,1.155-0.403,2.141-1.209,2.959c-0.808,0.818-1.778,1.227-2.911,1.227c-0.651,0-1.241-0.141-1.769-0.419
			c-0.528-0.279-0.995-0.697-1.401-1.255v1.467H241.592z M245.702,219.772c0.572,0,1.1-0.14,1.582-0.421
			c0.484-0.283,0.868-0.678,1.154-1.187c0.285-0.507,0.429-1.047,0.429-1.614c0-0.568-0.144-1.11-0.434-1.624
			c-0.287-0.514-0.674-0.913-1.16-1.2c-0.485-0.287-1.004-0.431-1.557-0.431c-0.56,0-1.095,0.144-1.6,0.431
			s-0.894,0.671-1.164,1.156c-0.272,0.484-0.408,1.03-0.408,1.637c0,0.925,0.306,1.699,0.914,2.32
			C244.065,219.463,244.813,219.772,245.702,219.772z"/>
		<path fill="#4E7F9D" d="M251.591,209.282c0.233,0,0.434,0.082,0.6,0.249s0.248,0.368,0.248,0.602c0,0.23-0.082,0.43-0.248,0.596
			s-0.366,0.249-0.6,0.249c-0.23,0-0.427-0.083-0.593-0.249c-0.165-0.166-0.248-0.365-0.248-0.596c0-0.234,0.083-0.435,0.248-0.602
			C251.164,209.364,251.36,209.282,251.591,209.282z M251.081,212.571h1.027v7.986h-1.027V212.571z"/>
		<path fill="#4E7F9D" d="M260.365,217.908l0.866,0.456c-0.284,0.557-0.611,1.008-0.985,1.351c-0.371,0.343-0.79,0.603-1.256,0.782
			c-0.465,0.178-0.993,0.269-1.579,0.269c-1.303,0-2.323-0.427-3.058-1.283c-0.734-0.854-1.104-1.817-1.104-2.896
			c0-1.014,0.313-1.916,0.934-2.708c0.789-1.009,1.846-1.513,3.168-1.513c1.361,0,2.449,0.517,3.264,1.548
			c0.577,0.73,0.87,1.642,0.88,2.733h-7.188c0.02,0.927,0.317,1.688,0.889,2.282c0.575,0.593,1.283,0.889,2.125,0.889
			c0.407,0,0.804-0.069,1.188-0.213c0.385-0.14,0.712-0.33,0.982-0.562C259.76,218.808,260.051,218.43,260.365,217.908z
			 M260.365,215.758c-0.137-0.55-0.337-0.987-0.6-1.315c-0.263-0.327-0.609-0.592-1.04-0.792c-0.431-0.202-0.884-0.302-1.359-0.302
			c-0.785,0-1.459,0.252-2.021,0.756c-0.413,0.368-0.725,0.917-0.934,1.653H260.365z"/>
		<path fill="#4E7F9D" d="M262.921,212.571h1.026v1.432c0.412-0.547,0.865-0.958,1.365-1.229c0.501-0.271,1.043-0.408,1.63-0.408
			c0.597,0,1.127,0.152,1.59,0.456c0.463,0.302,0.804,0.71,1.025,1.226c0.218,0.513,0.329,1.315,0.329,2.4v4.11h-1.027v-3.809
			c0-0.921-0.039-1.535-0.115-1.842c-0.119-0.53-0.349-0.926-0.685-1.194c-0.337-0.267-0.779-0.401-1.323-0.401
			c-0.621,0-1.179,0.206-1.669,0.617c-0.492,0.412-0.817,0.921-0.973,1.528c-0.1,0.396-0.147,1.122-0.147,2.173v2.928h-1.026
			V212.571z"/>
		<path fill="#4E7F9D" d="M272.234,209.604h1.027v2.967h1.63v0.889h-1.63v7.097h-1.027v-7.097h-1.401v-0.889h1.401V209.604z"/>
		<path fill="#4E7F9D" d="M283.852,212.571v7.986h-1.014v-1.372c-0.431,0.525-0.913,0.917-1.448,1.182
			c-0.537,0.265-1.122,0.397-1.761,0.397c-1.129,0-2.094-0.411-2.895-1.23c-0.803-0.82-1.201-1.818-1.201-2.992
			c0-1.151,0.404-2.134,1.212-2.952c0.806-0.817,1.779-1.226,2.913-1.226c0.658,0,1.25,0.139,1.781,0.419
			c0.532,0.278,0.998,0.698,1.398,1.255v-1.469H283.852z M279.743,213.356c-0.572,0-1.1,0.141-1.583,0.422
			c-0.485,0.281-0.87,0.676-1.155,1.185c-0.286,0.507-0.43,1.045-0.43,1.612c0,0.563,0.144,1.101,0.434,1.615
			c0.287,0.513,0.676,0.911,1.161,1.199c0.485,0.285,1.011,0.428,1.565,0.428c0.564,0,1.096-0.141,1.6-0.425
			c0.503-0.283,0.892-0.667,1.161-1.153c0.272-0.483,0.408-1.027,0.408-1.634c0-0.924-0.305-1.696-0.913-2.316
			C281.382,213.668,280.633,213.356,279.743,213.356z"/>
		<path fill="#4E7F9D" d="M285.448,209.488h1.028v11.069h-1.028V209.488z"/>
	</g>
	<g id="_x2C__copy_2_2_" opacity="0.75">
		<g>
			<path fill="#4E7F9D" d="M212.533,56.707c-16.917-6.638-33.069-6.211-48.457,1.275c-13.407,5.962-23.743,18.202-31.006,36.712
				l-9.722,24.776l0.485,1.112c16.915,6.637,33.071,6.211,48.458-1.275c13.353-5.827,23.688-18.063,31.006-36.712l9.721-24.776
				L212.533,56.707z"/>
		</g>
	</g>
	<g id="_x2C__copy_2_" opacity="0.75">
		<g>
			<path fill="#7CAC39" d="M199.157,41.18c-17.856-3.379-33.647,0.043-47.376,10.26c-12.064,8.348-19.945,22.296-23.641,41.836
				l-4.947,26.151l0.685,1.003c17.853,3.378,33.647-0.044,47.375-10.261c12.038-8.208,19.918-22.151,23.641-41.836l4.948-26.151
				L199.157,41.18z"/>
		</g>
	</g>
	<g id="_x2C__2_" opacity="0.75">
		<g>
			<path fill="#5A973A" d="M183.129,28.406c-18.173,0-33.053,6.299-44.644,18.888c-10.303,10.448-15.453,25.616-15.453,45.502
				v26.614l0.858,0.858c18.169,0,33.053-6.297,44.644-18.887c10.303-10.302,15.454-25.467,15.454-45.501V29.266L183.129,28.406z"/>
		</g>
	</g>
	<g>
		<circle fill="none" stroke="#2B659A" stroke-miterlimit="10" cx="310.631" cy="137.892" r="8.74"/>
		<path fill="none" stroke="#2B659A" stroke-width="2" stroke-miterlimit="10" d="M307.577,143.199v-10.375h5.25
			c0,0,2.966,2.354,0.25,5.069h-5.5"/>
		<path fill="none" stroke="#2B659A" stroke-width="2" stroke-miterlimit="10" d="M313.077,137.893c0,0,1.124,0.806,1.146,1.681
			c0.021,0.875,0,3.625,0,3.625"/>
		
			<line fill="none" stroke="#2B659A" stroke-width="0.5" stroke-miterlimit="10" x1="313.223" y1="143.027" x2="315.618" y2="143.027"/>
	</g>
</g>
</svg>
