<?xml version="1.0" encoding="utf-8"?>
<!-- Generator: Adobe Illustrator 19.0.0, SVG Export Plug-In . SVG Version: 6.00 Build 0)  -->
<svg version="1.1" id="Capa_1" xmlns="http://www.w3.org/2000/svg" xmlns:xlink="http://www.w3.org/1999/xlink" x="0px" y="0px"
	 viewBox="0 0 660.7 348" style="enable-background:new 0 0 660.7 348;" xml:space="preserve">
<style type="text/css">
	.st0{fill:#175929;}
	.st1{fill:#0F7C35;}
	.st2{fill:#037CA3;}
	.st3{fill:#03629D;}
	.st4{fill:#004987;}
	.st5{fill:#12769A;}
	.st6{fill:#010102;}
	.st7{fill:#FFFFFF;}
	.st8{fill:url(#SVGID_1_);}
	.st9{fill:#00799A;}
	.st10{fill:#46A63B;}
	.st11{fill:#10903E;}
</style>
<g>
	<g>
		<path class="st0" d="M0,231.3h22.8c13.1,0,21.9,0.6,26.5,1.7c6.5,1.6,11.9,4.9,16,9.9c4.2,5,6.2,11.3,6.2,18.9
			c0,7.6-2,13.9-6.1,18.9c-4,5-9.6,8.3-16.7,10c-5.2,1.2-14.9,1.9-29.1,1.9h-8.2v53.3H0V231.3z M11.4,242.6v38.8l19.4,0.2
			c7.8,0,13.6-0.7,17.2-2.1c3.6-1.4,6.5-3.7,8.6-6.9c2.1-3.2,3.1-6.7,3.1-10.7c0-3.8-1-7.3-3.1-10.5c-2.1-3.2-4.8-5.5-8.2-6.8
			c-3.4-1.3-9-2-16.7-2H11.4z"/>
		<path class="st0" d="M156,317.8l9.2,4.8c-3,5.9-6.5,10.7-10.4,14.3c-3.9,3.6-8.4,6.4-13.3,8.3c-4.9,1.9-10.5,2.8-16.8,2.8
			c-13.8,0-24.6-4.5-32.4-13.6c-7.8-9.1-11.7-19.3-11.7-30.7c0-10.7,3.3-20.3,9.9-28.7c8.4-10.7,19.6-16,33.6-16
			c14.4,0,26,5.5,34.6,16.4c6.1,7.7,9.2,17.4,9.4,29H91.8c0.2,9.8,3.4,17.9,9.4,24.2c6.1,6.3,13.6,9.4,22.5,9.4
			c4.3,0,8.5-0.7,12.6-2.2c4.1-1.5,7.5-3.5,10.4-6C149.6,327.3,152.7,323.3,156,317.8z M156,295c-1.5-5.8-3.6-10.5-6.4-13.9
			c-2.8-3.5-6.5-6.3-11-8.4c-4.6-2.1-9.4-3.2-14.4-3.2c-8.3,0-15.5,2.7-21.4,8c-4.4,3.9-7.7,9.7-9.9,17.5H156z"/>
		<path class="st1" d="M189.8,229.7h10.9v31.5H218v9.4h-17.3v75.3h-10.9v-75.3h-14.9v-9.4h14.9V229.7z"/>
		<path class="st1" d="M222.3,261.2h11.1v12.4c3.3-4.9,6.8-8.5,10.5-10.9c3.7-2.4,7.5-3.6,11.5-3.6c3,0,6.2,1,9.7,2.9l-5.7,9.2
			c-2.3-1-4.2-1.5-5.8-1.5c-3.6,0-7.1,1.5-10.5,4.5c-3.4,3-5.9,7.6-7.7,13.9c-1.4,4.8-2,14.6-2,29.3v28.6h-11.1V261.2z"/>
		<path class="st1" d="M306.5,259c13,0,23.9,4.7,32.4,14.2c7.8,8.6,11.7,18.8,11.7,30.6c0,11.8-4.1,22.2-12.4,31
			c-8.2,8.8-18.8,13.3-31.8,13.3c-13,0-23.6-4.4-31.9-13.3c-8.2-8.8-12.4-19.2-12.4-31c0-11.7,3.9-21.9,11.7-30.5
			C282.5,263.7,293.4,259,306.5,259z M306.4,269.6c-9.1,0-16.9,3.3-23.4,10c-6.5,6.7-9.8,14.8-9.8,24.3c0,6.1,1.5,11.8,4.5,17.1
			c3,5.3,7,9.4,12,12.3c5.1,2.9,10.6,4.3,16.6,4.3c6,0,11.6-1.4,16.6-4.3c5.1-2.9,9.1-7,12-12.3c3-5.3,4.5-11,4.5-17.1
			c0-9.5-3.3-17.6-9.8-24.3S315.4,269.6,306.4,269.6z"/>
		<path class="st2" d="M362.7,233.5h22.8c13.1,0,21.9,0.6,26.5,1.7c6.5,1.6,11.9,4.9,16,9.9c4.2,5,6.2,11.3,6.2,18.9
			c0,7.6-2,13.9-6.1,18.9c-4,5-9.6,8.3-16.7,10c-5.2,1.2-14.9,1.9-29.1,1.9h-8.2V348h-11.4V233.5z M374.2,244.7v38.8l19.4,0.2
			c7.8,0,13.6-0.7,17.2-2.1c3.6-1.4,6.5-3.7,8.6-6.9c2.1-3.2,3.1-6.7,3.1-10.7c0-3.8-1-7.3-3.1-10.5c-2.1-3.2-4.8-5.5-8.2-6.8
			c-3.4-1.3-9-2-16.7-2H374.2z"/>
		<path class="st2" d="M446,261.2h10.9v39.5c0,9.7,0.5,16.3,1.6,19.9c1.6,5.2,4.5,9.3,8.9,12.3c4.4,3,9.6,4.5,15.7,4.5
			c6.1,0,11.2-1.5,15.5-4.4c4.2-2.9,7.2-6.8,8.8-11.6c1.1-3.3,1.6-10.2,1.6-20.8v-39.5h11.1v41.6c0,11.7-1.4,20.5-4.1,26.4
			c-2.7,5.9-6.8,10.5-12.3,13.9c-5.5,3.3-12.3,5-20.6,5c-8.3,0-15.1-1.7-20.7-5c-5.5-3.3-9.7-8-12.4-14c-2.7-6-4.1-15-4.1-27.1
			V261.2z"/>
		<path class="st3" d="M532.2,263.3h11.1v12.4c3.3-4.9,6.8-8.5,10.5-10.9c3.7-2.4,7.5-3.6,11.5-3.6c3,0,6.2,1,9.7,2.9l-5.7,9.2
			c-2.3-1-4.2-1.5-5.8-1.5c-3.6,0-7.1,1.5-10.5,4.5c-3.4,3-5.9,7.6-7.7,13.9c-1.4,4.8-2,14.6-2,29.3V348h-11.1V263.3z"/>
		<path class="st3" d="M660.7,261.2v84.7H650v-14.6c-4.6,5.6-9.7,9.7-15.4,12.5c-5.7,2.8-11.9,4.2-18.6,4.2c-12,0-22.2-4.3-30.7-13
			c-8.5-8.7-12.7-19.3-12.7-31.7c0-12.2,4.3-22.6,12.8-31.3c8.6-8.7,18.9-13,30.9-13c7,0,13.2,1.5,18.9,4.4
			c5.6,3,10.6,7.4,14.8,13.3v-15.6H660.7z M617.2,269.5c-6.1,0-11.7,1.5-16.8,4.5c-5.1,3-9.2,7.2-12.2,12.6
			c-3,5.4-4.5,11.1-4.5,17.1c0,6,1.5,11.7,4.6,17.1c3.1,5.4,7.2,9.7,12.3,12.7c5.2,3,10.7,4.5,16.6,4.5c6,0,11.6-1.5,17-4.5
			c5.3-3,9.4-7.1,12.3-12.2c2.9-5.1,4.3-10.9,4.3-17.3c0-9.8-3.2-18-9.7-24.6C634.5,272.8,626.6,269.5,617.2,269.5z"/>
	</g>
	<g>
		<g>
			<path class="st4" d="M329.1,12c-52.7,0-95.5,42.7-95.5,95.5s42.7,95.5,95.5,95.5s95.5-42.7,95.5-95.5S381.8,12,329.1,12z
				 M329.1,197.3c-49.6,0-89.8-40.2-89.8-89.8s40.2-89.8,89.8-89.8s89.8,40.2,89.8,89.8S378.7,197.3,329.1,197.3z"/>
			<g>
				<g>
					<path class="st5" d="M329.3,77c-19.8,0-39.8,4.6-51.8,12.6c-7.3,4.9-11.9,12.1-11.9,17.7c0-6.2,3.8-13.9,10.8-19
						c11.7-8.5,32.1-13.4,52.9-13.4"/>
				</g>
				<g>
					<path class="st5" d="M329.3,77c19.8,0,39.8,4.6,51.8,12.6c7.3,4.9,11.9,12.1,11.9,17.7c0-6.2-4-13.7-10.9-18.8
						c-11.7-8.5-31.9-13.6-52.7-13.6"/>
				</g>
				<g>
					<path class="st5" d="M329.3,137.6c-19.8,0-39.8-4.6-51.8-12.6c-7.3-4.9-11.9-11.9-11.9-17.7c0,6.2,8.8,26.7,15.8,31.8
						c5.3,3.9,9.9,6.7,16,8.4c7.9,2.2,17.5-0.4,26.3,7"/>
				</g>
				<g>
					<path class="st5" d="M329.3,137.6c19.8,0,39.8-4.6,51.8-12.6c7.3-4.9,11.9-11.9,11.9-17.7c0,6.2-8.8,26.7-15.8,31.8
						c-5.3,3.9-9.9,6.7-16,8.4c-7.9,2.2-17.5-0.4-26.3,7"/>
				</g>
				<path class="st5" d="M329.3,186.8c-3.3,0-6.8-1.4-8.5-3.9c-2-2.9-1.8-8.1,0.5-11.1c1.4-1.8,2.1-3.3,3.3-5.3
					c1.8-3.2,2.1-6.2,0.7-9.6c-0.4-1.1-0.7-1.5-1.6-2.5c-0.9-1,5.5-16.9,5.5-16.9s6.1,16.1,5.5,16.9c-0.6,0.9-1.4,1.9-1.6,2.5
					c-1.4,3.4-1.3,6.4,0.7,9.6c1.2,2,1.9,3.5,3.3,5.3c2.3,2.9,2.5,8.2,0.5,11.1C336,185.4,332.6,186.9,329.3,186.8"/>
			</g>
			<g>
				<g>
					<g>
						<path class="st4" d="M329.3,84.5c14.9,0,29.9,3.4,38.9,9.5c5.5,3.7,8.9,8.8,8.9,13.3c0-4.6-3-10.3-8.3-14.1
							c-8.8-6.4-23.9-10.2-39.6-10.2"/>
					</g>
					<g>
						<path class="st4" d="M329.3,130c14.9,0,29.9-3.4,38.9-9.5c5.5-3.7,8.9-9.1,8.9-13.3c0,4.7-3,10.3-8.3,14.1
							c-8.8,6.4-23.9,10.1-39.6,10.1"/>
					</g>
				</g>
				<g>
					<g>
						<path class="st4" d="M329.3,84.5c-14.9,0-29.9,3.4-38.9,9.5c-5.5,3.7-8.9,8.8-8.9,13.3c0-4.6,2.9-10.3,8.2-14.2
							c8.8-6.4,24-10.1,39.6-10.1"/>
					</g>
					<g>
						<path class="st4" d="M329.3,130c-14.9,0-29.9-3.4-38.9-9.5c-5.5-3.7-8.9-9.1-8.9-13.3c0,4.7,3,10.2,8.3,14.1
							c8.8,6.4,23.9,10.1,39.5,10.1"/>
					</g>
				</g>
			</g>
			<g>
				<g>
					<g>
						<path class="st6" d="M329.3,92.1c9.9,0,19.9,2.3,25.9,6.3c3.6,2.4,5.9,5.9,5.9,8.8c0-3.3-2.1-6.7-5.6-9.3
							c-5.8-4.3-15.8-6.8-26.2-6.8"/>
					</g>
					<g>
						<path class="st6" d="M329.3,122.4c9.9,0,19.9-2.3,25.9-6.3c3.6-2.4,5.9-5.7,5.9-8.8c0,3.1-2.1,6.7-5.6,9.3
							c-5.8,4.3-15.9,6.9-26.4,6.9"/>
					</g>
				</g>
				<g>
					<g>
						<path class="st6" d="M329.3,92.1c-9.9,0-19.9,2.3-25.9,6.3c-3.6,2.4-5.9,5.9-5.9,8.8c0-3.3,2.1-6.7,5.6-9.3
							c5.8-4.3,15.8-6.8,26.2-6.8"/>
					</g>
					<g>
						<path class="st6" d="M329.3,122.4c-9.9,0-19.9-2.3-25.9-6.3c-3.6-2.4-5.9-5.7-5.9-8.8c0,3.1,2.1,6.7,5.6,9.3
							c5.8,4.3,15.7,6.9,26.1,6.9"/>
					</g>
				</g>
			</g>
			<g>
				<g>
					<path class="st6" d="M329.3,99.7c4.9,0,9.9,1.1,13,3.2c1.8,1.2,3,2.8,3,4.4c0-1.5-1.1-3.3-2.8-4.6c-2.9-2.1-7.9-3.4-13.1-3.4
						c-4.9,0-9.6,1.3-12.6,3.4c-1.9,1.3-3.4,3-3.4,4.6l0,0c0-1.6,1.5-3.2,3.5-4.4C319.9,100.9,324.7,99.7,329.3,99.7z"/>
				</g>
				<g>
					<path class="st6" d="M329.3,114.8c4.9,0,9.9-1.1,13-3.2c1.8-1.2,3-3,3-4.4c0.1,1.5-1.1,3.3-2.8,4.6c-2.9,2.1-7.9,3.4-13.1,3.4
						c-4.9,0-9.6-1.3-12.6-3.4c-1.9-1.3-3.4-2.8-3.4-4.6l0,0c0,1.4,1.5,3.2,3.5,4.4C319.9,113.7,324.7,114.8,329.3,114.8z"/>
				</g>
			</g>
			<path class="st6" d="M331.1,98.2c0-5.9-0.5-11-1.3-12.9c-0.2-0.5,0.4-1.5-0.7-1.5c-1.2,0-0.4,1-0.6,1.5
				c-0.8,1.9-1.3,6.9-1.3,12.9c0,3.3,1,6.4,0.5,8.7c-0.5,1.9-2.5,1.9-2.5,3.4c0,1.7,3.6,1.5,4,1.5c0.4,0,3.9-0.1,3.9-1.6
				c0-1.4-2.3-1.7-2.6-3.2C330.1,104.7,331.1,101.6,331.1,98.2z"/>
			<circle class="st6" cx="329.3" cy="82.2" r="2.4"/>
			<circle class="st6" cx="329.3" cy="70.7" r="2.4"/>
			<path class="st6" d="M320.3,29.7c3.8,1.1,6.7,2.8,9.2,5.1c3.9,3.5,7.2,7.4,8.8,12.5c1.3,4.2-0.2,8.8-3.6,11
				c-3.6,2.4-9.2,2.2-12.2-0.3c-2.7-2.3-3.7-7.5-2.3-10.9c0.9-2.1,1.8-4.1,2.7-6.2c1.5-3.4,1-6.6-1.2-9.6
				C321.4,30.9,321,30.5,320.3,29.7z"/>
			<path class="st7" d="M334.3,44.7c0,0,2.8,5.1,0.5,11.1C338.2,53.8,337.5,48.2,334.3,44.7z"/>
			<path class="st7" d="M334.3,172.1c0,0,2.8,5.1,0.5,11.1C338.2,181.2,337.5,175.6,334.3,172.1z"/>
		</g>
		
			<linearGradient id="SVGID_1_" gradientUnits="userSpaceOnUse" x1="270.7117" y1="636.2681" x2="493.7552" y2="636.2681" gradientTransform="matrix(0.866 0.5 -0.5 0.866 316.1772 -634.2069)">
			<stop  offset="0" style="stop-color:#FFFFFF;stop-opacity:0"/>
			<stop  offset="3.275490e-02" style="stop-color:#DFF0E5;stop-opacity:3.275490e-02"/>
			<stop  offset="8.418769e-02" style="stop-color:#B4DCC3;stop-opacity:8.418769e-02"/>
			<stop  offset="0.1412" style="stop-color:#8DCAA3;stop-opacity:0.1412"/>
			<stop  offset="0.2027" style="stop-color:#6BBA87;stop-opacity:0.2027"/>
			<stop  offset="0.2699" style="stop-color:#4EAD70;stop-opacity:0.2699"/>
			<stop  offset="0.3446" style="stop-color:#37A25E;stop-opacity:0.3446"/>
			<stop  offset="0.4304" style="stop-color:#269A4F;stop-opacity:0.4304"/>
			<stop  offset="0.5338" style="stop-color:#199445;stop-opacity:0.5338"/>
			<stop  offset="0.6728" style="stop-color:#129140;stop-opacity:0.6728"/>
			<stop  offset="1" style="stop-color:#10903E"/>
		</linearGradient>
		<path class="st8" d="M382.7,14.5C331.2-15.3,267.1,2.4,237.3,53.9s-13.9,117.5,37.6,147.2s121.1,14.4,150.9-37.1
			C455.6,112.5,434.3,44.2,382.7,14.5z M278,195.8c-48.6-28.1-66.8-91.8-38.7-140.4S331-8.3,379.7,19.8s65.3,90.2,37.2,138.9
			C388.8,207.2,326.6,223.9,278,195.8z"/>
		<g>
			<g id="_x2C__copy_2_15_">
				<g id="XMLID_23_">
					<path id="XMLID_24_" class="st9" d="M436.6,155.3c-12.7-5-24.9-4.7-36.5,1c-10.1,4.5-17.9,13.7-23.4,27.7l-7.3,18.7l0.4,0.8
						c12.7,5,24.9,4.7,36.5-1c10.1-4.4,17.8-13.6,23.4-27.7l7.3-18.7L436.6,155.3z"/>
				</g>
			</g>
			<g id="_x2C__copy_15_">
				<g id="XMLID_19_">
					<path id="XMLID_20_" class="st10" d="M426.6,143.6c-13.4-2.5-25.3,0-35.7,7.7c-9.1,6.3-15,16.8-17.8,31.5l-3.7,19.7l0.5,0.8
						c13.4,2.5,25.3,0,35.7-7.7c9.1-6.2,15-16.7,17.8-31.5l3.7-19.7L426.6,143.6z"/>
				</g>
			</g>
			<g id="_x2C__15_">
				<g id="XMLID_15_">
					<path id="XMLID_16_" class="st11" d="M414.5,134c-13.7,0-24.9,4.7-33.6,14.2c-7.8,7.9-11.6,19.3-11.6,34.3v20l0.6,0.6
						c13.7,0,24.9-4.7,33.6-14.2c7.8-7.8,11.6-19.2,11.6-34.3v-20L414.5,134z"/>
				</g>
			</g>
		</g>
	</g>
</g>
</svg>
