<?xml version="1.0" encoding="utf-8"?>
<!-- Generator: Adobe Illustrator 19.0.0, SVG Export Plug-In . SVG Version: 6.00 Build 0)  -->
<svg version="1.1" id="Capa_1" xmlns="http://www.w3.org/2000/svg" xmlns:xlink="http://www.w3.org/1999/xlink" x="0px" y="0px"
	 viewBox="0 0 337.3 336.2" style="enable-background:new 0 0 337.3 336.2;" xml:space="preserve">
<style type="text/css">
	.st0{fill-rule:evenodd;clip-rule:evenodd;fill:#0F4A7D;}
	.st1{fill-rule:evenodd;clip-rule:evenodd;fill:#559042;}
	.st2{fill-rule:evenodd;clip-rule:evenodd;fill:#73A642;}
	.st3{fill-rule:evenodd;clip-rule:evenodd;fill:#497A97;}
	.st4{fill-rule:evenodd;clip-rule:evenodd;fill:#5A9046;}
	.st5{fill-rule:evenodd;clip-rule:evenodd;fill:#62934C;}
	.st6{fill-rule:evenodd;clip-rule:evenodd;fill:#789663;}
	.st7{fill-rule:evenodd;clip-rule:evenodd;fill:#719B5B;}
	.st8{fill-rule:evenodd;clip-rule:evenodd;fill:#CBD5BE;}
	.st9{fill-rule:evenodd;clip-rule:evenodd;fill:#9FAE8E;}
	.st10{fill-rule:evenodd;clip-rule:evenodd;fill:#89A772;}
	.st11{fill-rule:evenodd;clip-rule:evenodd;fill:#EAECE7;}
	.st12{fill-rule:evenodd;clip-rule:evenodd;fill:#B5C5A4;}
	.st13{fill-rule:evenodd;clip-rule:evenodd;fill:#F6F7F4;}
	.st14{fill-rule:evenodd;clip-rule:evenodd;fill:#DEE1D8;}
	.st15{fill-rule:evenodd;clip-rule:evenodd;fill:#88807B;stroke:#000000;stroke-width:0.2684;stroke-miterlimit:10;}
	
		.st16{fill-rule:evenodd;clip-rule:evenodd;fill:#88807B;stroke:#706F6F;stroke-width:0.5369;stroke-linejoin:bevel;stroke-miterlimit:10;}
	
		.st17{fill-rule:evenodd;clip-rule:evenodd;fill:#88807B;stroke:#706F6F;stroke-width:0.8053;stroke-linejoin:bevel;stroke-miterlimit:10;}
	
		.st18{fill-rule:evenodd;clip-rule:evenodd;fill:#6F6965;stroke:#000000;stroke-width:0.2684;stroke-linejoin:round;stroke-miterlimit:10;}
	
		.st19{fill-rule:evenodd;clip-rule:evenodd;fill:#99908A;stroke:#000000;stroke-width:0.2684;stroke-linejoin:round;stroke-miterlimit:10;}
	.st20{fill-rule:evenodd;clip-rule:evenodd;fill:#88807B;stroke:#000000;stroke-width:0.2013;stroke-miterlimit:10;}
	
		.st21{fill-rule:evenodd;clip-rule:evenodd;fill:#6F6965;stroke:#000000;stroke-width:0.2013;stroke-linejoin:round;stroke-miterlimit:10;}
	
		.st22{fill-rule:evenodd;clip-rule:evenodd;fill:#99908A;stroke:#000000;stroke-width:0.2013;stroke-linejoin:round;stroke-miterlimit:10;}
	
		.st23{fill-rule:evenodd;clip-rule:evenodd;fill:#615C58;stroke:#000000;stroke-width:0.2013;stroke-linejoin:round;stroke-miterlimit:10;}
	.st24{fill-rule:evenodd;clip-rule:evenodd;fill:none;stroke:#575756;stroke-width:0.8053;stroke-miterlimit:10;}
	.st25{fill-rule:evenodd;clip-rule:evenodd;fill:none;stroke:#575756;stroke-width:1.0738;stroke-miterlimit:10;}
	.st26{fill-rule:evenodd;clip-rule:evenodd;fill:none;stroke:#575756;stroke-width:1.1984;stroke-miterlimit:10;}
	.st27{fill-rule:evenodd;clip-rule:evenodd;fill:none;stroke:#575756;stroke-width:1.5163;stroke-miterlimit:10;}
	.st28{fill-rule:evenodd;clip-rule:evenodd;fill:none;stroke:#575756;stroke-width:1.8397;stroke-miterlimit:10;}
	.st29{fill:none;stroke:#575756;stroke-width:1.6107;stroke-miterlimit:10;}
	.st30{fill:none;stroke:#575756;stroke-width:1.9314;stroke-miterlimit:10;}
	.st31{fill:none;stroke:#575756;stroke-width:2.1053;stroke-miterlimit:10;}
	.st32{fill:none;stroke:#575756;stroke-width:2.182;stroke-miterlimit:10;}
	.st33{fill:none;stroke:#575756;stroke-width:1.6491;stroke-miterlimit:10;}
	.st34{fill:none;stroke:#575756;stroke-width:1.9495;stroke-miterlimit:10;}
	.st35{fill:none;stroke:#575756;stroke-width:1.6107;stroke-linecap:round;stroke-miterlimit:10;}
	.st36{fill:none;stroke:#575756;stroke-width:1.6065;stroke-linecap:round;stroke-miterlimit:10;}
	.st37{fill:none;stroke:#575756;stroke-width:1.6046;stroke-linecap:round;stroke-miterlimit:10;}
	.st38{fill:none;stroke:#575756;stroke-width:1.6049;stroke-linecap:round;stroke-miterlimit:10;}
	.st39{fill:none;stroke:#575756;stroke-width:1.5998;stroke-linecap:round;stroke-miterlimit:10;}
	.st40{fill:none;stroke:#575756;stroke-width:1.6226;stroke-linecap:round;stroke-miterlimit:10;}
	.st41{fill:none;stroke:#575756;stroke-width:1.6106;stroke-miterlimit:10;}
	.st42{fill:none;stroke:#575756;stroke-width:1.6094;stroke-linecap:round;stroke-miterlimit:10;}
	.st43{fill:none;stroke:#575756;stroke-width:1.5858;stroke-linecap:round;stroke-miterlimit:10;}
</style>
<g>
	<path class="st0" d="M228.4,302.1c-11,4.8-22.3,8.8-34.2,10.9c-46.2,8.2-87.7-2.3-123.8-32.3c-29.5-24.5-46.9-56.4-51.7-94.4
		c-5.2-41.4,5-79.1,31.3-111.7c27.7-34.5,64-53.3,108.3-55.7c41.8-2.2,78.3,11.2,109,39.6c26.1,24.1,41.3,54.1,46.1,89.2
		c3.2,23.8,0.6,47.1-7.5,69.7c-0.5,1.4-0.8,2.8-1.3,4.2c-1.3,0.1-2.5,0.2-3.8,0.2c-1.1-1-0.6-2.3-0.7-3.5c-0.3-3.2,0.5-6.6-0.5-9.8
		c3.5-9.8,5.3-20,5.9-30.3c0.8-12.4,0.6-24.8-1.8-37c-3.1-15.1-8-29.5-15.7-42.9c-8.4-14.8-18.9-27.8-32-38.6
		c-10.5-8.7-21.9-15.9-34.5-21.2c-14.1-6-28.8-10-44.1-10.9c-10.5-0.7-21-0.6-31.6,1c-13.8,2-26.9,5.9-39.4,11.8
		C85.9,50.2,68.6,63.9,54.8,82C43,97.5,34.8,114.7,30,133.5c-3.6,14-4.3,28.3-3.7,42.6c0.3,8.9,1.9,17.7,4.1,26.4
		c3.5,13.3,8.7,25.9,15.9,37.6c8.1,13.1,17.8,24.9,29.7,34.6c10.2,8.4,21.3,15.3,33.4,20.7c14.7,6.4,29.9,10.4,45.8,11.4
		c10.1,0.7,20.2,0.5,30.3-1c15-2.2,29.2-6.6,42.8-13.1C228.3,295.8,228.4,299,228.4,302.1z"/>
	<path class="st1" d="M228.4,302.1c0-3.2,0-6.3,0-9.5c0.2-7.7,0.3-15.5,1.2-23.2c2-16.1,8-30.1,20-41.5c14.1-13.5,30.8-19.3,50-19.3
		c1,3.2,0.2,6.5,0.5,9.8c0.1,1.2-0.5,2.5,0.7,3.5c-0.8,1.1-0.6,2.4-0.6,3.6c-0.1,10.5,0.4,21.1-1.2,31.6c-1.4,8.8-3.8,17.3-8.2,25.2
		c-3.8,6.8-9,12.3-14.7,17.4c-8.5,7.6-18.4,12.5-29.6,14.8c-4.9,1-9.9,1.6-14.9,2.3c-0.2,0.1-0.4,0.1-0.6,0.2
		c-0.3-0.3-0.7-0.6-1.3-0.2c0.6,0.1,1,0.1,1.4,0.2c3.5,2.1,7.4,3,11.3,3.8c-13.1,6-26.8,10-40.9,12.5c-8.8,1.6-17.5,2.3-26.4,2.9
		c0.8-4.1,3.6-7.2,5.5-10.7c12.5-1.7,24.9-3.9,36.9-8.2c0.3-0.1,0.6-0.1,0.9-0.3c3.3-1.4,8-1.5,9.6-4.4
		C229.4,309.8,228.3,305.7,228.4,302.1z"/>
	<path class="st1" d="M311.5,222.7c1.9,0.3,2.7-0.7,3.3-2.4c4.6-13.9,7.6-28.1,8.6-42.8c0.5-8,0.4-15.9-0.3-23.8
		c-1.5-16.4-5.5-32.2-11.7-47.4c-7.2-17.6-17.7-33.2-30.4-47.2c0-0.2-0.1-0.4-0.3-0.5c-0.2,0-0.4-0.2-0.4-0.4c0,0-0.2-0.2-0.2-0.2
		c-0.1-0.1-0.3-0.3-0.4-0.4c0,0-0.2-0.2-0.2-0.2c-0.1-0.1-0.3-0.3-0.4-0.4l-0.2-0.2c-0.1-0.1-0.3-0.3-0.4-0.4c0,0-0.2-0.2-0.2-0.2
		c-0.2,0-0.3-0.1-0.3-0.4c0-0.7,0-1.9,1-1.1c2.7,2,4.1,0.4,5.4-1.8c0.4-0.7,0.8-1.5,1.6-1.8c9.8,10,18.5,20.9,25.6,33
		c10.1,17,17.7,35.1,21.7,54.6c1.9,9.1,3.1,18.3,3.8,27.6c0.8,10.5-0.1,20.9-1.3,31.3c-1.6,13.6-5.4,26.6-10.4,39.3
		c-0.2,0.6-0.3,1.2-0.4,1.8c-2.9-0.6-5.7-1.1-8.6-1.7c0.6-3,1.2-6,1.7-9c0.7-4,0.1-4.8-3.9-4.9C313.3,222.9,312.4,222.7,311.5,222.7
		z"/>
	<path class="st2" d="M311.5,222.7c0.9,0.1,1.8,0.2,2.7,0.3c4,0.1,4.6,0.9,3.9,4.9c-0.6,3-1.1,6-1.7,9c-0.2,0.6-0.5,1.1-0.6,1.7
		c-1.9,9.1-3.2,18.2-5.6,27.2c-5.5,20.5-17.1,36.1-36.4,45.4c-13.4,6.4-27.5,8.4-42.1,5.6c5-0.8,10-1.3,14.9-2.3
		c11.1-2.3,21-7.2,29.6-14.8c5.7-5.1,10.9-10.6,14.7-17.4c4.4-7.9,6.8-16.3,8.2-25.2c1.7-10.5,1.1-21,1.2-31.6
		c0-1.2-0.2-2.5,0.6-3.6c1.3-0.1,2.5-0.2,3.8-0.2C306.8,222,309.1,222.3,311.5,222.7z"/>
	<path class="st3" d="M231.6,316.8c14.7,2.8,28.8,0.8,42.1-5.6c19.4-9.3,31-24.9,36.4-45.4c2.4-9,3.7-18.1,5.6-27.2
		c0.1-0.6,0.4-1.2,0.6-1.7c2.9,0.6,5.7,1.1,8.6,1.7c1.7,1.9,4.2,1.9,6.4,2.6c2.1,0.7,2.3,1.9,1.6,3.4c-5.6,13.2-9.8,27-16.5,39.8
		c-10.2,19.5-26,31.6-47.5,36.1c-7.4,1.6-15,1.9-22.6,0.2c-1.3-0.3-2.7-0.1-4-0.1c-3.9-0.8-7.8-1.7-11.3-3.8l0,0
		C231.2,316.9,231.4,316.9,231.6,316.8z"/>
	<path class="st4" d="M180.5,325.4c-2,3.5-4.7,6.6-5.5,10.7c-23.8,0.4-47-3.2-69.2-12.2c1.7-2.5,1.8-6,5-7.6c0.5,0.2,1,0.3,1.4,0.5
		c0.1,0.1,0.2,0.1,0.4,0.2c0.5,0.2,1,0.3,1.5,0.5c0.1,0.1,0.2,0.1,0.3,0.1c0.5,0.2,1,0.3,1.5,0.5c0.1,0.1,0.2,0.1,0.3,0.1
		c0.5,0.2,1,0.3,1.5,0.5c0.1,0.1,0.2,0.1,0.3,0.1c0.5,0.1,1,0.3,1.5,0.4c0.1,0.1,0.3,0.2,0.4,0.2c0.5,0.1,1,0.3,1.4,0.4
		c0.3,0.1,0.6,0.2,1,0.2c10.8,2.7,21.7,4.8,32.9,5.5c6.5,0.4,13,0.4,19.5,0C176.8,325.6,178.6,325,180.5,325.4z"/>
	<path class="st5" d="M285.9,51.1c-0.9,0.3-1.2,1.1-1.6,1.8c-1.3,2.2-2.6,3.7-5.4,1.8c-1.1-0.8-1,0.4-1,1.1c-4.7-4-9.2-8.2-14-12
		c-10.3-8.3-21.7-15-33.6-20.6c0,0,0.1,0,0.1,0c-0.2-0.1-0.3-0.2-0.4-0.3c0.3-2.8,2.8-2.5,4.4-2.7c2.2-0.1,4-0.6,5.5-2.1
		c8,3.1,15,7.9,22.1,12.7c8.3,5.6,15.6,12.5,23,19.2C285.3,50.2,285.6,50.7,285.9,51.1z"/>
	<path class="st5" d="M110.8,316.4c-3.2,1.5-3.3,5.1-5,7.6c-6.2-2.1-12.1-4.7-17.8-7.8c-9.2-5-18.1-10.5-26.2-17.2
		c-2-1.6-3.9-3.3-5.8-5c3.1-0.9,5.9-2.2,6.3-6c5.5,3.8,10.7,8.1,16.2,11.8C88.6,306.6,99.6,311.6,110.8,316.4z"/>
	<path class="st6" d="M62.3,288c-0.4,3.8-3.2,5.1-6.3,6c-10.4-8.3-18.6-18.6-26.3-29.3c-0.2-0.3-0.2-0.8-0.4-1.1
		c0.6-4.9-1.4-9.5-2.1-14.2c-0.2-1.3,0.1-1.9,0.9-2.6c0.7,0.6,1.1,1.3,1.2,2.2c0.1,0.2,0.3,0.5,0.4,0.7c4.9,7.3,10,14.4,15.8,21.1
		c4.4,5.1,9.2,9.7,14,14.3c0,0-0.1,0-0.1,0c0.2,0.2,0.4,0.4,0.7,0.6l0,0c0.2,0.2,0.4,0.4,0.6,0.6c0,0,0.1,0.1,0.1,0.1
		c0.2,0.2,0.3,0.3,0.5,0.5c0,0,0.1,0.1,0.1,0.1C61.8,287.1,62.2,287.4,62.3,288z"/>
	<path class="st7" d="M239.8,18.1c-1.6,1.4-3.4,1.9-5.5,2.1c-1.6,0.1-4.2-0.2-4.4,2.7c-6.7-2.2-13.2-5.2-20.1-7.1
		c-3.8-1-7.6-2.1-11.3-3.1c-0.1-0.1-0.2-0.1-0.3-0.1l-0.1,0c0.5-2,2.4-1.7,3.7-2.3c2.2-1.1,4.7-1.7,5.6-4.4
		c6.5,1.1,12.6,3.5,18.8,5.9C230.9,13.4,235.6,15.2,239.8,18.1z"/>
	<path class="st8" d="M115.2,8.7c9.2-3.4,18.8-5.6,28.5-6.9c1.7-0.2,3.4-0.8,5.2-0.5c-0.2,2.1-2.3,2.4-3.5,3.6
		c-1.7,1.6-4.5,2.2-4.7,5.2c-7.1,1.8-14.5,2.6-21.6,4.8c-3.1,1-6.3,1.8-9.5,2.6c-0.2-1.6,0.8-2.4,1.8-3.4
		C112.9,12.6,114.4,10.9,115.2,8.7z"/>
	<path class="st9" d="M21.7,251.6c-5.6-8.7-9.5-18.1-12.4-28c0.7-1.1,0.7-2.3,0.7-3.6c0-3.6,0-7.2,0-10.8c0-1-0.4-2.2,1.1-2.5
		c0,0,0.1,0.1,0.1,0.1c0,0.2,0.1,0.4,0.3,0.5c2.4,8.2,4.8,16.5,8.9,24.1c0.6,1.1,0.9,2.3,1.4,3.4c-1.8,0.3-1.2,1.8-1.1,2.7
		c0.4,3.5,1,6.9,1.5,10.3C22.4,249.2,22.9,250.5,21.7,251.6z"/>
	<path class="st10" d="M207.4,5.7c-0.9,2.7-3.4,3.3-5.6,4.4c-1.3,0.6-3.2,0.3-3.7,2.3c-8.1-1.2-16.3-2.3-24.4-3.5
		c0.1-1.8,1.6-2.4,2.9-3.2c2.2-1.2,4.6-2.2,5.9-4.6C190.9,1.9,199.3,3,207.4,5.7z"/>
	<path class="st11" d="M98.4,21.9c-7,4-14.5,7-21.2,11.4c-2.1,1.4-4.1,2.7-6.2,4c-0.2-1.3,0.8-2,1.3-3c1.6-2.8,5-4.2,5.5-7.6
		c6-4.6,12.6-8,19.4-11.1c2.6-1.2,5.1-2.8,8-3.3c0.1,1.1-0.8,1.6-1.3,2.3C102.4,17.4,99.2,18.8,98.4,21.9z"/>
	<path class="st12" d="M140.6,10.1c0.1-3,3-3.6,4.7-5.2c1.2-1.2,3.3-1.5,3.5-3.6c7.2-0.9,14.5-1.6,21.8-1.2c-0.8,2.6-3.2,3.5-5.1,5
		c-1.4,1.1-3.5,1.5-3.7,3.7C154.8,9.2,147.7,9.7,140.6,10.1z"/>
	<path class="st13" d="M77.8,26.8c-0.5,3.5-4,4.9-5.5,7.6c-0.5,1-1.5,1.7-1.3,3c-8.9,6.7-17.3,14-25,22.1c-0.7,0.7-1.5,2.1-2.5,1.2
		c-1-0.8,0.3-1.8,0.8-2.6C52.1,44.5,64.5,35.7,76.9,27C77.2,26.9,77.5,26.9,77.8,26.8z"/>
	<path class="st8" d="M5.5,211.2c-2.7-8.5-4-17.3-4.4-26.2c2.2-3.7,1.4-8.1,2.6-12.1c0.4-1.2,0.3-2.5,1.9-2.8
		C6,176,6.7,181.9,7,187.9c0.2,2.7,1.9,5.4,1.7,8.3c-1.1,0.1-1.1,0.9-1.2,1.8c-0.5,3.3-0.7,6.7-0.6,10.1
		C6.9,209.3,7,210.6,5.5,211.2z"/>
	<path class="st13" d="M2.5,142.6c1.6-9.5,3.2-19.1,7.5-27.9c3.1-6.3,5.6-12.9,9.4-18.9c0.6-0.9,1-1.8,1.6-2.6
		c0.4-0.6,0.6-1.9,1.7-1.2c0.7,0.5,0.1,1.3-0.3,1.9c-3,5.8-5.6,11.8-7.8,17.9c-2.6,7.2-4.5,14.6-6,22c-2.3-0.2-2.3,1.9-3.1,3.2
		C4.6,138.9,5,141.6,2.5,142.6z"/>
	<path class="st10" d="M21.7,251.6c1.2-1.1,0.7-2.4,0.5-3.7c-0.6-3.4-1.1-6.9-1.5-10.3c-0.1-1-0.6-2.4,1.1-2.7l0,0.1
		c0,0.2,0.1,0.4,0.3,0.5c0.1,0.3,0.2,0.6,0.3,1c0,0.1,0.1,0.2,0.1,0.4c0.2,0.4,0.4,0.9,0.6,1.3c0.2,0.2,0.3,0.4,0.5,0.6
		c1.5,2.7,3.5,5.2,4.5,8.2c-0.8,0.7-1.1,1.3-0.9,2.6c0.8,4.7,2.7,9.3,2.1,14.2C26,260,23.8,255.8,21.7,251.6z"/>
	<path class="st11" d="M2.5,142.6c2.5-1,2.1-3.7,3.2-5.5c0.8-1.3,0.7-3.4,3.1-3.2c-1.3,5.7-1.7,11.5-2.5,17.2
		c-0.1,0.9-0.2,1.8-0.6,2.7c-2.5,1.2-1.8,3.9-2.5,5.9c-0.8,2.6-1,5.3-3.1,7.2C0.5,158.8,1,150.7,2.5,142.6z"/>
	<path class="st9" d="M161.9,8.8c0.2-2.2,2.3-2.6,3.7-3.7c1.9-1.5,4.3-2.3,5.1-5c3.9,0.7,7.9,0.1,11.8,1.1c-1.3,2.4-3.7,3.4-5.9,4.6
		c-1.3,0.7-2.8,1.3-2.9,3.2C169.7,9.6,165.8,8.5,161.9,8.8z"/>
	<path class="st14" d="M0.1,166.9c2.2-1.9,2.4-4.7,3.1-7.2c0.6-2-0.1-4.6,2.5-5.9c0,5.4,0,10.8,0,16.2c-1.6,0.3-1.5,1.6-1.9,2.8
		c-1.2,4-0.4,8.4-2.6,12.1C0.1,179-0.1,173,0.1,166.9z"/>
	<path class="st12" d="M5.5,211.2c1.5-0.6,1.4-1.9,1.4-3.1c-0.1-3.4,0.1-6.7,0.6-10.1c0.1-0.9,0.1-1.7,1.2-1.8
		c-0.1,2.5,0.9,4.7,1.8,7c0.4,1.1,0.9,2.3,0.6,3.6c-1.5,0.3-1.1,1.5-1.1,2.5c0,3.6,0,7.2,0,10.8c0,1.2,0.1,2.5-0.7,3.6
		C7.4,219.7,6.2,215.5,5.5,211.2z"/>
	<path class="st14" d="M98.4,21.9c0.8-3.2,4-4.5,5.5-7.1c0.4-0.8,1.4-1.3,1.3-2.3c3.2-1.6,6.5-2.9,10-3.7c-0.7,2.2-2.2,3.8-3.8,5.4
		c-0.9,1-2,1.8-1.8,3.4C106.1,19.6,102.1,20.4,98.4,21.9z"/>
	<path class="st10" d="M29.6,249.6c-0.1-0.2-0.3-0.5-0.4-0.7C29.9,248.8,29.5,249.4,29.6,249.6z"/>
	<path class="st5" d="M122.5,320.1c-0.3-0.1-0.6-0.2-1-0.2C122,319.7,122.3,319.8,122.5,320.1z"/>
	<path class="st10" d="M198.2,12.5c0.1,0,0.2,0,0.3,0.1c0,0-0.2,0.1-0.2,0.1L198.2,12.5z"/>
	<path class="st7" d="M230.3,23.1c0,0-0.1,0-0.1,0C230.2,23.1,230.3,23.1,230.3,23.1z"/>
	<path class="st5" d="M278.1,56.1c0,0,0.2,0.2,0.2,0.2C278,56.5,277.9,56.4,278.1,56.1z"/>
	<path class="st9" d="M22,235.4c-0.2-0.1-0.2-0.3-0.3-0.5C21.9,235,22,235.2,22,235.4z"/>
	<path class="st9" d="M22.4,236.7c-0.1-0.1-0.1-0.2-0.1-0.4c0.1,0.1,0.2,0.1,0.3,0.2C22.6,236.6,22.5,236.6,22.4,236.7z"/>
	<path class="st12" d="M11.5,207.3c-0.1-0.1-0.2-0.3-0.3-0.5C11.5,206.9,11.7,207,11.5,207.3z"/>
	<path class="st9" d="M23.5,238.5c-0.1-0.2-0.3-0.4-0.5-0.6C23.2,238.2,23.3,238.3,23.5,238.5z"/>
	<path class="st5" d="M59.3,285.1C59.3,285.1,59.4,285.1,59.3,285.1L59.3,285.1z"/>
	<path class="st5" d="M60,285.6L60,285.6L60,285.6z"/>
	<path class="st5" d="M280.6,58.6c0.1,0.1,0.2,0.3,0.3,0.5C280.6,59,280.4,58.9,280.6,58.6z"/>
	<polygon class="st5" points="61.3,287 61.2,286.8 61.3,286.8 	"/>
	<path class="st5" d="M280,58c0,0,0.2,0.2,0.2,0.2C279.9,58.4,279.8,58.3,280,58z"/>
	<path class="st5" d="M279.4,57.3c0,0,0.2,0.2,0.2,0.2C279.2,57.7,279.2,57.7,279.4,57.3z"/>
	<path class="st5" d="M278.7,56.7l0.2,0.2C278.6,57.1,278.6,57,278.7,56.7z"/>
	<path class="st5" d="M112.6,317c-0.1,0-0.3-0.1-0.4-0.2c0,0,0.2-0.1,0.2-0.1L112.6,317z"/>
	<path class="st5" d="M114.4,317.6c-0.1,0-0.2-0.1-0.3-0.1c0,0,0.2-0.1,0.2-0.1L114.4,317.6z"/>
	<path class="st5" d="M116.3,318.2c-0.1,0-0.2-0.1-0.3-0.1l0.2-0.1L116.3,318.2z"/>
	<path class="st5" d="M118.2,318.8c-0.1,0-0.2-0.1-0.3-0.1l0.2-0.1L118.2,318.8z"/>
	<path class="st5" d="M120.1,319.5c-0.2,0-0.3-0.1-0.4-0.2C119.9,319.1,120.1,319.2,120.1,319.5z"/>
	<polygon class="st5" points="60.6,286.3 60.5,286.2 60.7,286.2 	"/>
	<path class="st3" d="M231,316.9c-0.4-0.1-0.8-0.1-1.4-0.2C230.3,316.3,230.7,316.7,231,316.9C231,317,231,316.9,231,316.9z"/>
</g>
<g>
	<polygon class="st15" points="168.3,91.9 298.8,167.1 168.3,242.3 38.6,167.1 	"/>
	<g>
		<g>
			<polygon class="st16" points="135.9,110.7 104.1,129.4 136.6,148.1 168.7,129.4 			"/>
			<polygon class="st17" points="168.7,129.4 136.6,148.3 168.7,167 201.3,148.3 			"/>
			<polygon class="st17" points="201.3,148.3 168.7,166.8 201.6,185.6 233.8,167 			"/>
			<polygon class="st17" points="168.5,166.9 136.5,185.9 168.5,204.5 201.4,185.6 			"/>
			<polygon class="st17" points="233.8,167 201.4,185.6 233.8,204.5 266,185.6 			"/>
			<polygon class="st17" points="201.4,185.6 168.5,204.4 201.1,223.2 233.8,204.5 			"/>
			<polygon class="st17" points="136.6,148.3 104.1,167 136.6,185.7 168.7,167 			"/>
			<polygon class="st17" points="200.9,110.7 168.7,129.5 201.3,148.3 233.8,129.8 			"/>
			<polygon class="st17" points="233.8,129.8 201.3,148.3 234.3,167.2 265.8,148.3 			"/>
			<polygon class="st17" points="265.8,148.3 233.8,167 265.8,185.9 298.8,167.1 			"/>
			<polygon class="st17" points="168.5,92 135.9,110.7 168.7,129.5 200.9,110.7 			"/>
			<polygon class="st17" points="104.8,167.1 71.6,186 103.2,204.6 136.5,185.9 			"/>
			<polygon class="st17" points="136.5,185.9 103.2,204.6 135.7,223.4 168.5,204.3 			"/>
			<polygon class="st17" points="168.5,204.3 135.7,223.4 168.5,242.2 201.1,223.2 			"/>
			<polygon class="st17" points="71.5,148.3 38.6,167.1 71.5,185.9 104.8,167.1 			"/>
			<polygon class="st17" points="104.2,129.3 71.5,148.3 104.8,167.1 136.6,148.3 			"/>
		</g>
		<g>
			<polygon class="st18" points="298.8,167.1 299.1,174.5 168.5,249.8 168.5,242.2 			"/>
			<polygon class="st19" points="38.6,167.1 38.6,174.8 168.5,249.8 168.5,242.2 			"/>
		</g>
	</g>
	<g>
		<g>
			<polygon class="st20" points="168.5,92 175,95.8 168.5,99.6 162,95.8 			"/>
			<polygon class="st21" points="175,95.8 175,96.2 168.5,100 168.5,99.6 			"/>
			<polygon class="st22" points="162,95.8 162,96.2 168.5,100 168.5,99.6 			"/>
		</g>
		<g>
			<polygon class="st20" points="160.2,96.8 166.7,100.6 160.2,104.4 153.7,100.6 			"/>
			<polygon class="st21" points="166.7,100.6 166.7,101 160.2,104.8 160.2,104.4 			"/>
			<polygon class="st22" points="153.7,100.6 153.7,101 160.2,104.8 160.2,104.4 			"/>
		</g>
		<g>
			<polygon class="st20" points="144.2,106.1 150.7,109.9 144.2,113.7 137.7,109.9 			"/>
			<polygon class="st21" points="150.7,109.9 150.7,110.2 144.2,114 144.2,113.7 			"/>
			<polygon class="st22" points="137.7,109.9 137.7,110.2 144.2,114 144.2,113.7 			"/>
		</g>
		<g>
			<polygon class="st20" points="135.8,110.8 142.3,114.6 135.8,118.4 129.4,114.6 			"/>
			<polygon class="st21" points="142.3,114.6 142.4,115 135.8,118.8 135.8,118.4 			"/>
			<polygon class="st22" points="129.4,114.6 129.4,115 135.8,118.8 135.8,118.4 			"/>
		</g>
		<g>
			<polygon class="st20" points="152.1,110.8 158.6,114.7 147.3,115.8 145.6,114.6 			"/>
			<polygon class="st21" points="158.6,114.7 158.6,115.1 147.4,116.2 147.4,115.8 			"/>
			<polygon class="st21" points="145.6,114.6 145.6,115 147.4,116.2 147.4,115.8 			"/>
		</g>
		<g>
			<polyline class="st20" points="162,114.6 168.5,110.8 175,114.6 			"/>
			<polygon class="st21" points="175,114.6 175,115 162,115 162,114.6 			"/>
		</g>
		<g>
			<polygon class="st20" points="160.2,106.1 166.7,109.9 160.2,113.7 153.7,109.9 			"/>
			<polygon class="st21" points="166.7,109.9 166.7,110.2 160.2,114 160.2,113.7 			"/>
			<polygon class="st22" points="153.7,109.9 153.7,110.2 160.2,114 160.2,113.7 			"/>
		</g>
		<g>
			<polygon class="st20" points="176.3,106.1 182.8,109.9 176.3,113.7 169.8,109.9 			"/>
			<polygon class="st21" points="182.8,109.9 182.8,110.2 176.3,114 176.3,113.7 			"/>
			<polygon class="st22" points="169.8,109.9 169.8,110.2 176.3,114 176.3,113.7 			"/>
		</g>
		<g>
			<polygon class="st20" points="192.7,106.1 199.2,109.9 192.7,113.7 186.2,109.9 			"/>
			<polygon class="st21" points="199.2,109.9 199.2,110.2 192.7,114 192.7,113.7 			"/>
			<polygon class="st22" points="186.2,109.9 186.2,110.2 192.7,114 192.7,113.7 			"/>
		</g>
		<g>
			<polygon class="st20" points="201.4,111 207.9,114.8 201.4,118.6 194.9,114.8 			"/>
			<polygon class="st21" points="207.9,114.8 207.9,115.2 201.4,119 201.4,118.6 			"/>
			<polygon class="st22" points="194.9,114.8 194.9,115.2 201.4,119 201.4,118.6 			"/>
		</g>
		<g>
			<polygon class="st20" points="185,111 191,115.7 182.8,115 178.5,114.8 			"/>
			<polygon class="st21" points="191.1,115.8 191.2,116.2 178.5,115.2 178.5,114.8 			"/>
		</g>
		<g>
			<polygon class="st20" points="176.7,96.8 183.2,100.6 176.7,104.4 170.2,100.6 			"/>
			<polygon class="st21" points="183.2,100.6 183.2,101 176.7,104.8 176.7,104.4 			"/>
			<polygon class="st22" points="170.2,100.6 170.2,101 176.7,104.8 176.7,104.4 			"/>
		</g>
		<g>
			<polygon class="st20" points="168.5,101.3 175,105.1 168.5,108.9 162,105.1 			"/>
			<polygon class="st21" points="175,105.1 175,105.5 168.5,109.3 168.5,108.9 			"/>
			<polygon class="st22" points="162,105.1 162,105.5 168.5,109.3 168.5,108.9 			"/>
		</g>
		<g>
			<polygon class="st20" points="152.1,101.3 158.6,105.1 152.1,108.9 145.6,105.1 			"/>
			<polygon class="st21" points="158.6,105.1 158.6,105.5 152.1,109.3 152.1,108.9 			"/>
			<polygon class="st22" points="145.6,105.1 145.6,105.5 152.1,109.3 152.1,108.9 			"/>
		</g>
		<g>
			<polygon class="st20" points="185,101.3 191.5,105.1 185,108.9 178.5,105.1 			"/>
			<polygon class="st21" points="191.5,105.1 191.5,105.5 185,109.3 185,108.9 			"/>
			<polygon class="st22" points="178.5,105.1 178.5,105.5 185,109.3 185,108.9 			"/>
		</g>
	</g>
	<g>
		<g>
			<polygon class="st20" points="70.6,167.9 77.2,171.7 70.6,175.5 64.2,171.7 			"/>
			<polygon class="st21" points="77.2,171.7 77.2,172 70.7,175.9 70.7,175.5 			"/>
			<polygon class="st22" points="64.2,171.7 64.2,172.1 70.7,175.9 70.7,175.5 			"/>
		</g>
		<g>
			<polygon class="st20" points="70.6,177.2 77.2,181 70.6,184.8 64.2,181 			"/>
			<polygon class="st21" points="77.2,181 77.2,181.4 70.7,185.2 70.7,184.8 			"/>
			<polygon class="st22" points="64.2,181 64.2,181.4 70.7,185.2 70.7,184.8 			"/>
		</g>
		<g>
			<polygon class="st20" points="62.7,172.3 69.2,176.1 62.7,179.9 56.2,176.1 			"/>
			<polygon class="st21" points="69.2,176.1 69.2,176.4 62.7,180.2 62.7,179.9 			"/>
			<polygon class="st22" points="56.2,176.1 56.2,176.4 62.7,180.2 62.7,179.9 			"/>
		</g>
		<g>
			<polygon class="st20" points="62.7,163.1 69.2,166.9 62.7,170.7 56.2,166.9 			"/>
			<polygon class="st21" points="69.2,166.9 69.2,167.3 62.7,171.1 62.7,170.7 			"/>
			<polygon class="st22" points="56.2,166.9 56.2,167.3 62.7,171.1 62.7,170.7 			"/>
		</g>
		<g>
			<polygon class="st20" points="46.6,163.1 53.1,166.9 46.6,170.7 40.1,166.9 			"/>
			<polygon class="st21" points="53.1,166.9 53.1,167.3 46.6,171.1 46.6,170.7 			"/>
			<polygon class="st22" points="40.1,166.9 40.1,167.3 46.6,171.1 46.6,170.7 			"/>
		</g>
		<g>
			<polygon class="st20" points="54.5,158.3 61,162.1 54.5,165.9 48,162.1 			"/>
			<polygon class="st21" points="61,162.1 61,162.5 54.5,166.3 54.5,165.9 			"/>
			<polygon class="st22" points="48,162.1 48,162.5 54.5,166.3 54.5,165.9 			"/>
		</g>
		<g>
			<polygon class="st20" points="54.5,167.9 61,171.7 54.5,175.5 48,171.7 			"/>
			<polygon class="st21" points="61,171.7 61,172 54.5,175.9 54.5,175.5 			"/>
			<polygon class="st22" points="48,171.7 48,172.1 54.5,175.9 54.5,175.5 			"/>
		</g>
		<g>
			<polygon class="st20" points="62.7,153.7 69.2,157.5 62.7,161.3 56.2,157.5 			"/>
			<polygon class="st21" points="69.2,157.5 69.2,157.9 62.7,161.7 62.7,161.3 			"/>
			<polygon class="st22" points="56.2,157.5 56.2,157.9 62.7,161.7 62.7,161.3 			"/>
		</g>
		<g>
			<polygon class="st20" points="70.6,158.5 77.2,162.3 70.6,166.1 64.2,162.3 			"/>
			<polygon class="st21" points="77.2,162.3 77.2,162.7 70.7,166.5 70.7,166.1 			"/>
			<polygon class="st22" points="64.2,162.3 64.2,162.7 70.7,166.5 70.7,166.1 			"/>
		</g>
		<g>
			<polygon class="st20" points="70.6,149.1 77.2,152.9 70.6,156.7 64.2,152.9 			"/>
			<polygon class="st21" points="77.2,152.9 77.2,153.3 70.7,157.1 70.7,156.7 			"/>
			<polygon class="st22" points="64.2,152.9 64.2,153.3 70.7,157.1 70.7,156.7 			"/>
		</g>
		<g>
			<polygon class="st20" points="78.9,144.2 85.4,148 78.9,151.8 72.4,148 			"/>
			<polygon class="st21" points="85.4,148 85.4,148.4 78.9,152.2 78.9,151.8 			"/>
			<polygon class="st22" points="72.4,148 72.4,148.4 78.9,152.2 78.9,151.8 			"/>
		</g>
		<g>
			<polygon class="st20" points="78.9,153.6 80.3,154.5 78.7,161.3 72.4,157.4 			"/>
			<polygon class="st23" points="80.3,154.5 80.3,154.9 78.7,161.7 78.7,161.3 			"/>
			<polygon class="st22" points="72.4,157.4 72.4,157.7 78.7,161.7 78.7,161.3 			"/>
		</g>
		<g>
			<polygon class="st20" points="78.1,163.4 77.8,166.7 78.4,170.1 72.4,166.7 			"/>
			<polygon class="st21" points="77.8,166.7 77.9,167.1 78.4,170.5 78.4,170.1 			"/>
			<polygon class="st22" points="72.4,166.7 72.4,167.1 78.4,170.5 78.4,170.1 			"/>
		</g>
		<g>
			<polygon class="st20" points="78.4,172.8 80.4,179 78.8,180 72.3,176.2 			"/>
			<polygon class="st21" points="80.4,179 80.4,179.4 78.8,180.4 78.8,180 			"/>
			<polygon class="st22" points="72.3,176.2 72.3,176.6 78.8,180.4 78.8,180 			"/>
		</g>
		<g>
			<polygon class="st20" points="78.9,181.5 85.4,185.3 78.9,189.1 72.4,185.3 			"/>
			<polygon class="st21" points="85.4,185.3 85.4,185.6 78.9,189.4 78.9,189.1 			"/>
			<polygon class="st22" points="72.4,185.3 72.4,185.6 78.9,189.4 78.9,189.1 			"/>
		</g>
	</g>
	<g>
		<g>
			<polygon class="st20" points="267.1,167.8 260.6,171.6 267.1,175.4 273.5,171.6 			"/>
			<polygon class="st21" points="260.6,171.6 260.5,172 267.1,175.8 267.1,175.4 			"/>
			<polygon class="st22" points="273.5,171.6 273.5,172 267.1,175.8 267.1,175.4 			"/>
		</g>
		<g>
			<polygon class="st20" points="267.1,177.2 260.6,181 267.1,184.8 273.5,181 			"/>
			<polygon class="st21" points="260.6,181 260.5,181.3 267.1,185.1 267.1,184.8 			"/>
			<polygon class="st22" points="273.5,181 273.5,181.3 267.1,185.1 267.1,184.8 			"/>
		</g>
		<g>
			<polygon class="st20" points="275.1,172.2 268.5,176 275.1,179.8 281.5,176 			"/>
			<polygon class="st21" points="268.5,176 268.5,176.4 275,180.2 275,179.8 			"/>
			<polygon class="st22" points="281.5,176 281.5,176.4 275,180.2 275,179.8 			"/>
		</g>
		<g>
			<polygon class="st20" points="275.1,163.1 268.5,166.9 275.1,170.7 281.5,166.9 			"/>
			<polygon class="st21" points="268.5,166.9 268.5,167.2 275,171 275,170.7 			"/>
			<polygon class="st22" points="281.5,166.9 281.5,167.3 275,171 275,170.7 			"/>
		</g>
		<g>
			<polygon class="st20" points="291.2,163.1 284.7,166.9 291.2,170.7 297.6,166.9 			"/>
			<polygon class="st21" points="284.7,166.9 284.6,167.2 291.2,171 291.2,170.7 			"/>
			<polygon class="st22" points="297.6,166.9 297.6,167.3 291.2,171 291.2,170.7 			"/>
		</g>
		<g>
			<polygon class="st20" points="283.2,158.2 276.7,162 283.2,165.8 289.7,162 			"/>
			<polygon class="st21" points="276.7,162 276.7,162.4 283.2,166.2 283.2,165.8 			"/>
			<polygon class="st22" points="289.7,162 289.7,162.4 283.2,166.2 283.2,165.8 			"/>
		</g>
		<g>
			<polygon class="st20" points="283.3,167.8 276.7,171.6 283.3,175.4 289.7,171.6 			"/>
			<polygon class="st21" points="276.7,171.6 276.7,172 283.2,175.8 283.2,175.4 			"/>
			<polygon class="st22" points="289.7,171.6 289.7,172 283.2,175.8 283.2,175.4 			"/>
		</g>
		<g>
			<polygon class="st20" points="275.1,153.7 268.5,157.5 275.1,161.3 281.5,157.5 			"/>
			<polygon class="st21" points="268.5,157.5 268.5,157.8 275,161.6 275,161.3 			"/>
			<polygon class="st22" points="281.5,157.5 281.5,157.9 275,161.6 275,161.3 			"/>
		</g>
		<g>
			<polygon class="st20" points="267.1,158.4 260.6,162.2 267.1,166 273.5,162.2 			"/>
			<polygon class="st21" points="260.6,162.2 260.5,162.6 267.1,166.4 267.1,166 			"/>
			<polygon class="st22" points="273.5,162.2 273.5,162.6 267.1,166.4 267.1,166 			"/>
		</g>
		<g>
			<polygon class="st20" points="267.1,149.1 260.6,152.9 267.1,156.7 273.5,152.9 			"/>
			<polygon class="st21" points="260.6,152.9 260.5,153.3 267.1,157.1 267.1,156.7 			"/>
			<polygon class="st22" points="273.5,152.9 273.5,153.3 267.1,157.1 267.1,156.7 			"/>
		</g>
		<g>
			<polygon class="st20" points="258.8,144.2 252.3,148 258.8,151.8 265.3,148 			"/>
			<polygon class="st21" points="252.3,148 252.3,148.4 258.8,152.2 258.8,151.8 			"/>
			<polygon class="st22" points="265.3,148 265.3,148.4 258.8,152.2 258.8,151.8 			"/>
		</g>
		<g>
			<polygon class="st20" points="258.8,153.5 257.4,154.4 259,161.3 265.3,157.3 			"/>
			<polygon class="st23" points="257.4,154.4 257.4,154.8 259,161.6 259,161.3 			"/>
			<polygon class="st22" points="265.3,157.3 265.3,157.7 259,161.6 259,161.3 			"/>
		</g>
		<g>
			<polygon class="st20" points="259.6,163.4 259.9,166.7 259.4,170 265.3,166.7 			"/>
			<polygon class="st21" points="259.9,166.7 259.9,167.1 259.4,170.4 259.4,170 			"/>
			<polygon class="st22" points="265.3,166.7 265.3,167.1 259.4,170.4 259.4,170 			"/>
		</g>
		<g>
			<polygon class="st20" points="259.4,172.7 257.3,178.9 258.9,180 265.4,176.2 			"/>
			<polygon class="st21" points="257.3,178.9 257.3,179.3 258.9,180.4 258.9,180 			"/>
			<polygon class="st22" points="265.4,176.2 265.4,176.6 258.9,180.4 258.9,180 			"/>
		</g>
		<g>
			<polygon class="st20" points="258.8,181.4 252.3,185.2 258.8,189 265.3,185.2 			"/>
			<polygon class="st21" points="252.3,185.2 252.3,185.6 258.8,189.4 258.8,189 			"/>
			<polygon class="st22" points="265.3,185.2 265.3,185.6 258.8,189.4 258.8,189 			"/>
		</g>
	</g>
	<g>
		<g>
			<polygon class="st20" points="168.1,225.1 174.6,228.9 168.1,232.7 161.7,228.9 			"/>
			<polygon class="st21" points="174.6,228.9 174.7,229.3 168.1,233.1 168.1,232.7 			"/>
			<polygon class="st22" points="161.7,228.9 161.7,229.3 168.1,233.1 168.1,232.7 			"/>
		</g>
		<g>
			<polygon class="st20" points="152.2,224.8 158.7,228.6 152.2,232.4 145.8,228.6 			"/>
			<polygon class="st21" points="158.7,228.6 158.8,229 152.2,232.8 152.2,232.4 			"/>
			<polygon class="st22" points="145.8,228.6 145.8,229 152.2,232.8 152.2,232.4 			"/>
		</g>
		<g>
			<polygon class="st20" points="168.4,234 174.9,237.8 168.4,241.6 161.9,237.8 			"/>
			<polygon class="st21" points="174.9,237.8 174.9,238.2 168.4,242 168.4,241.6 			"/>
			<polygon class="st22" points="161.9,237.8 161.9,238.2 168.4,242 168.4,241.6 			"/>
		</g>
		<g>
			<polygon class="st20" points="176.4,229.5 182.9,233.3 176.4,237.1 169.9,233.3 			"/>
			<polygon class="st21" points="182.9,233.3 182.9,233.7 176.4,237.5 176.4,237.1 			"/>
			<polygon class="st22" points="169.9,233.3 169.9,233.7 176.4,237.5 176.4,237.1 			"/>
		</g>
		<g>
			<polygon class="st20" points="184.8,224.7 191.3,228.5 184.8,232.3 178.3,228.5 			"/>
			<polygon class="st21" points="191.3,228.5 191.3,228.9 184.8,232.7 184.8,232.3 			"/>
			<polygon class="st22" points="178.3,228.5 178.3,228.9 184.8,232.7 184.8,232.3 			"/>
		</g>
		<g>
			<polygon class="st20" points="192.6,220.1 199.1,223.9 192.6,227.7 186.1,223.9 			"/>
			<polygon class="st21" points="199.1,223.9 199.1,224.2 192.6,228 192.6,227.7 			"/>
			<polygon class="st22" points="186.1,223.9 186.1,224.3 192.6,228 192.6,227.7 			"/>
		</g>
		<g>
			<polygon class="st20" points="200.7,215.5 207.2,219.3 200.7,223.1 194.2,219.3 			"/>
			<polygon class="st21" points="207.2,219.3 207.2,219.7 200.7,223.5 200.7,223.1 			"/>
			<polygon class="st22" points="194.2,219.3 194.2,219.7 200.7,223.5 200.7,223.1 			"/>
		</g>
		<g>
			<polygon class="st20" points="160.6,229.4 167.1,233.2 160.6,237 154.1,233.2 			"/>
			<polygon class="st21" points="167.1,233.2 167.1,233.6 160.6,237.4 160.6,237 			"/>
			<polygon class="st22" points="154.1,233.2 154.1,233.6 160.6,237.4 160.6,237 			"/>
		</g>
		<g>
			<polygon class="st20" points="159.9,220.1 166.4,223.9 159.9,227.7 153.4,223.9 			"/>
			<polygon class="st21" points="166.4,223.9 166.4,224.2 159.9,228 159.9,227.7 			"/>
			<polygon class="st22" points="153.4,223.9 153.4,224.3 159.9,228 159.9,227.7 			"/>
		</g>
		<g>
			<polyline class="st20" points="158.4,219.1 151.9,222.9 145,218.9 			"/>
			<polygon class="st21" points="158.4,219.1 158.5,219.5 151.9,223.3 151.9,222.9 			"/>
			<polygon class="st22" points="145,218.9 145,219.3 151.9,223.3 151.9,222.9 			"/>
		</g>
		<g>
			<polyline class="st20" points="191.3,219.1 184.8,222.9 178.3,219.1 			"/>
			<polygon class="st21" points="191.3,219.1 191.3,219.5 184.8,223.3 184.8,222.9 			"/>
			<polygon class="st22" points="178.3,219.1 178.3,219.5 184.8,223.3 184.8,222.9 			"/>
		</g>
		<g>
			<polygon class="st20" points="143.8,219.8 150.3,223.6 143.8,227.4 137.3,223.6 			"/>
			<polygon class="st21" points="150.3,223.6 150.3,224 143.8,227.8 143.8,227.4 			"/>
			<polygon class="st22" points="137.3,223.6 137.3,224 143.8,227.8 143.8,227.4 			"/>
		</g>
		<g>
			<polygon class="st20" points="135.4,215.1 141.9,218.9 135.4,222.7 128.9,218.9 			"/>
			<polygon class="st21" points="141.9,218.9 141.9,219.2 135.4,223 135.4,222.7 			"/>
			<polygon class="st22" points="128.9,218.9 128.9,219.2 135.4,223 135.4,222.7 			"/>
		</g>
		<g>
			<polygon class="st20" points="176.4,220.3 182.9,224.1 176.4,227.9 169.9,224.1 			"/>
			<polygon class="st21" points="182.9,224.1 182.9,224.4 176.4,228.2 176.4,227.9 			"/>
			<polygon class="st22" points="169.9,224.1 169.9,224.4 176.4,228.2 176.4,227.9 			"/>
		</g>
		<g>
			<polyline class="st20" points="173.8,219.9 168.1,222.9 162.5,219.9 			"/>
			<polygon class="st21" points="173.8,219.9 173.8,220.3 168.1,223.3 168.1,222.9 			"/>
			<polygon class="st22" points="162.5,219.9 162.5,220.3 168.1,223.3 168.1,222.9 			"/>
		</g>
	</g>
	<g>
		<g>
			<ellipse class="st24" cx="168.7" cy="167.3" rx="26.3" ry="15.1"/>
			<ellipse class="st25" cx="168.7" cy="167.3" rx="42.6" ry="24.5"/>
			<path class="st26" d="M227.4,167.1c0,18.6-26.3,33.8-58.7,33.8c-32.4,0-58.7-15.1-58.7-33.8c0-18.6,26.3-33.8,58.7-33.8
				C201.1,133.3,227.4,148.4,227.4,167.1z"/>
			<ellipse class="st27" cx="168.7" cy="167.1" rx="74.3" ry="42.7"/>
			<ellipse class="st28" cx="168.7" cy="167.3" rx="90.1" ry="51.8"/>
		</g>
		<g>
			<line class="st29" x1="126.1" y1="122.5" x2="126.1" y2="143.8"/>
			<line class="st29" x1="211.3" y1="122.5" x2="211.3" y2="143.8"/>
			<line class="st30" x1="139.8" y1="118.7" x2="139.8" y2="149.3"/>
			<line class="st30" x1="195.5" y1="117.6" x2="195.5" y2="148.2"/>
			<line class="st31" x1="169.9" y1="115.8" x2="169.9" y2="152.2"/>
			<line class="st32" x1="183.7" y1="115.8" x2="183.7" y2="154.9"/>
			<line class="st32" x1="153.6" y1="115.8" x2="153.6" y2="154.9"/>
			<line class="st33" x1="126.1" y1="190.5" x2="126.1" y2="212.8"/>
			<line class="st33" x1="211.8" y1="190.2" x2="211.8" y2="212.5"/>
			<line class="st30" x1="142.5" y1="186.6" x2="142.5" y2="217.2"/>
			<line class="st34" x1="197.6" y1="185.2" x2="197.6" y2="216.4"/>
			<line class="st31" x1="168" y1="182.4" x2="168" y2="218.7"/>
			<line class="st32" x1="183.7" y1="179.7" x2="183.7" y2="218.8"/>
			<line class="st32" x1="153.6" y1="179.7" x2="153.6" y2="218.8"/>
			<line class="st29" x1="89.3" y1="142.8" x2="126.1" y2="142.8"/>
			<line class="st35" x1="83.1" y1="152.2" x2="134.6" y2="152.2"/>
			<line class="st36" x1="79.8" y1="158.9" x2="146" y2="158.9"/>
			<line class="st37" x1="78.6" y1="167.3" x2="141.9" y2="167.3"/>
			<line class="st38" x1="79.8" y1="176" x2="146.7" y2="176"/>
			<line class="st39" x1="83.4" y1="184.2" x2="137.4" y2="184.2"/>
			<line class="st29" x1="89.8" y1="192.4" x2="126.1" y2="192.4"/>
			<line class="st29" x1="211.1" y1="142.9" x2="247.9" y2="142.9"/>
			<line class="st40" x1="201.1" y1="151.1" x2="253.4" y2="151.1"/>
			<line class="st36" x1="191.7" y1="159.4" x2="257.9" y2="159.4"/>
			<line class="st41" x1="195" y1="167.9" x2="258.8" y2="167.9"/>
			<line class="st42" x1="190.1" y1="176.6" x2="257.3" y2="176.6"/>
			<line class="st43" x1="201.5" y1="183.1" x2="254.5" y2="183.1"/>
			<line class="st29" x1="211.8" y1="192.2" x2="248" y2="192.2"/>
		</g>
	</g>
</g>
</svg>
