<?xml version="1.0" encoding="utf-8"?>
<!-- Generator: Adobe Illustrator 16.0.0, SVG Export Plug-In . SVG Version: 6.00 Build 0)  -->
<!DOCTYPE svg PUBLIC "-//W3C//DTD SVG 1.1//EN" "http://www.w3.org/Graphics/SVG/1.1/DTD/svg11.dtd">
<svg version="1.1" id="Capa_1" xmlns="http://www.w3.org/2000/svg" xmlns:xlink="http://www.w3.org/1999/xlink" x="0px" y="0px"
	 width="481.476px" height="446.978px" viewBox="0 0 481.476 446.978" enable-background="new 0 0 481.476 446.978"
	 xml:space="preserve">
<g>
	<path fill-rule="evenodd" clip-rule="evenodd" fill="#26592F" d="M38.881,266.568c-6.397-8.192-9.477-17.5-9.149-27.874
		c0.351-11.104-1.245-22.307,1.925-33.277c0.956-3.31,2.868-6.074,4.224-9.14c3.955-0.64,5.082-4.645,7.896-6.672
		c2.164-1.559,5.131-2.59,5.102-6.054c5.726-0.937,10.885-4.379,16.849-4.064c2.993,0.158,4.134-0.896,5.08-3.718
		c8.392-25.014,22.354-46.696,40.731-65.435c5.439-5.546,11.211-10.996,17.896-15.239c2.803-1.779,3.531-3.708,1.634-7.186
		c-2.524-4.625-5.633-9.115-6.579-14.503c0.262-1.866,1.691-2.792,3.068-3.717c12.029-8.082,24.877-14.671,38.359-19.872
		c5.291-2.041,10.504-5.252,16.66-4.21c2.701,5.506,5.48,10.977,8.064,16.538c0.938,2.019,1.818,2.536,4.122,1.804
		c10.429-3.314,21.331-4.664,32.112-5.32c18.549-1.128,37.018,0.175,55.289,4.444c17.902,4.184,34.659,10.841,50.638,19.837
		c17.378,9.785,32.237,22.686,45.189,37.548c14.322,16.434,24.888,35.32,31.645,56.166c0.525,1.62,0.96,2.891,2.779,2.762
		c6.811-0.484,13.017,1.914,19.319,3.887c3.387,4.699,7.089,9.032,12.816,11.006c5.751,8.381,7.804,17.701,7.181,27.75
		c-0.581,9.387,1.094,18.856-1.008,28.194c-1.333,5.926-3.359,11.503-8.029,15.7c-0.852,0.766-0.957,1.683-1.145,2.646
		c-5.809,1.155-10.285,4.359-13.828,8.998c-5.658,0.491-11.137,2.629-16.933,1.862c-2.401-0.318-2.534,1.764-3.002,3.114
		c-7.893,22.792-21.409,42.03-37.36,59.793c-1.947,2.169-6.004,3.157-5.832,6.155c0.16,2.813,2.492,5.505,3.887,8.242
		c0.805,1.581,1.643,3.145,2.467,4.717c-0.229,1.73-1.088,2.892-2.525,4.032c-11.736,9.313-24.217,17.485-37.678,24.027
		c-5.137,2.496-10.076,5.923-16.182,5.938c0.309-2.708-2.26-4.063-2.959-6.425c-1.888-6.376-2.781-6.593-8.802-4.182
		c-15.465,6.195-31.724,9.302-48.179,10.353c-11.326,0.723-22.783,0.718-34.235-0.582c-11.976-1.359-23.688-3.539-35.163-7.058
		c-19.601-6.01-37.672-15.077-54.197-27.266c-13.542-9.989-25.227-21.714-35.447-35.115c-10.109-13.252-17.426-27.895-23.555-43.226
		c-0.715-1.786-1.115-2.781-3.191-2.542c-5.309,0.61-10.209-1.221-15.152-2.74C49,272.934,44.727,268.596,38.881,266.568z
		 M113.163,279.443c17.146,40.745,65.956,84,138.267,78.902c48.714-3.434,95.422-33.857,114.339-79.099
		C281.407,280.299,197.336,279.25,113.163,279.443z M365.809,179.42c-1.207-4.26-3.535-7.369-5.384-10.708
		c-9.485-17.137-22.425-31.224-38.404-42.408c-31.011-21.705-65.65-29.417-102.887-24.682c-17.644,2.243-34.435,8.047-50.044,16.973
		c-23.26,13.299-41.266,31.579-53.523,55.444c-2.748,5.351-2.703,5.38,3.176,5.38c80.631,0.002,161.26,0.001,241.891,0.001
		C362.242,179.42,363.85,179.42,365.809,179.42z M235.723,71.505c-6.983-0.078-18.121,1.062-29.266,3.052
		c-32.561,5.814-61.104,19.833-85.525,41.908c-17.982,16.254-31.487,35.848-40.092,58.656c-0.686,1.816-2.035,3.97,0.473,5.019
		c2.498,1.044,3.825-0.903,4.717-3.123c1.768-4.405,3.287-8.964,5.568-13.097c9.142-16.56,20.221-31.583,34.551-44.191
		c10.963-9.646,22.694-18.078,35.693-24.614c17.698-8.9,36.393-14.519,56.125-17.199c18.94-2.573,37.59-1.781,56.221,1.901
		c20.305,4.013,39.326,11.285,56.931,22.268c20.778,12.963,37.99,29.464,51.043,50.273c5.077,8.095,9.673,16.414,12.814,25.434
		c1.051,3.016,3.169,2.904,5.116,2.323c2.766-0.824,0.568-2.857,0.187-4.031c-1.112-3.417-2.56-6.746-4.105-10
		c-15.624-32.899-39.891-57.465-71.995-74.425C297.856,77.754,269.729,71.355,235.723,71.505z M240.35,384.306
		c7.738-0.689,15.479-1.361,23.215-2.071c20.023-1.839,38.868-7.902,56.799-16.686c20.678-10.129,38.757-23.866,53.615-41.53
		c10.324-12.273,18.621-25.865,24.47-40.868c0.596-1.528,2.421-3.482-0.343-4.447c-2.252-0.786-3.596,0.324-4.693,2.836
		c-7.174,16.426-16.697,31.335-29.102,44.398c-15.775,16.612-34.037,29.628-55.066,38.67c-18.412,7.917-37.667,12.685-57.676,13.884
		c-20.107,1.205-39.832-1.005-59.312-6.565c-25.999-7.422-48.78-20.332-68.519-38.567c-15.801-14.598-28.207-31.763-36.323-51.821
		c-1.087-2.686-2.989-3.823-5.337-2.743c-2.415,1.11-0.578,3.198,0.041,4.681c12.1,28.999,31.471,52.096,57.305,69.776
		C169.809,374.048,203.706,383.595,240.35,384.306z M362.795,220.41c-9.316-6.646-18.023-6.617-24.245-0.29
		c-5.878,5.977-6.593,15.89-1.595,22.385c2.629,3.416,5.998,5.711,10.268,6.562c5.815,1.16,10.654-1.12,15.154-4.767
		c0.705,1.926-0.326,4.597,3.053,4.192c3.16-0.378,1.939-2.66,1.951-4.159c0.096-12.476,0.041-24.953,0.068-37.43
		c0.004-1.845-0.139-3.309-2.598-3.208c-2.341,0.095-2.046,1.696-2.051,3.166C362.786,211.186,362.795,215.509,362.795,220.41z
		 M112.127,232.737c3.656,0,7.327-0.205,10.965,0.059c3.494,0.253,3.795-1.201,3.141-4.109c-2-8.896-8.623-13.808-18.231-13.28
		c-7.613,0.418-13.485,6.376-14.778,14.995c-1.139,7.588,3.857,15.73,11.055,18.019c7.877,2.504,16.447-0.442,20.068-6.873
		c0.656-1.166,1.629-2.252-0.355-3.139c-1.23-0.55-2.348-1.366-3.322,0.4c-0.475,0.861-1.124,1.662-1.828,2.353
		c-3.473,3.405-7.645,4.519-12.318,3.323c-4.422-1.131-6.874-4.191-8.16-8.518c-0.72-2.423-0.377-3.357,2.299-3.263
		C104.479,232.838,108.305,232.738,112.127,232.737z M374.691,232.376c0.03,9.786,7.338,17.093,16.967,16.967
		c9.252-0.121,16.646-7.561,16.774-16.878c0.131-9.544-7.312-17.052-16.921-17.067C381.712,215.381,374.661,222.5,374.691,232.376z
		 M207.691,232.381c0.03,9.78,7.341,17.089,16.966,16.962c9.256-0.123,16.665-7.58,16.775-16.887
		c0.115-9.557-7.324-17.049-16.938-17.059C214.663,215.387,207.661,222.465,207.691,232.381z M303.744,232.4
		c0.003-10.005-6.886-17.006-16.729-17.002c-9.538,0.003-17.032,7.509-17.003,17.027c0.027,9.196,7.559,16.796,16.765,16.918
		C296.402,249.471,303.741,242.143,303.744,232.4z M150.403,215.397c-8.799-0.019-15.703,4.909-17.615,12.572
		c-1.945,7.796,1.229,15.339,8.051,19.136c6.916,3.85,17.148,2.606,22.24-2.79c0.869-0.92,2.902-1.852,0.812-3.512
		c-1.211-0.961-2.44-1.766-3.745,0.059c-0.559,0.78-1.471,1.341-2.297,1.89c-4.977,3.306-12.26,2.827-16.677-1.064
		c-4.306-3.792-5.552-9.915-3.05-14.974c3.776-7.635,14.184-9.509,21.363-3.693c1.531,1.24,2.693,2.698,4.462,0.706
		c2.015-2.271-0.527-3.212-1.618-4.208C158.993,216.476,154.91,215.235,150.403,215.397z M177.522,220.232
		c-0.964-1.634,0.178-4.717-3.133-4.07c-2.949,0.576-1.588,2.873-1.613,4.349c-0.143,8.149-0.104,16.302-0.034,24.454
		c0.012,1.417-0.899,3.469,2.029,3.509c2.835,0.039,2.171-1.875,2.205-3.398c0.117-5.312-0.278-10.641,0.563-15.929
		c0.896-5.638,5.727-9.954,10.889-9.708c5.002,0.238,7.381,3.429,7.594,10.267c0.165,5.313,0.316,10.627,0.403,15.941
		c0.026,1.635,0.036,2.896,2.311,2.834c2.015-0.055,2.007-1.182,1.995-2.59c-0.055-6.321,0.186-12.658-0.197-18.958
		c-0.467-7.691-5.325-11.73-12.742-11.561C183.68,215.466,180.758,217.865,177.522,220.232z M74.999,228.759
		c0,5.48,0.003,10.96-0.002,16.44c0,1.671-0.268,3.229,2.377,3.327c2.932,0.108,2.672-1.585,2.668-3.471
		c-0.023-9.465-0.012-18.931-0.011-28.396c0-6.711-0.002-6.745,6.813-7.184c1.583-0.102,2.902,0.006,2.846-2.282
		c-0.05-2.06-1.012-2.511-2.78-2.5c-6.31,0.041-12.62,0.047-18.931-0.001c-1.718-0.014-2.306,0.706-2.32,2.372
		c-0.016,1.581,0.295,2.582,2.146,2.394c0.657-0.066,1.35,0.104,1.987-0.025c4.559-0.915,5.633,1.164,5.292,5.384
		C74.711,219.437,74.999,224.109,74.999,228.759z M62.719,229.428c0.001-5.537-4.703-10.124-10.256-10.001
		c-5.326,0.118-9.759,4.674-9.736,10.008c0.021,5.394,4.381,9.862,9.748,9.992C58.027,239.561,62.719,234.981,62.719,229.428z
		 M426.709,219.431c-5.323-0.017-9.881,4.437-9.987,9.757c-0.11,5.581,4.446,10.245,10.006,10.239
		c5.362-0.006,9.86-4.396,9.991-9.753C436.855,224.129,432.28,219.448,426.709,219.431z M255.951,215.384
		c-4.465-0.118-7.269,1.919-8.655,5.743c-1.416,3.907-0.168,7.301,2.994,9.753c2.34,1.815,5.125,3.045,7.58,4.729
		c1.818,1.246,3.442,2.905,2.467,5.396c-1.002,2.559-2.964,3.893-5.85,3.699c-1.914-0.128-3.569-0.793-4.871-2.168
		c-1.071-1.132-1.859-0.974-2.766,0.186c-0.717,0.919-1.821,1.757-0.557,2.92c3.093,2.843,6.714,4.384,10.936,3.434
		c4.051-0.912,6.742-3.388,7.488-7.661c1.131-6.477-3.294-9.132-7.924-11.777c-2.9-1.657-7.291-3.09-5.059-7.553
		c2.162-4.323,5.756-2.552,8.845-0.449c0.138,0.093,0.265,0.201,0.394,0.307c1.408,1.163,2.045-0.196,2.852-0.897
		c1.281-1.114,0.669-1.917-0.426-2.742C261.098,216.569,258.708,215.15,255.951,215.384z M314.971,225.924
		c0-6.315-0.01-12.631,0.005-18.946c0.005-1.743,0.091-3.375-2.492-3.236c-2.372,0.127-2.006,1.771-2.009,3.201
		c-0.02,12.797,0.002,25.594-0.025,38.392c-0.004,1.782-0.063,3.245,2.502,3.136c2.437-0.104,2.003-1.69,2.008-3.101
		C314.984,238.888,314.971,232.406,314.971,225.924z M326.969,231.906c0-4.307-0.025-8.614,0.014-12.92
		c0.015-1.64-0.078-2.863-2.309-2.853c-2.306,0.011-2.217,1.384-2.215,2.939c0.012,8.945,0.018,17.891-0.004,26.836
		c-0.003,1.456,0.123,2.505,2.055,2.556c2.038,0.054,2.52-0.807,2.486-2.644C326.913,241.184,326.969,236.544,326.969,231.906z
		 M282.14,210.39c7.627,0.438,9.126-5.537,13.435-8.653C287.04,198.992,286.29,206.164,282.14,210.39z M328.069,206.404
		c-0.268-2.162-1.503-3.258-3.693-3.159c-2.052,0.093-3.044,1.498-3.076,3.281c-0.037,2.102,1.372,3.532,3.428,3.475
		C326.731,209.946,328.025,208.609,328.069,206.404z"/>
	<path fill-rule="evenodd" clip-rule="evenodd" fill="#1F7796" d="M444.553,194.279c-5.728-1.974-9.43-6.307-12.816-11.005
		c-5.486-22.516-14.783-43.339-28.164-62.253c-11.549-16.325-25.031-30.809-41.223-42.739c-13.447-9.909-27.598-18.4-42.979-25.048
		c-20.1-8.686-41.072-13.928-62.727-15.544c-12.299-0.917-24.791-0.84-37.244,0.558c-12.537,1.407-24.756,3.866-36.822,7.36
		c-6.156-1.042-11.369,2.17-16.66,4.21c-13.482,5.2-26.33,11.79-38.359,19.872c-1.377,0.926-2.807,1.852-3.067,3.719
		c-11.413,9.065-22.84,18.012-32.569,29.081c-10.09,11.479-18.942,23.689-26.215,37.074c-7.556,13.908-13.179,28.576-16.828,43.989
		c0.029,3.464-2.938,4.495-5.102,6.054c-2.814,2.027-3.941,6.032-7.896,6.672c0.121-11.568,3.564-22.505,7.131-33.262
		c7.714-23.27,19.466-44.375,35.564-63.019C91.76,84.73,106.2,70.964,123.522,60.432c0.908,0.917,1.656,0.5,2.598-0.103
		c13.631-8.741,28.076-15.811,43.414-21.035c1.334-0.455,2.514-0.993,2.352-2.718c10.836-2.872,21.66-5.806,32.744-7.597
		c3.871-0.625,7.772-1.444,11.667-1.485c15.98-0.168,31.996-0.706,47.937,0.102c17.151,0.869,33.783,5.296,49.904,11.102
		c17.539,6.316,34.004,14.847,49.303,25.632c24.916,17.564,44.795,39.548,59.847,66.075c10.48,18.47,16.855,38.319,21.306,58.906
		C444.933,190.891,444.583,192.62,444.553,194.279z"/>
	<path fill-rule="evenodd" clip-rule="evenodd" fill="#1F7796" d="M427.725,277.566c3.543-4.639,8.02-7.843,13.828-8.998
		c-1.299,9.408-4.861,18.152-8.406,26.815c-7.83,19.137-18.449,36.584-32.031,52.313c-8.348,9.668-17.649,18.24-27.137,26.688
		c-1.83-2.05-3.117,0.048-4.128,0.853c-12.794,10.177-26.927,18.094-41.631,25.089c-1.673,0.796-4.067,1.134-3.673,3.946
		c-7.223,1.394-13.845,4.658-20.865,6.69c-12.231,3.543-24.615,6.134-37.311,7.561c-15.594,1.752-31.252,1.475-46.758,0.62
		c-20.218-1.115-39.82-6.298-58.778-13.667c-20.87-8.113-39.854-19.46-57.071-33.64c-17.004-14.002-31.111-30.611-42.622-49.45
		c-9.925-16.243-17.142-33.57-21.974-51.947c-0.354-1.345-0.441-2.563-0.287-3.872c5.846,2.029,10.118,6.367,14.807,10.094
		c0.107,1.143,0.003,2.357,0.354,3.421c3.828,11.644,8.919,22.78,15.227,33.228c12.15,20.125,27.334,37.628,45.929,52.245
		c17.478,13.739,36.447,24.562,57.401,31.888c17.156,5.999,34.734,9.659,52.942,11.196c17.578,1.484,34.698-0.134,51.959-2.988
		c12.775-2.112,24.774-6.59,37.067-10.207c6.105-0.015,11.045-3.441,16.182-5.938c13.461-6.542,25.941-14.714,37.678-24.027
		c1.438-1.14,2.296-2.301,2.523-4.033c5.199-5.119,10.407-10.229,15.598-15.356c7.603-7.509,13.877-16.08,19.828-24.901
		C415.516,307.641,422.245,292.908,427.725,277.566z"/>
	<path fill-rule="evenodd" clip-rule="evenodd" fill="#26592F" d="M324.547,404.271c-0.395-2.812,2-3.15,3.673-3.946
		c14.704-6.995,28.837-14.912,41.631-25.089c1.011-0.804,2.298-2.903,4.128-0.853c0.324,9.958-2.984,18.271-10.063,25.525
		c-8.333,8.541-25.383,11.4-35.706,5.613C327.104,404.902,325.774,404.679,324.547,404.271z"/>
	<path fill-rule="evenodd" clip-rule="evenodd" fill="#26592F" d="M171.885,36.576c0.162,1.726-1.018,2.264-2.352,2.718
		c-15.338,5.224-29.783,12.293-43.414,21.035c-0.941,0.603-1.689,1.019-2.598,0.103c1.482-4.529,2.438-9.174,5.156-13.327
		c8.471-12.938,26.041-18.089,40.505-11.535C170.057,35.965,170.983,36.243,171.885,36.576z"/>
	<path fill-rule="evenodd" clip-rule="evenodd" fill="#DADEDE" d="M235.723,71.505c34.006-0.149,62.133,6.249,88.455,20.154
		c32.104,16.96,56.371,41.526,71.995,74.425c1.546,3.254,2.993,6.583,4.105,10c0.382,1.174,2.579,3.207-0.187,4.031
		c-1.947,0.581-4.065,0.693-5.116-2.323c-3.142-9.02-7.737-17.339-12.814-25.434c-13.053-20.81-30.265-37.31-51.043-50.273
		c-17.604-10.983-36.626-18.255-56.931-22.268c-18.631-3.682-37.28-4.474-56.221-1.901c-19.732,2.681-38.427,8.299-56.125,17.199
		c-12.999,6.536-24.73,14.967-35.693,24.614c-14.33,12.608-25.409,27.631-34.551,44.191c-2.281,4.132-3.801,8.692-5.568,13.097
		c-0.892,2.22-2.219,4.167-4.717,3.123c-2.508-1.048-1.158-3.202-0.473-5.019c8.604-22.809,22.109-42.402,40.092-58.656
		c24.421-22.075,52.965-36.093,85.525-41.908C217.602,72.567,228.74,71.427,235.723,71.505z"/>
	<path fill-rule="evenodd" clip-rule="evenodd" fill="#DADEDE" d="M240.35,384.306c-36.645-0.711-70.541-10.258-100.926-31.053
		c-25.834-17.68-45.205-40.777-57.305-69.776c-0.619-1.483-2.456-3.571-0.041-4.681c2.348-1.08,4.25,0.058,5.337,2.743
		c8.116,20.058,20.522,37.223,36.323,51.821c19.738,18.235,42.52,31.145,68.519,38.567c19.479,5.561,39.204,7.771,59.312,6.565
		c20.009-1.2,39.264-5.967,57.676-13.884c21.029-9.042,39.291-22.058,55.066-38.67c12.404-13.063,21.928-27.972,29.102-44.398
		c1.098-2.512,2.441-3.622,4.693-2.836c2.764,0.964,0.938,2.918,0.343,4.447c-5.849,15.002-14.146,28.595-24.47,40.868
		c-14.858,17.665-32.938,31.401-53.615,41.53c-17.931,8.783-36.775,14.846-56.799,16.686
		C255.829,382.945,248.088,383.617,240.35,384.306z"/>
	<path fill-rule="evenodd" clip-rule="evenodd" fill="#F2F4F3" d="M362.795,220.41c0-4.901-0.01-9.225,0.006-13.548
		c0.005-1.469-0.29-3.07,2.051-3.166c2.459-0.101,2.602,1.363,2.598,3.208c-0.027,12.477,0.027,24.954-0.068,37.43
		c-0.012,1.5,1.209,3.781-1.951,4.159c-3.379,0.404-2.348-2.266-3.053-4.192c-4.5,3.646-9.339,5.926-15.154,4.767
		c-4.27-0.851-7.639-3.146-10.268-6.562c-4.998-6.495-4.283-16.408,1.595-22.385C344.772,213.793,353.479,213.764,362.795,220.41z
		 M362.984,232.227c-0.086-7.239-5.629-12.724-12.631-12.5c-6.798,0.218-11.99,5.771-11.911,12.738
		c0.077,6.803,5.676,12.602,12.186,12.622C357.579,245.108,363.069,239.393,362.984,232.227z"/>
	<path fill-rule="evenodd" clip-rule="evenodd" fill="#F2F4F3" d="M112.127,232.738c-3.822,0-7.648,0.101-11.467-0.034
		c-2.676-0.094-3.019,0.84-2.299,3.263c1.286,4.326,3.738,7.387,8.16,8.518c4.674,1.196,8.846,0.082,12.318-3.323
		c0.704-0.691,1.354-1.492,1.828-2.353c0.975-1.766,2.092-0.95,3.322-0.4c1.984,0.887,1.012,1.973,0.355,3.139
		c-3.621,6.431-12.191,9.377-20.068,6.873c-7.197-2.289-12.193-10.431-11.055-18.019c1.293-8.619,7.165-14.577,14.778-14.995
		c9.608-0.528,16.231,4.383,18.231,13.28c0.654,2.908,0.354,4.363-3.141,4.109C119.455,232.532,115.784,232.737,112.127,232.738z
		 M98.431,228.704c6.917,0,13.226-0.097,19.53,0.035c3.965,0.083,3.189-1.757,1.762-3.872c-2.553-3.784-6.291-5.384-10.727-5.108
		C103.82,220.082,100.489,222.947,98.431,228.704z"/>
	<path fill-rule="evenodd" clip-rule="evenodd" fill="#F2F4F3" d="M374.691,232.376c-0.03-9.876,7.021-16.995,16.82-16.979
		c9.609,0.016,17.052,7.523,16.921,17.067c-0.129,9.317-7.522,16.757-16.774,16.878C382.029,249.47,374.721,242.162,374.691,232.376
		z M379.438,232.656c0.08,7.223,5.141,12.165,12.338,12.047c6.925-0.113,12.095-5.599,11.914-12.644
		c-0.175-6.798-5.992-12.525-12.52-12.329C384.491,219.933,379.36,225.585,379.438,232.656z"/>
	<path fill-rule="evenodd" clip-rule="evenodd" fill="#F2F4F3" d="M207.691,232.381c-0.03-9.917,6.972-16.995,16.803-16.984
		c9.614,0.01,17.054,7.502,16.938,17.059c-0.11,9.307-7.52,16.764-16.775,16.887C215.032,249.471,207.721,242.161,207.691,232.381z
		 M212.438,232.646c0.079,7.261,5.09,12.166,12.316,12.057c6.926-0.104,12.117-5.604,11.936-12.646
		c-0.175-6.757-6.02-12.505-12.533-12.326C217.499,219.915,212.36,225.578,212.438,232.646z"/>
	<path fill-rule="evenodd" clip-rule="evenodd" fill="#F2F4F3" d="M303.744,232.4c-0.003,9.743-7.342,17.071-16.967,16.943
		c-9.206-0.122-16.737-7.722-16.765-16.918c-0.029-9.519,7.465-17.024,17.003-17.027C296.858,215.394,303.747,222.395,303.744,232.4
		z M287.032,244.702c6.887,0.004,12.266-5.43,12.24-12.367c-0.023-6.739-5.746-12.611-12.281-12.604
		c-6.521,0.008-12.217,5.887-12.245,12.64C274.715,239.383,280.01,244.697,287.032,244.702z"/>
	<path fill-rule="evenodd" clip-rule="evenodd" fill="#F2F4F3" d="M150.405,215.393c4.505-0.158,8.588,1.083,11.924,4.126
		c1.091,0.996,3.633,1.938,1.618,4.208c-1.769,1.993-2.931,0.535-4.462-0.706c-7.18-5.816-17.587-3.942-21.363,3.693
		c-2.502,5.059-1.256,11.182,3.05,14.974c4.417,3.891,11.7,4.37,16.677,1.064c0.826-0.548,1.738-1.109,2.297-1.89
		c1.305-1.824,2.534-1.02,3.745-0.059c2.091,1.66,0.058,2.592-0.812,3.512c-5.092,5.396-15.324,6.64-22.24,2.79
		c-6.822-3.797-9.996-11.34-8.051-19.136C134.7,220.306,141.604,215.378,150.405,215.393z"/>
	<path fill-rule="evenodd" clip-rule="evenodd" fill="#FAFBFA" d="M177.522,220.232c3.236-2.367,6.158-4.766,10.27-4.86
		c7.417-0.169,12.275,3.87,12.742,11.561c0.383,6.3,0.143,12.637,0.197,18.958c0.012,1.409,0.02,2.536-1.995,2.59
		c-2.274,0.062-2.284-1.199-2.311-2.834c-0.087-5.314-0.238-10.628-0.403-15.941c-0.213-6.837-2.592-10.028-7.594-10.267
		c-5.162-0.246-9.992,4.069-10.889,9.708c-0.842,5.288-0.446,10.617-0.563,15.929c-0.034,1.523,0.63,3.438-2.205,3.398
		c-2.929-0.04-2.018-2.092-2.029-3.509c-0.069-8.151-0.108-16.305,0.034-24.454c0.025-1.477-1.336-3.773,1.613-4.349
		C177.7,215.515,176.558,218.598,177.522,220.232z"/>
	<path fill-rule="evenodd" clip-rule="evenodd" fill="#F2F4F3" d="M74.999,228.759c0-4.65-0.287-9.323,0.085-13.942
		c0.341-4.221-0.733-6.299-5.292-5.384c-0.638,0.128-1.33-0.042-1.987,0.025c-1.851,0.188-2.161-0.813-2.146-2.394
		c0.015-1.666,0.603-2.385,2.32-2.372c6.311,0.049,12.621,0.042,18.931,0.001c1.769-0.011,2.73,0.439,2.78,2.5
		c0.057,2.289-1.263,2.181-2.846,2.282c-6.815,0.439-6.813,0.473-6.813,7.184c-0.001,9.465-0.013,18.931,0.011,28.396
		c0.004,1.886,0.264,3.579-2.668,3.471c-2.645-0.098-2.377-1.656-2.377-3.327C75.001,239.719,74.999,234.239,74.999,228.759z"/>
	<path fill-rule="evenodd" clip-rule="evenodd" fill="#FAFBFA" d="M62.719,229.428c0,5.554-4.692,10.133-10.244,9.999
		c-5.367-0.13-9.727-4.598-9.748-9.992c-0.022-5.334,4.41-9.89,9.736-10.008C58.016,219.304,62.72,223.891,62.719,229.428z"/>
	<path fill-rule="evenodd" clip-rule="evenodd" fill="#FAFBFA" d="M426.709,219.431c5.57,0.017,10.146,4.699,10.01,10.243
		c-0.131,5.356-4.629,9.747-9.991,9.753c-5.56,0.006-10.116-4.658-10.006-10.239C416.829,223.867,421.386,219.414,426.709,219.431z"
		/>
	<path fill-rule="evenodd" clip-rule="evenodd" fill="#F2F4F3" d="M255.951,215.384c2.757-0.234,5.147,1.185,7.448,2.917
		c1.095,0.825,1.707,1.628,0.426,2.742c-0.807,0.701-1.443,2.061-2.852,0.897c-0.129-0.106-0.256-0.213-0.394-0.307
		c-3.089-2.104-6.683-3.874-8.845,0.449c-2.232,4.463,2.158,5.896,5.059,7.553c4.63,2.645,9.055,5.301,7.924,11.777
		c-0.746,4.272-3.438,6.749-7.488,7.661c-4.222,0.951-7.843-0.59-10.936-3.434c-1.265-1.164-0.16-2.001,0.557-2.92
		c0.906-1.16,1.694-1.318,2.766-0.186c1.302,1.375,2.957,2.041,4.871,2.168c2.886,0.194,4.848-1.14,5.85-3.699
		c0.976-2.49-0.648-4.15-2.467-5.396c-2.455-1.683-5.24-2.913-7.58-4.729c-3.162-2.452-4.41-5.846-2.994-9.753
		C248.682,217.303,251.486,215.266,255.951,215.384z"/>
	<path fill-rule="evenodd" clip-rule="evenodd" fill="#FFFFFF" d="M314.971,225.924c0,6.482,0.013,12.964-0.012,19.445
		c-0.005,1.411,0.429,2.996-2.008,3.101c-2.565,0.109-2.506-1.354-2.502-3.136c0.027-12.797,0.006-25.595,0.025-38.392
		c0.003-1.43-0.363-3.074,2.009-3.201c2.583-0.138,2.497,1.493,2.492,3.236C314.961,213.293,314.971,219.608,314.971,225.924z"/>
	<path fill-rule="evenodd" clip-rule="evenodd" fill="#FFFFFF" d="M326.969,231.906c0,4.639-0.057,9.278,0.027,13.915
		c0.033,1.836-0.448,2.697-2.486,2.644c-1.932-0.051-2.058-1.101-2.055-2.556c0.021-8.945,0.016-17.891,0.004-26.836
		c-0.002-1.555-0.091-2.928,2.215-2.939c2.23-0.011,2.323,1.212,2.309,2.853C326.944,223.292,326.969,227.599,326.969,231.906z"/>
	<path fill-rule="evenodd" clip-rule="evenodd" fill="#F2F4F3" d="M282.14,210.39c4.149-4.226,4.899-11.397,13.435-8.653
		C291.266,204.853,289.767,210.827,282.14,210.39z"/>
	<path fill-rule="evenodd" clip-rule="evenodd" fill="#F2F4F3" d="M328.069,206.404c-0.044,2.205-1.338,3.542-3.342,3.598
		c-2.056,0.057-3.465-1.374-3.428-3.475c0.032-1.784,1.024-3.188,3.076-3.281C326.566,203.146,327.801,204.242,328.069,206.404z"/>
	<path fill-rule="evenodd" clip-rule="evenodd" fill="#26592F" d="M362.984,232.227c0.085,7.167-5.405,12.881-12.356,12.86
		c-6.51-0.02-12.108-5.819-12.186-12.622c-0.079-6.967,5.113-12.52,11.911-12.738C357.355,219.502,362.898,224.988,362.984,232.227z
		"/>
	<path fill-rule="evenodd" clip-rule="evenodd" fill="#26592F" d="M98.431,228.704c2.058-5.757,5.389-8.623,10.565-8.945
		c4.436-0.276,8.174,1.324,10.727,5.108c1.428,2.115,2.203,3.956-1.762,3.872C111.657,228.607,105.348,228.704,98.431,228.704z"/>
	<path fill-rule="evenodd" clip-rule="evenodd" fill="#26592F" d="M379.438,232.656c-0.078-7.07,5.053-12.723,11.732-12.925
		c6.527-0.197,12.345,5.531,12.52,12.329c0.181,7.044-4.989,12.531-11.914,12.644C384.579,244.82,379.518,239.879,379.438,232.656z"
		/>
	<path fill-rule="evenodd" clip-rule="evenodd" fill="#26592F" d="M212.438,232.646c-0.078-7.068,5.061-12.73,11.719-12.915
		c6.514-0.18,12.358,5.568,12.533,12.326c0.182,7.042-5.01,12.541-11.936,12.646C217.528,244.812,212.517,239.906,212.438,232.646z"
		/>
	<path fill-rule="evenodd" clip-rule="evenodd" fill="#26592F" d="M287.032,244.702c-7.021-0.005-12.316-5.318-12.286-12.331
		c0.028-6.753,5.724-12.632,12.245-12.64c6.535-0.007,12.258,5.865,12.281,12.604C299.297,239.272,293.918,244.706,287.032,244.702z
		"/>
</g>
</svg>
